<svg width="107" height="107" viewBox="0 0 107 107" fill="none" xmlns="http://www.w3.org/2000/svg">
<g clip-path="url(#clip0_208_14)">
<g filter="url(#filter0_d_208_14)">
<path d="M0.91753 49.8166C0.932342 47.1868 1.98254 44.6686 3.84067 42.8075L43.3182 3.267C45.1802 1.402 47.7032 0.34743 50.3386 0.332584L81.6984 0.155929C90.6328 0.105599 95.1438 10.9045 88.8282 17.2244L17.8143 88.287C11.4964 94.6092 0.69063 90.0998 0.740973 81.1621L0.91753 49.8166Z" fill="#BD00FF"/>
</g>
<path d="M0.0639346 46L45.9998 -0.0100763L107 -0.0100817L0.0639636 107L0.0639346 46Z" fill="#BD00FF"/>
<path d="M11.0111 53.4854C10.8838 52.9509 10.9092 52.3908 11.0874 51.8053C11.2656 51.2199 11.6008 50.681 12.0929 50.1889C12.6784 49.6034 13.3572 49.2216 14.1294 49.0434C14.9016 48.8652 15.6992 48.9161 16.5223 49.1961C17.3538 49.4677 18.1345 49.9683 18.8642 50.698C19.5939 51.4278 20.0988 52.2126 20.3788 53.0527C20.6588 53.8758 20.714 54.6776 20.5443 55.4583C20.3661 56.2304 19.9843 56.9092 19.3988 57.4947C18.8981 57.9954 18.3636 58.3348 17.795 58.513C17.2181 58.6827 16.658 58.7081 16.115 58.5893L17.1077 59.5821L14.9313 61.7586L5.5126 52.3399L7.68908 50.1634L11.0111 53.4854ZM16.6495 52.9127C16.1065 52.3696 15.5295 52.0981 14.9185 52.0981C14.3076 52.0811 13.7815 52.2933 13.3403 52.7345C12.9075 53.1672 12.6954 53.6933 12.7039 54.3127C12.7209 54.9237 13.0009 55.5007 13.5439 56.0437C14.087 56.5868 14.664 56.8668 15.2749 56.8838C15.8943 56.8923 16.4204 56.6801 16.8532 56.2474C17.2859 55.8146 17.4981 55.2886 17.4896 54.6691C17.4726 54.0412 17.1926 53.4557 16.6495 52.9127ZM26.5991 42.7595C26.8027 42.9631 27.0021 43.188 27.1973 43.4341L22.2716 48.3598C22.7468 48.7671 23.2262 48.9665 23.7099 48.958C24.1935 48.9325 24.6178 48.7374 24.9826 48.3725C25.5257 47.8294 25.6742 47.2227 25.4281 46.5524L27.7446 44.2359C28.0925 44.8214 28.2961 45.4578 28.3555 46.1451C28.4234 46.8239 28.3301 47.5027 28.0755 48.1816C27.821 48.8604 27.4052 49.4883 26.8282 50.0653C26.1324 50.7611 25.3645 51.232 24.5244 51.4781C23.6844 51.7242 22.8359 51.7242 21.9789 51.4781C21.1218 51.232 20.3242 50.7399 19.586 50.0017C18.8478 49.2634 18.3514 48.4701 18.0968 47.6215C17.8508 46.7645 17.8508 45.916 18.0968 45.076C18.3429 44.2359 18.8181 43.4638 19.5224 42.7595C20.2097 42.0722 20.9649 41.6055 21.7879 41.3594C22.611 41.1133 23.4383 41.1091 24.2699 41.3467C25.1099 41.5758 25.8863 42.0467 26.5991 42.7595ZM23.7989 44.4141C23.4256 44.0408 23.0013 43.871 22.5262 43.905C22.051 43.9389 21.6225 44.1468 21.2406 44.5287C20.8758 44.8935 20.6721 45.3093 20.6297 45.776C20.5958 46.2342 20.7442 46.6882 21.0752 47.1379L23.7989 44.4141ZM33.5258 39.473L35.3713 41.3185L34.264 42.4259C33.4749 43.215 32.6688 43.6393 31.8457 43.6987C31.0141 43.7496 30.1614 43.338 29.2874 42.464L26.4618 39.6384L25.5963 40.5039L23.7889 38.6966L24.6544 37.8311L22.9234 36.1001L25.0999 33.9236L26.8309 35.6546L28.2564 34.2291L30.0638 36.0364L28.6382 37.462L31.4893 40.313C31.7014 40.5252 31.9051 40.627 32.1002 40.6185C32.2954 40.61 32.5118 40.487 32.7494 40.2494L33.5258 39.473ZM32.5871 36.9751C31.8573 36.2454 31.3525 35.469 31.0725 34.6459C30.8009 33.8144 30.7543 33.0125 30.9325 32.2403C31.1106 31.4682 31.4925 30.7894 32.078 30.2039C32.5786 29.7032 33.1174 29.3681 33.6944 29.1984C34.2799 29.0202 34.8399 28.9947 35.3745 29.122L34.369 28.1165L36.5455 25.94L43.6476 33.0422L41.4712 35.2187L40.4657 34.2132C40.5845 34.7562 40.5548 35.3205 40.3766 35.906C40.2069 36.483 39.8717 37.0218 39.3711 37.5224C38.7941 38.0994 38.1195 38.477 37.3473 38.6552C36.5667 38.8249 35.7606 38.774 34.929 38.5025C34.0975 38.214 33.3168 37.7049 32.5871 36.9751ZM37.9201 31.6676C37.377 31.1245 36.7958 30.8488 36.1764 30.8403C35.5654 30.8233 35.0436 31.0312 34.6108 31.4639C34.1781 31.8967 33.9659 32.4228 33.9744 33.0422C33.9829 33.6447 34.2587 34.2174 34.8017 34.7605C35.3448 35.3035 35.926 35.5878 36.5455 35.6132C37.1649 35.6217 37.691 35.4096 38.1237 34.9768C38.5565 34.5441 38.7644 34.0223 38.7474 33.4113C38.7389 32.7919 38.4631 32.2106 37.9201 31.6676ZM40.2063 21.9482L38.1826 19.9245L41.7082 16.3989L50.9996 25.6902L48.734 27.9558L41.4664 20.6882L40.2063 21.9482ZM53.8249 23.0686C53.4431 23.4504 53.0188 23.6541 52.5521 23.6795C52.0854 23.688 51.6866 23.5268 51.3557 23.1959C51.0163 22.8565 50.8508 22.4534 50.8593 21.9867C50.8763 21.5115 51.0757 21.083 51.4575 20.7012C51.8309 20.3278 52.2509 20.1369 52.7176 20.1284C53.1928 20.1115 53.6001 20.2727 53.9395 20.6121C54.2704 20.943 54.4274 21.3461 54.4104 21.8212C54.3934 22.2795 54.1983 22.6952 53.8249 23.0686ZM51.3077 15.8362C49.8482 14.3768 48.9785 12.947 48.6984 11.5469C48.4269 10.1384 48.9191 8.80618 50.1749 7.55036C51.4307 6.29454 52.7586 5.80664 54.1587 6.08665C55.5673 6.35818 57.0013 7.22368 58.4608 8.68315C59.9372 10.1596 60.8112 11.6021 61.0827 13.0106C61.3627 14.4107 60.8748 15.7387 59.619 16.9945C58.3632 18.2503 57.031 18.7424 55.6224 18.4709C54.2224 18.1909 52.7841 17.3127 51.3077 15.8362ZM56.3225 10.8214C55.4655 9.96443 54.7145 9.40015 54.0696 9.12863C53.4163 8.84861 52.7968 9.00135 52.2113 9.58683C51.6259 10.1723 51.4731 10.7917 51.7531 11.4451C52.0247 12.09 52.5889 12.8409 53.446 13.6979C54.023 14.2749 54.5363 14.7204 54.986 15.0344C55.4273 15.3399 55.8685 15.5096 56.3097 15.5435C56.751 15.5605 57.1752 15.3653 57.5825 14.958C57.9898 14.5507 58.1807 14.1307 58.1553 13.6979C58.1298 13.2482 57.9644 12.8028 57.6589 12.3615C57.3449 11.9118 56.8995 11.3984 56.3225 10.8214Z" fill="white" fill-opacity="0.9"/>
<path d="M11.2685 77.1759L13.7809 79.6883C13.9883 79.8957 14.1801 79.9994 14.3564 79.9994C14.5276 79.9942 14.722 79.8827 14.9398 79.6649L15.4609 79.1438L16.0599 79.7427L15.422 80.3805C15.028 80.7746 14.6416 80.9794 14.2631 80.995C13.8846 81.0105 13.4879 80.8109 13.073 80.3961L10.5607 77.8837L10.0084 78.436L9.42507 77.8526L9.97732 77.3004L8.90394 76.227L9.61175 75.5192L10.6851 76.5925L11.7974 75.4803L12.3808 76.0636L11.2685 77.1759ZM14.5062 77.0028C14.0706 76.5672 13.7777 76.0979 13.6273 75.5949C13.4717 75.0868 13.4562 74.589 13.5806 74.1015C13.7103 73.6089 13.9643 73.1733 14.3429 72.7948C14.7162 72.4214 15.1207 72.1777 15.5563 72.0636C15.9919 71.9496 16.3989 71.947 16.7775 72.0559L15.9996 71.278L16.7152 70.5625L20.9777 74.8249L20.2621 75.5405L19.4687 74.7471C19.5776 75.136 19.575 75.5535 19.4609 75.9994C19.3468 76.435 19.1057 76.8368 18.7376 77.205C18.359 77.5836 17.9234 77.8325 17.4308 77.9517C16.9382 78.071 16.4352 78.0502 15.9219 77.8895C15.4085 77.7287 14.9366 77.4332 14.5062 77.0028ZM18.1231 73.4015C17.8016 73.08 17.4567 72.8648 17.0886 72.7559C16.7204 72.647 16.3626 72.6418 16.0152 72.7403C15.6678 72.8285 15.3618 73.0048 15.0974 73.2693C14.8329 73.5337 14.654 73.8371 14.5607 74.1793C14.4673 74.5215 14.4751 74.8767 14.584 75.2449C14.6929 75.6131 14.9081 75.9579 15.2296 76.2794C15.5563 76.6061 15.9063 76.8265 16.2797 76.9406C16.6478 77.0495 17.0056 77.0598 17.353 76.9717C17.6953 76.8783 17.9986 76.6994 18.2631 76.435C18.5275 76.1705 18.7064 75.8672 18.7998 75.5249C18.8931 75.1723 18.8853 74.8119 18.7764 74.4438C18.6624 74.0704 18.4446 73.723 18.1231 73.4015ZM19.4048 69.4441C19.3011 69.0604 19.3063 68.6507 19.4203 68.2151C19.5344 67.7692 19.7755 67.3621 20.1437 66.994C20.5222 66.6154 20.9552 66.3639 21.4427 66.2395C21.9353 66.1099 22.4357 66.1228 22.9438 66.2784C23.4468 66.4288 23.9161 66.7217 24.3517 67.1573C24.7821 67.5877 25.0777 68.0596 25.2384 68.5729C25.3992 69.0863 25.4173 69.5919 25.2929 70.0897C25.1736 70.5823 24.9247 71.0179 24.5461 71.3964C24.1832 71.7594 23.7813 72.0005 23.3405 72.1198C22.8998 72.2287 22.4849 72.2339 22.096 72.1353L24.9039 74.9433L24.1961 75.6511L17.9114 69.3663L18.6192 68.6585L19.4048 69.4441ZM23.6283 67.8807C23.3068 67.5592 22.962 67.344 22.5938 67.2351C22.2257 67.1262 21.8679 67.121 21.5204 67.2195C21.1782 67.3129 20.8749 67.4918 20.6104 67.7562C20.3511 68.0155 20.1748 68.3214 20.0815 68.6741C19.9881 69.0163 19.9959 69.3767 20.1048 69.7552C20.2137 70.1234 20.4263 70.4656 20.7426 70.7819C21.0641 71.1034 21.4115 71.3212 21.7849 71.4353C22.1582 71.539 22.5186 71.5468 22.8661 71.4586C23.2135 71.3601 23.5168 71.1812 23.7761 70.922C24.0406 70.6575 24.2195 70.3541 24.3128 70.0119C24.4061 69.6593 24.3984 69.2989 24.2895 68.9307C24.1754 68.5574 23.955 68.2074 23.6283 67.8807ZM33.6651 62.1374L32.2417 62.1296C32.2521 62.6689 32.1743 63.1564 32.0084 63.5919C31.8373 64.0223 31.5624 64.4268 31.1839 64.8053C30.8106 65.1787 30.4113 65.4431 29.9861 65.5987C29.566 65.7491 29.1512 65.7802 28.7416 65.692C28.3371 65.5987 27.9689 65.3861 27.6371 65.0542C27.2585 64.6757 27.033 64.2375 26.9604 63.7397C26.8878 63.2315 26.9785 62.6845 27.2326 62.0985C26.8696 62.0674 26.5689 62.0052 26.3303 61.9118C26.0918 61.8185 25.874 61.6733 25.677 61.4763C25.4488 61.2481 25.301 60.9862 25.2336 60.6907C25.1662 60.3847 25.1895 60.071 25.3036 59.7495C25.4177 59.428 25.6173 59.1247 25.9025 58.8395C26.1825 58.5595 26.4807 58.3702 26.797 58.2717C27.1133 58.1731 27.4219 58.1705 27.7226 58.2639C28.0182 58.352 28.2801 58.5206 28.5082 58.7695L27.8004 59.4773C27.593 59.2595 27.3674 59.1532 27.1237 59.1584C26.8748 59.1584 26.6518 59.2569 26.4548 59.4539C26.2474 59.6614 26.1385 59.8895 26.1281 60.1384C26.1177 60.377 26.2033 60.587 26.3848 60.7685C26.5403 60.924 26.7322 61.0329 26.9604 61.0951C27.1937 61.1522 27.5178 61.1859 27.9326 61.1963L31.1761 61.204L31.0983 60.8462L30.7406 59.4306L31.5028 58.6683L31.9695 60.4107C32.0369 60.6544 32.0965 60.9214 32.1484 61.2118H34.5908L33.6651 62.1374ZM30.5772 64.1986C30.8572 63.9186 31.0543 63.6127 31.1684 63.2808C31.2876 62.9438 31.3343 62.56 31.3084 62.1296L28.1115 62.1219C27.7019 63.0397 27.7719 63.7734 28.3215 64.3231C28.6275 64.629 28.9905 64.7742 29.4105 64.7587C29.8357 64.7379 30.2246 64.5512 30.5772 64.1986ZM38.9065 57.036C38.5799 57.3627 38.2324 57.6012 37.8643 57.7516C37.4909 57.8968 37.1305 57.9461 36.7831 57.8994C36.4305 57.8476 36.1168 57.6998 35.8419 57.456L36.5731 56.7249C36.8064 56.9168 37.0787 56.992 37.3898 56.9505C37.7061 56.9038 38.0095 56.7353 38.2998 56.4449C38.5695 56.1752 38.7225 55.903 38.7588 55.6282C38.7951 55.3533 38.7225 55.1252 38.541 54.9437C38.3543 54.757 38.1339 54.7026 37.8798 54.7804C37.6206 54.853 37.2731 55.0189 36.8375 55.2782C36.4383 55.5115 36.096 55.6878 35.8108 55.8071C35.5256 55.916 35.2275 55.96 34.9163 55.9393C34.6052 55.9082 34.3122 55.7552 34.0374 55.4804C33.8196 55.2626 33.6848 54.9981 33.6329 54.687C33.5811 54.3759 33.6226 54.0492 33.7574 53.707C33.887 53.3595 34.1048 53.0329 34.4108 52.7269C34.8826 52.255 35.383 51.9932 35.9119 51.9413C36.4409 51.8895 36.9231 52.0606 37.3587 52.4547L36.6509 53.1625C36.4123 52.9551 36.1427 52.8669 35.8419 52.898C35.5464 52.924 35.2612 53.0743 34.9863 53.3492C34.7323 53.6033 34.5845 53.8599 34.543 54.1192C34.5015 54.3785 34.5689 54.5963 34.7452 54.7726C34.8852 54.9126 35.046 54.9852 35.2275 54.9904C35.409 54.9852 35.5956 54.9437 35.7875 54.8659C35.9794 54.7778 36.2309 54.6455 36.542 54.4692C36.9309 54.2463 37.2628 54.0803 37.5376 53.9714C37.8072 53.8573 38.0898 53.8133 38.3854 53.8392C38.6862 53.8599 38.9688 53.9974 39.2332 54.2514C39.4666 54.4848 39.6118 54.7596 39.6688 55.0759C39.7258 55.3922 39.6895 55.7241 39.5599 56.0715C39.4303 56.4086 39.2125 56.7301 38.9065 57.036ZM42.9859 48.2275C43.1207 48.3624 43.2555 48.5127 43.3904 48.6787L39.9835 52.0855C40.4295 52.4796 40.9013 52.6663 41.3991 52.6456C41.8969 52.6144 42.3325 52.4122 42.7059 52.0389C43.0118 51.7329 43.1959 51.4088 43.2581 51.0666C43.3204 50.714 43.2737 50.3769 43.1181 50.0554L43.8804 49.2932C44.176 49.8169 44.2823 50.3795 44.1993 50.981C44.1111 51.5773 43.813 52.1296 43.3048 52.6378C42.9003 53.0422 42.4466 53.3145 41.9436 53.4545C41.4458 53.5893 40.9402 53.5815 40.4269 53.4311C39.9083 53.2756 39.4287 52.9774 38.9879 52.5367C38.5471 52.0959 38.249 51.6214 38.0934 51.1133C37.9379 50.6051 37.9301 50.1047 38.0701 49.6121C38.2101 49.1091 38.4875 48.6502 38.9023 48.2353C39.3068 47.8309 39.7528 47.5612 40.2402 47.4264C40.7276 47.2916 41.2099 47.2968 41.6869 47.442C42.164 47.5768 42.597 47.8386 42.9859 48.2275ZM42.107 48.8109C41.8373 48.5413 41.5469 48.3701 41.2358 48.2976C40.9195 48.2198 40.6084 48.2353 40.3024 48.3442C39.9965 48.4427 39.7191 48.6165 39.4702 48.8654C39.1124 49.2232 38.9205 49.6432 38.8946 50.1254C38.8738 50.6025 39.0475 51.0614 39.4157 51.5022L42.107 48.8109ZM43.9513 43.1708C44.4698 42.6523 45.048 42.3904 45.6858 42.3852C46.3185 42.3749 46.9303 42.6652 47.5215 43.2564L50.0338 45.7687L49.3338 46.4688L46.9226 44.0575C46.4974 43.6323 46.067 43.4145 45.6314 43.4042C45.1906 43.3886 44.7862 43.5649 44.418 43.9331C44.0446 44.3064 43.8631 44.7213 43.8735 45.1776C43.8891 45.6287 44.1198 46.0773 44.5658 46.5232L46.9226 48.88L46.2147 49.5878L41.9523 45.3254L42.6601 44.6176L43.2668 45.2243C43.189 44.8665 43.2098 44.5087 43.329 44.1509C43.4535 43.7879 43.6609 43.4612 43.9513 43.1708ZM48.7788 42.7302C48.3432 42.2946 48.0503 41.8253 47.8999 41.3224C47.7443 40.8142 47.7288 40.3164 47.8532 39.8289C47.9828 39.3363 48.2395 38.8982 48.6232 38.5144C48.9551 38.1826 49.3414 37.9518 49.7822 37.8222C50.2178 37.6874 50.6352 37.6692 51.0345 37.7677L48.7788 35.5121L49.4944 34.7965L55.2503 40.5523L54.5347 41.2679L53.7335 40.4668C53.8476 40.8608 53.8502 41.2783 53.7413 41.719C53.6272 42.1546 53.3861 42.5565 53.0179 42.9247C52.6394 43.3032 52.2012 43.5547 51.7034 43.6791C51.2108 43.7984 50.7078 43.7777 50.1944 43.6169C49.6811 43.4562 49.2092 43.1606 48.7788 42.7302ZM52.3957 39.1289C52.0742 38.8074 51.7293 38.5922 51.3612 38.4833C50.993 38.3744 50.6352 38.3692 50.2878 38.4678C49.9403 38.5559 49.6344 38.7322 49.3699 38.9967C49.1055 39.2611 48.9266 39.5645 48.8333 39.9067C48.7399 40.249 48.7477 40.6042 48.8566 40.9723C48.9655 41.3405 49.1807 41.6853 49.5022 42.0068C49.8289 42.3335 50.1789 42.5539 50.5522 42.668C50.9204 42.7769 51.2782 42.7872 51.6256 42.6991C51.9679 42.6058 52.2712 42.4269 52.5357 42.1624C52.8001 41.8979 52.979 41.5946 53.0724 41.2523C53.1657 40.8997 53.1579 40.5393 53.049 40.1712C52.9349 39.7978 52.7172 39.4504 52.3957 39.1289ZM55.6577 33.0045C55.5384 32.6363 55.5255 32.2708 55.6188 31.9078C55.7173 31.5396 55.9325 31.1896 56.2644 30.8577L56.9955 31.5889L56.8089 31.7756C56.0155 32.5689 56.0492 33.396 56.91 34.2568L59.2279 36.5747L58.5201 37.2825L54.2576 33.0201L54.9654 32.3122L55.6577 33.0045ZM63.0162 28.1972C63.151 28.3321 63.2859 28.4824 63.4207 28.6484L60.0138 32.0552C60.4598 32.4493 60.9317 32.636 61.4295 32.6152C61.9273 32.5841 62.3628 32.3819 62.7362 32.0085C63.0421 31.7026 63.2262 31.3785 63.2884 31.0363C63.3507 30.6837 63.304 30.3466 63.1484 30.0251L63.9107 29.2628C64.2063 29.7866 64.3126 30.3492 64.2296 30.9507C64.1415 31.547 63.8433 32.0993 63.3351 32.6075C62.9307 33.0119 62.4769 33.2842 61.9739 33.4242C61.4761 33.559 60.9706 33.5512 60.4572 33.4008C59.9386 33.2453 59.459 32.9471 59.0182 32.5063C58.5775 32.0656 58.2793 31.5911 58.1237 31.0829C57.9682 30.5748 57.9604 30.0744 58.1004 29.5817C58.2404 29.0788 58.5178 28.6198 58.9327 28.205C59.3371 27.8005 59.7831 27.5309 60.2705 27.3961C60.7579 27.2613 61.2402 27.2664 61.7173 27.4116C62.1943 27.5465 62.6273 27.8083 63.0162 28.1972ZM62.1373 28.7806C61.8676 28.5109 61.5772 28.3398 61.2661 28.2672C60.9498 28.1895 60.6387 28.205 60.3327 28.3139C60.0268 28.4124 59.7494 28.5861 59.5005 28.835C59.1427 29.1928 58.9508 29.6129 58.9249 30.0951C58.9041 30.5722 59.0779 31.0311 59.446 31.4718L62.1373 28.7806ZM67.0307 20.0915C67.3625 19.7596 67.7281 19.534 68.1274 19.4148C68.5215 19.2903 68.9311 19.2903 69.3563 19.4148C69.7815 19.5392 70.1912 19.7985 70.5853 20.1926L73.0976 22.7049L72.3976 23.405L69.9864 20.9937C69.5612 20.5685 69.1308 20.3507 68.6952 20.3404C68.2596 20.3196 67.8629 20.4881 67.5051 20.8459C67.137 21.2141 66.9632 21.6264 66.984 22.0827C66.9995 22.5338 67.2303 22.9823 67.6762 23.4283L70.0253 25.7773L69.3252 26.4773L66.914 24.0661C66.4888 23.6409 66.0584 23.4231 65.6228 23.4127C65.1872 23.392 64.7905 23.5605 64.4327 23.9183C64.0646 24.2865 63.8909 24.6987 63.9116 25.1551C63.9272 25.6062 64.1579 26.0547 64.6039 26.5007L66.9529 28.8497L66.2451 29.5575L61.9826 25.2951L62.6904 24.5872L63.3049 25.2017C63.2219 24.8387 63.2375 24.4809 63.3516 24.1283C63.4708 23.7705 63.6731 23.449 63.9583 23.1638C64.3161 22.806 64.7128 22.5701 65.1483 22.456C65.5839 22.3419 66.0247 22.3731 66.4706 22.5494C66.2891 22.1293 66.2528 21.699 66.3617 21.2582C66.4706 20.8174 66.6936 20.4285 67.0307 20.0915ZM71.8475 19.6615C71.4119 19.226 71.1189 18.7567 70.9685 18.2537C70.813 17.7455 70.7974 17.2477 70.9219 16.7603C71.0515 16.2677 71.3056 15.8321 71.6841 15.4535C72.0575 15.0802 72.462 14.8365 72.8975 14.7224C73.3331 14.6083 73.7402 14.6057 74.1187 14.7146L73.3409 13.9368L74.0565 13.2212L78.3189 17.4836L77.6033 18.1992L76.81 17.4059C76.9188 17.7948 76.9163 18.2122 76.8022 18.6581C76.6881 19.0937 76.447 19.4956 76.0788 19.8638C75.7003 20.2423 75.2647 20.4912 74.7721 20.6105C74.2795 20.7297 73.7765 20.709 73.2631 20.5482C72.7497 20.3875 72.2779 20.0919 71.8475 19.6615ZM75.4643 16.0602C75.1428 15.7387 74.798 15.5235 74.4298 15.4147C74.0617 15.3058 73.7039 15.3006 73.3564 15.3991C73.009 15.4872 72.7031 15.6636 72.4386 15.928C72.1742 16.1925 71.9953 16.4958 71.9019 16.8381C71.8086 17.1803 71.8164 17.5355 71.9253 17.9037C72.0342 18.2718 72.2493 18.6167 72.5708 18.9382C72.8975 19.2648 73.2475 19.4852 73.6209 19.5993C73.9891 19.7082 74.3469 19.7186 74.6943 19.6304C75.0365 19.5371 75.3399 19.3582 75.6043 19.0937C75.8688 18.8293 76.0477 18.5259 76.141 18.1837C76.2344 17.8311 76.2266 17.4707 76.1177 17.1025C76.0036 16.7292 75.7858 16.3817 75.4643 16.0602ZM76.6527 12.0095C76.5334 11.6413 76.5205 11.2758 76.6138 10.9128C76.7123 10.5446 76.9275 10.1946 77.2594 9.86274L77.9905 10.5939L77.8039 10.7806C77.0105 11.5739 77.0442 12.401 77.905 13.2618L80.2229 15.5797L79.5151 16.2875L75.2526 12.0251L75.9604 11.3173L76.6527 12.0095ZM84.7968 11.0058L81.2422 10.7958L83.1245 12.6781L82.4167 13.3859L76.6608 7.63004L77.3686 6.92222L80.7521 10.3057L80.5032 6.77444L81.4911 5.78661L81.6077 9.91682L85.7613 10.0413L84.7968 11.0058Z" fill="white" fill-opacity="0.8"/>
</g>
<defs>
<filter id="filter0_d_208_14" x="-17.2592" y="-13.8442" width="127.034" height="127.083" filterUnits="userSpaceOnUse" color-interpolation-filters="sRGB">
<feFlood flood-opacity="0" result="BackgroundImageFix"/>
<feColorMatrix in="SourceAlpha" type="matrix" values="0 0 0 0 0 0 0 0 0 0 0 0 0 0 0 0 0 0 127 0" result="hardAlpha"/>
<feOffset dy="4"/>
<feGaussianBlur stdDeviation="9"/>
<feComposite in2="hardAlpha" operator="out"/>
<feColorMatrix type="matrix" values="0 0 0 0 0 0 0 0 0 0 0 0 0 0 0 0 0 0 0.3 0"/>
<feBlend mode="normal" in2="BackgroundImageFix" result="effect1_dropShadow_208_14"/>
<feBlend mode="normal" in="SourceGraphic" in2="effect1_dropShadow_208_14" result="shape"/>
</filter>
<clipPath id="clip0_208_14">
<rect width="107" height="107" fill="white"/>
</clipPath>
</defs>
</svg>
