<svg xmlns="http://www.w3.org/2000/svg" viewBox="0 0 308.69 377.65"><defs><style>.cls-1{isolation:isolate;}.cls-11,.cls-2,.cls-23,.cls-4{fill:#f9ceb2;}.cls-2{stroke:#e79967;stroke-width:1.4px;}.cls-2,.cls-24,.cls-29,.cls-30,.cls-31,.cls-32,.cls-34,.cls-35,.cls-36{stroke-miterlimit:10;}.cls-3,.cls-6{fill:#fad6be;}.cls-11,.cls-14,.cls-17,.cls-19,.cls-25,.cls-26,.cls-3,.cls-5,.cls-6{mix-blend-mode:multiply;}.cls-4{stroke:#f1876f;stroke-linecap:round;stroke-linejoin:round;}.cls-15,.cls-5{fill:#cf856c;}.cls-17,.cls-22,.cls-25,.cls-5{opacity:0.5;}.cls-14,.cls-6{opacity:0.6;}.cls-7{fill:#4f2a26;}.cls-8{fill:#340800;}.cls-9{fill:#5c2715;}.cls-10{fill:#330600;}.cls-12,.cls-13,.cls-14{fill:#8c432e;}.cls-13,.cls-21,.cls-22,.cls-23{mix-blend-mode:screen;}.cls-16{fill:#7f4929;}.cls-17{fill:#713421;}.cls-18,.cls-21{fill:#ee7964;}.cls-19{fill:#f6bdab;}.cls-20{fill:#c4464a;}.cls-24,.cls-25,.cls-26,.cls-27{fill:#b7e4f4;}.cls-24{stroke:#78c3de;}.cls-27{mix-blend-mode:color-dodge;opacity:0.4;}.cls-28{fill:#685ba7;}.cls-29,.cls-30,.cls-31,.cls-32,.cls-34,.cls-35,.cls-36{fill:none;stroke:#000;stroke-width:0.28px;}.cls-29{stroke-dasharray:1.42 1.42;}.cls-30{stroke-dasharray:1.43 1.43;}.cls-31{stroke-dasharray:1.42 1.42;}.cls-32{stroke-dasharray:1.44 1.44;}.cls-33{fill:#999;}.cls-34{stroke-dasharray:1.42 1.42;}.cls-35{stroke-dasharray:1.42 1.42;}.cls-36{stroke-dasharray:1.43 1.43;}</style></defs><g class="cls-1"><g id="Layer_1" data-name="Layer 1"><path class="cls-2" d="M307.47,360.82C306.09,341.88,297,326.05,283.29,321s-71.43-18.38-85.5-24.66-6.46-47.16-6.46-47.16H117.7S125,290,110.9,296.3,39.13,315.87,25.4,321,2.59,341.88,1.22,360.82c-.71,9.83-1,14.55-1.22,16.83H308.69C308.52,375.37,308.18,370.65,307.47,360.82Z"/><path class="cls-3" d="M307.47,360.82c-1-14.07-6.3-26.43-14.58-33.94a50.4,50.4,0,0,1,2.35,10c.73,6.5-.37,13.23-4.91,18.21-4.26,4.67-10.3,7.29-16.31,8.92a122.49,122.49,0,0,1-21.13,3.34Q234.61,369,216.26,370c-25.13,1.31-50.3,1.75-75.46,1.56-24.83-.18-49.65-1.6-74.48-1.36-10.61.11-21.59.53-31.91-2.37-7.85-2.2-15.68-6.25-19.8-13.61s-4.28-15.7-2.27-23.71c-6.29,7.56-10.25,18.32-11.12,30.32-.71,9.83-1,14.55-1.22,16.83H308.69C308.52,375.37,308.18,370.65,307.47,360.82Z"/><path class="cls-3" d="M119.57,272.13a76.89,76.89,0,0,0,13.57,11.63c7.88,5.28,16.3,9.33,25.89,7.34,11.23-2.34,21.34-9,30.29-16.69a136.56,136.56,0,0,1,2-25.27H117.7A139.32,139.32,0,0,1,119.57,272.13Z"/><path class="cls-4" d="M77.8,210.42c-8.08-1.52-8.29-15.46-9.37-21.53-1.32-7.4-5-14.12-5.91-21.59-.7-5.46.66-16,6.1-17.6,8.26-2.41,15,12.64,17.75,18.77,3.13,7.06,2.73,13.65,2.39,21.74C88.51,196.43,87.7,212.27,77.8,210.42Z"/><path class="cls-3" d="M86.37,168.47c-2.72-6.13-9.49-21.18-17.75-18.77-1.89.55-3.29,2.19-4.28,4.32,1.6-1.55,3.91-2.41,6-1.1,3.2,2,4.22,6.23,5.16,9.63a.38.38,0,0,1-.7.29c-2-2.79-4.92-1.36-6.81.75-1.9,4.15-1.47,10-.83,13.85.46,2.81,2.8,14.05,7.77,11.29a.4.4,0,0,1,.58.33,30.57,30.57,0,0,1,.25,6.89c-.14,1.51-.26,3.85-1.22,5.09a3.14,3.14,0,0,1-3.94.75c1.21,4.26,3.28,7.89,7.19,8.63,9.9,1.85,10.71-14,11-20.21C89.1,182.12,89.5,175.53,86.37,168.47Z"/><path class="cls-5" d="M78.46,172.53c-.89-3.16-2.29-7.07-5.71-8.51-2.1-.88-4.41.49-5.46,2.23a8.5,8.5,0,0,0-1.11,3.5c-.11,1,.44,2.57.17,3.51.77-2.57,2.5-5.76,5.72-5.21,1.47.25,3.37,2.13,4.06,3.34,2.4,4.18,2.24,11.59-1,15.47a1.71,1.71,0,0,1-2.61,0c-.14-.18-.26-.36-.39-.54,0,.58,0,1.17,0,1.75.74,1.23,1.64,2,2.8,1.5s1.71-2.36,2-3.69a93.15,93.15,0,0,1-.86,12.24.64.64,0,0,0,0,.22,37.55,37.55,0,0,0,2-4.24,50.19,50.19,0,0,0,1.58-6.73c.09-.43.15-.87.22-1.3a30.34,30.34,0,0,0,.13-3.44A40.69,40.69,0,0,0,78.46,172.53Z"/><path class="cls-4" d="M231.27,210.42c8.08-1.52,8.29-15.46,9.37-21.53,1.32-7.4,5-14.12,5.91-21.59.7-5.46-.66-16-6.1-17.6-8.26-2.41-15,12.64-17.75,18.77-3.13,7.06-2.73,13.65-2.4,21.74C220.56,196.43,221.36,212.27,231.27,210.42Z"/><path class="cls-3" d="M222.7,168.47c2.72-6.13,9.49-21.18,17.75-18.77,1.89.55,3.29,2.19,4.28,4.32-1.6-1.55-3.9-2.41-6-1.1-3.2,2-4.21,6.23-5.16,9.63a.38.38,0,0,0,.7.29c2-2.79,4.92-1.36,6.81.75,1.89,4.15,1.47,10,.83,13.85-.46,2.81-2.81,14.05-7.77,11.29a.4.4,0,0,0-.58.33,30.57,30.57,0,0,0-.25,6.89c.14,1.51.26,3.85,1.22,5.09a3.14,3.14,0,0,0,3.94.75c-1.22,4.26-3.28,7.89-7.19,8.63-9.91,1.85-10.71-14-11-20.21C220,182.12,219.57,175.53,222.7,168.47Z"/><path class="cls-5" d="M230.61,172.53c.89-3.16,2.29-7.07,5.71-8.51,2.1-.88,4.41.49,5.46,2.23a8.5,8.5,0,0,1,1.11,3.5c.11,1-.44,2.57-.17,3.51-.77-2.57-2.5-5.76-5.72-5.21-1.47.25-3.37,2.13-4.06,3.34-2.4,4.18-2.24,11.59,1,15.47a1.71,1.71,0,0,0,2.61,0c.14-.18.26-.36.39-.54,0,.58,0,1.17,0,1.75-.74,1.23-1.64,2-2.8,1.5s-1.71-2.36-2-3.69a93.15,93.15,0,0,0,.86,12.24.47.47,0,0,1,0,.22,37.55,37.55,0,0,1-2-4.24,50.19,50.19,0,0,1-1.58-6.73c-.09-.43-.15-.87-.22-1.3a32.86,32.86,0,0,1-.13-3.44A40.69,40.69,0,0,1,230.61,172.53Z"/><path class="cls-2" d="M228.65,96.82c-4.42-12.94-14.13-22.7-25.51-29.27-13.32-7.66-27.59-9.57-42.49-8.93-1.85.08-3.7.2-5.54.33v0l-.29,0v0h-.58v0L154,59v0c-1.84-.13-3.69-.25-5.55-.33-14.89-.64-29.16,1.27-42.48,8.93C94.54,74.12,84.83,83.88,80.41,96.82A118.49,118.49,0,0,0,78.07,121c.14,10.13,1.55,20.12,1.92,30.22.4,11.09.61,22.18,1,33.26.37,9.52.46,14,1.78,23.41,1.49,10.71,11.5,24.22,18.29,32.54,10.32,12.63,36.61,33.44,52.16,33.78h2.6c15.55-.34,41.84-21.15,52.16-33.78,6.79-8.32,16.79-21.83,18.29-32.54,1.31-9.43,1.41-13.89,1.78-23.41.4-11.08.61-22.17,1-33.26.37-10.1,1.78-20.09,1.92-30.22A119.2,119.2,0,0,0,228.65,96.82Z"/><path class="cls-6" d="M205.8,147.81a45.05,45.05,0,0,0-19.62-1.34.55.55,0,0,1-.44-.11,39.38,39.38,0,0,0-16.94,8c-6.34,5.34-8.32,12.54-8.59,20.36,2.08-4.73,4.58-9.15,8.45-12.73.45-.42,1.25.13.88.68a24.44,24.44,0,0,0-3.82,11.64,21,21,0,0,1,5-2.26,13.35,13.35,0,0,1,6.05.41c5,1.28,9.79,3.16,15.07,3.11,8.1-.07,18.1-2.27,24.07-8.09a.56.56,0,0,1,.27-.15c.79-1,1-2.14.48-3.9a25.39,25.39,0,0,0-2.76-6.5.58.58,0,0,1,.34-.83,41.51,41.51,0,0,1,4.39-.75C216.43,151.42,209.66,148.94,205.8,147.81Z"/><path class="cls-6" d="M212.1,167.18a1,1,0,0,0-.79,0c-2,.7-1.28-.19-1.67-1.43-.54-1.72-2.7-3.31-4.11-4.25a14.65,14.65,0,0,0-6.69-2.43,40.55,40.55,0,0,0-4.28-.47,20,20,0,0,0-4.1,0,25.22,25.22,0,0,0-7.62,2.08,17.92,17.92,0,0,0-5.69,4.55c-1.19,1.29-2,2.81-3.52,3.8a5.74,5.74,0,0,0-1.81,1.89s0,.1,0,.11a1.36,1.36,0,0,0,.91,0,6.17,6.17,0,0,1,3.94.6c2,.85,4.05,1.68,6.16,2.35a31.06,31.06,0,0,0,12.5,1.1A31.5,31.5,0,0,0,206.43,172a19.33,19.33,0,0,0,4.42-3c.41-.37,1.23-1.07,1.28-1.7C212.13,167.22,212.13,167.19,212.1,167.18Zm-14.52-5.52c-6.57-.47-12.52,1.83-18,5.31-.38.23-.76-.3-.47-.61A22.34,22.34,0,0,1,191,160a.39.39,0,0,1,.44.24,12.47,12.47,0,0,1,6.21.66C198.06,161.05,198,161.69,197.58,161.66Z"/><path class="cls-3" d="M207.08,164.12c-4.19-3.45-8.52-5.45-14-5.48a24.26,24.26,0,0,0-13.49,4.56c-.08.05-.11.18,0,.11,8.64-5.32,19.1-5.22,27.12,1.11C206.84,164.52,207.18,164.21,207.08,164.12Z"/><path class="cls-7" d="M178,170.13a16.61,16.61,0,0,1-1.89,2c-.06,0,0,.08,0,0a9,9,0,0,0,1.2-1.19,11.5,11.5,0,0,1-1.75,1.94c-.13.12-.05.23.09.11a12,12,0,0,0,2.16-2.29c.14-.21-.08-.16-.22-.07.15-.18.3-.37.46-.55S178,170.07,178,170.13Z"/><path class="cls-8" d="M176.57,169.79a22.92,22.92,0,0,1-3.15,1.81c-.08,0-.19.22,0,.15A19.71,19.71,0,0,0,176.6,170C176.74,169.89,176.79,169.66,176.57,169.79Z"/><path class="cls-8" d="M211.39,169.45a6.71,6.71,0,0,1-3.27.1c-.06,0-.23.13-.16.16a.33.33,0,0,0,.13,0c-.07.06-.11.13-.05.15a6,6,0,0,0,1.18.39,2.26,2.26,0,0,0,1.06.11s.15-.14.08-.13a3.42,3.42,0,0,1-1.07-.26l-.44-.14.6,0a6.7,6.7,0,0,0,1.88-.29S211.47,169.43,211.39,169.45Z"/><path class="cls-8" d="M210.78,170.88a6.59,6.59,0,0,1-3-1s-.12.07-.09.09a5,5,0,0,0,3,1S210.82,170.88,210.78,170.88Z"/><path class="cls-8" d="M209.63,171.5a3.7,3.7,0,0,1-1.64-.66l.09,0a1.65,1.65,0,0,0,1.12.21s.12-.11.06-.1c-.36,0-.78-.27-1.08-.42a10.84,10.84,0,0,0-1.09-.62c-.07,0-.27.12-.21.19a2.29,2.29,0,0,0,.23.21s-.08.07-.05.09a4.32,4.32,0,0,0,2.52,1.13S209.67,171.5,209.63,171.5Z"/><path class="cls-8" d="M207.71,171.3l.2,0s.14-.1.09-.11a2.17,2.17,0,0,1-.75-.49c-.23-.17-.46-.34-.71-.49-.06,0-.2.09-.2.16l-.17-.11s-.16.07-.12.11a4.79,4.79,0,0,0,1.47,1,3.44,3.44,0,0,0,1.58.52s.1-.08.06-.08A4.3,4.3,0,0,1,207.71,171.3Z"/><path class="cls-8" d="M207.29,171.83a1.61,1.61,0,0,0,.72,0s.16-.14.08-.13a2.29,2.29,0,0,1-1.12-.35,7.66,7.66,0,0,0-1-.89c-.07-.05-.23.07-.23.15a2.71,2.71,0,0,1-.25-.19c-.07-.07-.28.11-.23.2a1.34,1.34,0,0,0,.11.14s0,0,0,.06a5.75,5.75,0,0,0,3.13,1.48s.1-.07.07-.08A7.11,7.11,0,0,1,207.29,171.83Z"/><path class="cls-8" d="M207.59,172.26a13.34,13.34,0,0,1-2.8-1.58s-.17.07-.15.13a1.27,1.27,0,0,0,.42.5l-.57-.37s-.16.09-.12.12a10.35,10.35,0,0,0,3,1.61s.1-.06.07-.07a13.15,13.15,0,0,1-1.83-.94l.26.13a4,4,0,0,0,1.62.58S207.64,172.27,207.59,172.26Z"/><path class="cls-8" d="M205.37,172.09a8,8,0,0,1-1.07-.85s-.14.07-.11.1a5.62,5.62,0,0,0,1,.78,3.62,3.62,0,0,0,1.07.55s.08-.06.06-.07A3.78,3.78,0,0,1,205.37,172.09Z"/><path class="cls-8" d="M205.66,172.76c.05,0,.17-.1.11-.12a7.18,7.18,0,0,1-2-1.43c-.06-.07-.24.09-.2.17a1.19,1.19,0,0,0,.09.15s-.1.08-.07.1a9.48,9.48,0,0,0,2.08,1.71s.11-.06.09-.07c-.5-.37-1-.77-1.43-1.18l0,0A7.71,7.71,0,0,0,205.66,172.76Z"/><path class="cls-8" d="M204.89,173c-.25,0-.62-.38-.81-.53s-.55-.46-.85-.67a.06.06,0,0,0-.07,0h0s-.16.07-.13.11h0s0,.06,0,.08a3,3,0,0,0,.68.59c.33.33.68.64,1,.93,0,0,.1,0,.08-.06l-.47-.46a.71.71,0,0,0,.49.11S205,173,204.89,173Z"/><path class="cls-8" d="M204,173.83c-.71-.42-1.08-1.26-1.62-1.86,0,0-.13.05-.1.09a5.32,5.32,0,0,0,1.63,1.86S204.05,173.85,204,173.83Z"/><path class="cls-8" d="M201.83,172.33c0-.05-.18.06-.14.13a5.92,5.92,0,0,0,.83,1.17s.13,0,.1-.08A9.1,9.1,0,0,1,201.83,172.33Z"/><path class="cls-8" d="M177.39,169.78c0-.08-.08,0-.14,0s-.1,0-.15,0a9.53,9.53,0,0,1-1.32,1,5.65,5.65,0,0,1-1.52,1s-.08.08,0,.07a3.87,3.87,0,0,0,1.28-.72,13.43,13.43,0,0,0,1.6-1.21,5.41,5.41,0,0,1-1.19,1.15,6.93,6.93,0,0,1-1.3,1s-.08.09,0,.06a6.19,6.19,0,0,0,1.52-1.08,7.5,7.5,0,0,0,.87-.69,10.77,10.77,0,0,1-.75.92,4.38,4.38,0,0,1-.87.85c-.09,0-.17.24,0,.16a4,4,0,0,0,1-.86,6.85,6.85,0,0,0,1-1.18c.08-.14-.12-.06-.21,0A1.28,1.28,0,0,0,177.39,169.78Z"/><path class="cls-8" d="M176,169.7c-.56.28-1.09.59-1.64.87a4.27,4.27,0,0,1-1.8.69s-.08.06-.05.06a2.86,2.86,0,0,0,1.36-.4c.71-.36,1.43-.71,2.12-1.11C176.08,169.78,176.14,169.64,176,169.7Z"/><path class="cls-8" d="M178.75,170.36a9.46,9.46,0,0,1-2.32,2.68c-.05.05,0,.08,0,0a8.59,8.59,0,0,0,2.46-2.77C179,170.2,178.78,170.31,178.75,170.36Z"/><path class="cls-8" d="M179.48,170.64a4.73,4.73,0,0,1-.61,1,6.45,6.45,0,0,1-1,1.13s0,.07,0,0a4.75,4.75,0,0,0,1-1.07,3.76,3.76,0,0,0,.71-1.18C179.65,170.51,179.5,170.6,179.48,170.64Z"/><path class="cls-8" d="M180.62,170.74a9.83,9.83,0,0,1-2,2.49c-.07.05,0,.1,0,.05a6.84,6.84,0,0,0,1.05-1.1,8.2,8.2,0,0,0,1.07-1.48C180.84,170.59,180.65,170.69,180.62,170.74Z"/><path class="cls-8" d="M193.83,172.73a18.76,18.76,0,0,1-.3,2.89s.08,0,.09,0a12,12,0,0,0,.36-2.94C194,172.56,193.84,172.67,193.83,172.73Z"/><path class="cls-8" d="M193.26,172.86a17.53,17.53,0,0,1-.4,2.71c0,.05.09,0,.09,0a12.09,12.09,0,0,0,.47-2.74C193.42,172.7,193.26,172.8,193.26,172.86Z"/><path class="cls-8" d="M187.77,172.42a6.91,6.91,0,0,1-.58,1.23,3.74,3.74,0,0,1-.71,1.12c-.06,0,0,.08,0,0a2.72,2.72,0,0,0,.64-.86,5.3,5.3,0,0,0,.74-1.58C187.91,172.3,187.78,172.39,187.77,172.42Z"/><path class="cls-8" d="M187.28,172.27a8.56,8.56,0,0,1-.84,1.39,4.27,4.27,0,0,1-1.33,1.28s-.09.11,0,.07a3.82,3.82,0,0,0,1.21-1.06,6.53,6.53,0,0,0,1.12-1.72C187.47,172.13,187.3,172.22,187.28,172.27Z"/><path class="cls-8" d="M185.65,171.84a7.33,7.33,0,0,1-1.53,1.71,8.3,8.3,0,0,1-1.4,1.25s-.08.1,0,.07a9.57,9.57,0,0,0,1.61-1.37,5.28,5.28,0,0,0,1.49-1.7C185.86,171.69,185.68,171.79,185.65,171.84Z"/><path class="cls-8" d="M184.13,171.82a9.27,9.27,0,0,1-1.06,1.27,6.32,6.32,0,0,1-1.64,1.28s-.08.09,0,.07a6,6,0,0,0,1.61-1.17,6.06,6.06,0,0,0,1.25-1.47C184.32,171.7,184.16,171.78,184.13,171.82Z"/><path class="cls-8" d="M183.24,171.72c-.35.44-.7.88-1.08,1.29-.18.2-.7.92-1,.88,0,0-.11.06-.07.07.29.08.63-.37.8-.54a13.77,13.77,0,0,0,1.44-1.7C183.39,171.63,183.27,171.69,183.24,171.72Z"/><path class="cls-8" d="M182.42,171.16a7.53,7.53,0,0,1-.95,1.22,4.93,4.93,0,0,1-1.14,1.14s-.06.07,0,0a3.17,3.17,0,0,0,1.08-1c.37-.46,1-.87,1.13-1.47C182.54,171.07,182.43,171.15,182.42,171.16Z"/><path class="cls-8" d="M181.92,170.72c-.42.55-.86,1.1-1.32,1.63s-.78,1.05-1.33,1.26c0,0-.06.07,0,.06a2.5,2.5,0,0,0,1.08-.88,19,19,0,0,0,1.73-2.07C182.15,170.6,182,170.66,181.92,170.72Z"/><path class="cls-8" d="M186.73,172a8.7,8.7,0,0,1-.5.83,3.94,3.94,0,0,1-.66.95s0,.08,0,0a3.92,3.92,0,0,0,.67-.89,5.87,5.87,0,0,0,.57-1C186.85,171.93,186.74,172,186.73,172Z"/><path class="cls-8" d="M184.62,172.31a5.38,5.38,0,0,1-.74,1s0,0,.05,0a5.59,5.59,0,0,0,.8-1.08C184.77,172.21,184.64,172.28,184.62,172.31Z"/><path class="cls-8" d="M188.62,172.28c-.33,1.05-.89,2-1.3,3,0,0,.05,0,.06,0a16.62,16.62,0,0,0,1.39-3C188.79,172.16,188.64,172.24,188.62,172.28Z"/><path class="cls-8" d="M189.15,172.67a9.48,9.48,0,0,1-.93,2.56s.06,0,.07,0a6.76,6.76,0,0,0,1-2.62C189.3,172.53,189.16,172.62,189.15,172.67Z"/><path class="cls-8" d="M188.93,172.32c-.19.61-.42,1.2-.61,1.81,0,0,.07,0,.08,0,.2-.61.44-1.22.63-1.82C189.05,172.23,188.94,172.29,188.93,172.32Z"/><path class="cls-8" d="M190.15,172.67c-.07.5-.17,1-.28,1.5a3.68,3.68,0,0,1-.4,1.43c-.05.06.05,0,.07,0a2.06,2.06,0,0,0,.37-1.08c.1-.65.29-1.28.39-1.92C190.31,172.52,190.16,172.61,190.15,172.67Z"/><path class="cls-8" d="M191,172.47c-.13,1-.37,1.94-.41,2.92,0,0,.09,0,.1,0,.08-1,.44-2,.44-2.94C191.15,172.35,191,172.43,191,172.47Z"/><path class="cls-8" d="M189.63,173.09a8.22,8.22,0,0,1-.37,1.09c0,.07.09,0,.11,0a7.09,7.09,0,0,0,.4-1.12C189.78,173,189.65,173.05,189.63,173.09Z"/><path class="cls-8" d="M191.63,173a21.14,21.14,0,0,0-.3,2.49s.09,0,.09-.06c.06-.83.3-1.65.36-2.5C191.79,172.81,191.64,172.9,191.63,173Z"/><path class="cls-8" d="M191.27,173.15a3.75,3.75,0,0,1-.14.94s.09,0,.1-.05a3.17,3.17,0,0,0,.15-1S191.27,173.1,191.27,173.15Z"/><path class="cls-8" d="M192.65,173a9.16,9.16,0,0,1-.14,1.48c-.08.43-.18,1.24-.57,1.51,0,0-.06.11,0,.06a1.38,1.38,0,0,0,.51-.9,9.38,9.38,0,0,0,.32-2.23C192.78,172.88,192.65,173,192.65,173Z"/><path class="cls-8" d="M194.56,172.49c0-.06-.16,0-.15.09.16.94.12,1.88.25,2.82,0,0,.13,0,.13-.08C194.66,174.38,194.75,173.42,194.56,172.49Z"/><path class="cls-8" d="M195.56,174c-.12-.59-.29-1.16-.39-1.76,0,0-.13,0-.13.08s0,.29.05.43c0-.06,0-.13-.05-.19s-.15,0-.15.1a8.24,8.24,0,0,0,.29,2c0,.06.15,0,.14-.09-.08-.45-.07-.92-.13-1.39.08.35.19.68.26,1a3,3,0,0,0,.57,1.31s.11-.05.09-.07A3.68,3.68,0,0,1,195.56,174Z"/><path class="cls-8" d="M197.59,175.65a3.06,3.06,0,0,1-.88-1.19,6.38,6.38,0,0,1-.71-1.83c0-.07-.17,0-.17.1a4.62,4.62,0,0,0,.72,1.85,3.19,3.19,0,0,0,.95,1.17S197.63,175.67,197.59,175.65Z"/><path class="cls-8" d="M196.85,172.59c0-.06-.15,0-.14.09a7.51,7.51,0,0,0,1.41,2.53s.12-.05.1-.08A12.21,12.21,0,0,1,196.85,172.59Z"/><path class="cls-8" d="M198.88,174.2a4.31,4.31,0,0,1-1-1.61c0-.05-.14,0-.13.08a3,3,0,0,0,1,1.65c.36.39.82.94,1.37,1,0,0,.09-.07.06-.07C199.66,175.13,199.21,174.56,198.88,174.2Z"/><path class="cls-8" d="M200.5,174.84a5.68,5.68,0,0,1-2.15-2.55c0-.06-.18.05-.17.1a2.81,2.81,0,0,0,.84,1.33,6.23,6.23,0,0,0,1.41,1.2S200.54,174.86,200.5,174.84Z"/><path class="cls-8" d="M201.42,174.65a3.41,3.41,0,0,1-1.22-1,7.69,7.69,0,0,1-1.06-1.48s-.14,0-.13.08a4.28,4.28,0,0,0,1.05,1.52,3.3,3.3,0,0,0,1.27,1S201.46,174.66,201.42,174.65Z"/><path class="cls-8" d="M203,174.73a6.15,6.15,0,0,1-2.4-2.45c0-.06-.2.07-.17.14a5.46,5.46,0,0,0,2.47,2.42S203.05,174.76,203,174.73Z"/><path class="cls-8" d="M202.58,174.07a6.86,6.86,0,0,1-.94-1.07,6.3,6.3,0,0,1-.72-1.05s-.16.06-.15.11a3.3,3.3,0,0,0,.65,1,9.37,9.37,0,0,0,1.05,1.13S202.61,174.1,202.58,174.07Z"/><path class="cls-8" d="M175.55,169.63a11.75,11.75,0,0,1-2.65,1.09s-.07.06,0,.06a7.19,7.19,0,0,0,2.67-1C175.61,169.72,175.67,169.57,175.55,169.63Z"/><path class="cls-8" d="M178.2,170.45a5.62,5.62,0,0,1-.81,1.18,8.35,8.35,0,0,1-.79,1c-.06.06,0,.1,0,.05a8.57,8.57,0,0,0,1-1.13,2.89,2.89,0,0,0,.76-1.17C178.39,170.3,178.22,170.42,178.2,170.45Z"/><path class="cls-8" d="M177.9,170.08c-.66.57-1.16,1.28-1.79,1.87-.05.05,0,.07,0,0,.64-.57,1.19-1.25,1.82-1.85C178.06,170.05,178,170,177.9,170.08Z"/><path class="cls-8" d="M179.17,170.66q-.31.47-.66.9c-.2.26-.42.69-.74.81,0,0-.08.1,0,.08a1.45,1.45,0,0,0,.61-.54,14.72,14.72,0,0,0,1-1.28C179.37,170.54,179.2,170.61,179.17,170.66Z"/><path class="cls-8" d="M180,170.77c-.23.4-.49.77-.71,1.17,0,.06.07,0,.09,0,.23-.41.53-.77.75-1.19C180.21,170.65,180.05,170.72,180,170.77Z"/><path class="cls-8" d="M181.29,170.94a12.35,12.35,0,0,1-.76,1,4,4,0,0,1-.82.83c-.05,0-.07.11,0,.06a3.6,3.6,0,0,0,.8-.76,6.86,6.86,0,0,0,.88-1.13C181.44,170.85,181.31,170.91,181.29,170.94Z"/><path class="cls-8" d="M182.71,171.55a7.79,7.79,0,0,1-1,1.49s0,.06,0,0a3.85,3.85,0,0,0,.59-.69,6.56,6.56,0,0,0,.56-.85C182.9,171.42,182.74,171.5,182.71,171.55Z"/><path class="cls-8" d="M181.81,171.44c-.29.32-.61.62-.89,1-.06.07,0,.07.07,0,.29-.33.6-.63.9-.95C182,171.39,181.86,171.39,181.81,171.44Z"/><path class="cls-8" d="M186.23,172.25c-.25.38-.51.75-.76,1.12a4.71,4.71,0,0,1-1,1.22s0,.08,0,0a3.89,3.89,0,0,0,.92-1,14.23,14.23,0,0,0,.95-1.39C186.49,172.09,186.27,172.2,186.23,172.25Z"/><path class="cls-8" d="M186.06,172.34a8.62,8.62,0,0,0-.83,1.06c0,.06,0,0,.06,0,.29-.35.58-.7.84-1.07C186.18,172.28,186.09,172.31,186.06,172.34Z"/><path class="cls-8" d="M196.55,172.62c0-.07-.19.08-.19.14a3.43,3.43,0,0,0,.42,1.1,4.48,4.48,0,0,0,.68,1.08s.14-.05.11-.09A11,11,0,0,1,196.55,172.62Z"/><path class="cls-8" d="M197.5,172.67c0-.06-.17.06-.16.11a3.69,3.69,0,0,0,.77,1.29c0,.05.19-.08.15-.13A8.2,8.2,0,0,1,197.5,172.67Z"/><path class="cls-8" d="M194.32,172.29c0-.08-.18.05-.18.11a9.18,9.18,0,0,0,.17,2.16c0,.07.16,0,.15-.1A17.57,17.57,0,0,0,194.32,172.29Z"/><path class="cls-8" d="M192.24,172.84l-.18,1.27a5.41,5.41,0,0,1-.15,1.07s.09,0,.1,0a5.23,5.23,0,0,0,.24-1.11c.07-.44.18-.87.21-1.3C192.46,172.65,192.25,172.77,192.24,172.84Z"/><path class="cls-8" d="M202.56,172.76a4.82,4.82,0,0,0-.64-1.07c0-.06-.23.08-.2.15a3.89,3.89,0,0,0,1.46,1.86s.12-.06.09-.08A2.94,2.94,0,0,1,202.56,172.76Z"/><path class="cls-8" d="M204.17,173.37c-.6-.49-1-1.14-1.57-1.66-.06-.06-.27.11-.22.18A5.33,5.33,0,0,0,204,173.5C204.06,173.53,204.21,173.4,204.17,173.37Z"/><path class="cls-8" d="M209.69,169.51l-.53-.2-.51-.19c-.08,0-.28.14-.19.2s1.13.56,1.33.17C209.83,169.41,209.7,169.48,209.69,169.51Z"/><path class="cls-7" d="M174.85,169.81a9.89,9.89,0,0,1-2.9.91s-.07.06,0,.06a6.44,6.44,0,0,0,2.91-.87C174.87,169.89,174.94,169.76,174.85,169.81Z"/><path class="cls-7" d="M175.58,169.74a8.17,8.17,0,0,1-3.86,1.53s-.05,0,0,0a7.77,7.77,0,0,0,3.91-1.52C175.67,169.75,175.67,169.67,175.58,169.74Z"/><path class="cls-7" d="M176.47,169.64a10.66,10.66,0,0,1-1.59,1,11.52,11.52,0,0,1-1.92.89s-.06.06,0,0a7.78,7.78,0,0,0,1.73-.74,8.9,8.9,0,0,0,1.85-1.11C176.59,169.63,176.55,169.57,176.47,169.64Z"/><path class="cls-7" d="M177,169.8c-.47.36-1,.69-1.45,1a6.9,6.9,0,0,1-1.39.87s-.07.07,0,.06a5.38,5.38,0,0,0,1.26-.75c.55-.38,1.11-.76,1.65-1.16C177.11,169.79,177.06,169.74,177,169.8Z"/><path class="cls-7" d="M177,170.35a17.94,17.94,0,0,1-1.61,1.4c-.06.05,0,.1,0,.05a14.88,14.88,0,0,0,1.65-1.42C177.12,170.3,177,170.3,177,170.35Z"/><path class="cls-7" d="M179.11,170.43l-.1.15h0a11.54,11.54,0,0,1-1.65,1.7c-.06.05,0,.09,0,.05a12.39,12.39,0,0,0,1.27-1.24c-.33.46-.67.9-1,1.33-.07.07,0,.07.07,0a12.25,12.25,0,0,0,1.56-2C179.29,170.33,179.14,170.4,179.11,170.43Z"/><path class="cls-7" d="M179.79,170.72a14.44,14.44,0,0,1-1.63,1.94c0,.05,0,.05.05,0a10.66,10.66,0,0,0,1.7-2C180,170.62,179.81,170.69,179.79,170.72Z"/><path class="cls-7" d="M180.12,170.87a7.28,7.28,0,0,1-1.73,2.06s0,.08,0,0a7.28,7.28,0,0,0,1.85-2.14C180.32,170.73,180.14,170.82,180.12,170.87Z"/><path class="cls-7" d="M180.7,171.07a10.1,10.1,0,0,1-.84,1,4.91,4.91,0,0,1-1.13,1.1s-.09.12,0,.08a4.12,4.12,0,0,0,1.14-1,6.89,6.89,0,0,0,1-1.18C180.89,171,180.73,171,180.7,171.07Z"/><path class="cls-7" d="M184.54,171.87a13.84,13.84,0,0,1-.92,1.25,7.11,7.11,0,0,1-1.23,1.28s0,.08,0,0a6.47,6.47,0,0,0,1.18-1.16,7.56,7.56,0,0,0,1.08-1.43C184.7,171.78,184.57,171.84,184.54,171.87Z"/><path class="cls-7" d="M183.68,171.68a14.93,14.93,0,0,1-1.06,1.32c-.07.07,0,.07.06,0a7.32,7.32,0,0,0,1.11-1.37C183.83,171.59,183.7,171.65,183.68,171.68Z"/><path class="cls-7" d="M185.48,172.36a10.1,10.1,0,0,1-.78,1.15,5.63,5.63,0,0,1-.89,1.11s0,.08,0,0a5.34,5.34,0,0,0,.87-1,6.82,6.82,0,0,0,.92-1.3C185.67,172.22,185.5,172.32,185.48,172.36Z"/><path class="cls-7" d="M184.8,172.38a10.25,10.25,0,0,1-.94,1.23c-.07.07,0,.07.07,0a8.1,8.1,0,0,0,1-1.27C185,172.3,184.82,172.35,184.8,172.38Z"/><path class="cls-7" d="M187.91,172.49a12.07,12.07,0,0,1-1,2.65c0,.07.09,0,.11,0a8.63,8.63,0,0,0,1.07-2.72C188.13,172.29,187.92,172.42,187.91,172.49Z"/><path class="cls-7" d="M187.43,172.39c-.27.57-.58,1.11-.9,1.65-.05.07.06,0,.08,0a11.14,11.14,0,0,0,.95-1.68C187.6,172.27,187.46,172.35,187.43,172.39Z"/><path class="cls-7" d="M190.6,172.58a15.92,15.92,0,0,0-.3,2.84c0,.05.14,0,.14-.09a21.3,21.3,0,0,0,.34-2.85C190.77,172.4,190.61,172.53,190.6,172.58Z"/><path class="cls-7" d="M189.94,172.89c-.14.51-.28,1-.41,1.53,0,.07.13,0,.14-.06.14-.52.31-1,.43-1.54C190.11,172.74,190,172.84,189.94,172.89Z"/><path class="cls-7" d="M193.71,172.63s-.11,0-.11.07a26.56,26.56,0,0,1-.16,2.67c0,.06.11,0,.11-.05A16.19,16.19,0,0,0,193.71,172.63Z"/><path class="cls-7" d="M193,172.73c0-.07-.18.06-.18.12a12.21,12.21,0,0,1-.07,2c0,.08.12,0,.13-.06A6.53,6.53,0,0,0,193,172.73Z"/><path class="cls-7" d="M195.62,172.71c0-.07-.18,0-.17.11.23.76.5,1.51.79,2.25,0,.05.14,0,.13-.08Q196,173.87,195.62,172.71Z"/><path class="cls-7" d="M196.33,172.83c0-.07-.19,0-.18.11a5.12,5.12,0,0,0,1.21,2.33s.15-.06.12-.1A6.18,6.18,0,0,1,196.33,172.83Z"/><path class="cls-7" d="M199,175.07a4.31,4.31,0,0,1-.85-1c-.3-.42-.58-.86-.84-1.31,0-.06-.22.08-.2.15a4.31,4.31,0,0,0,.83,1.33,3.15,3.15,0,0,0,.94,1S199,175.1,199,175.07Z"/><path class="cls-7" d="M200.66,174.34a5.24,5.24,0,0,1-1.8-2c0-.06-.24.09-.21.16a3.53,3.53,0,0,0,1.91,2S200.71,174.36,200.66,174.34Z"/><path class="cls-7" d="M202.25,174.18a8.72,8.72,0,0,1-1.48-1.07,6.91,6.91,0,0,1-1-1.33c0-.05-.15.06-.14.1a2.34,2.34,0,0,0,.31.61s-.13.06-.1.09a8.91,8.91,0,0,0,1.7,1.66s.12-.06.1-.08a11.4,11.4,0,0,1-1.08-1,8.68,8.68,0,0,0,1.62,1.09S202.29,174.21,202.25,174.18Z"/><path class="cls-7" d="M201.27,174.22a7.45,7.45,0,0,1-2.07-2.33c0-.06-.21.08-.19.14a5.28,5.28,0,0,0,2.16,2.28S201.29,174.24,201.27,174.22Z"/><path class="cls-7" d="M203.76,174.14a6.11,6.11,0,0,1-2.54-2.32c-.05-.07-.24.09-.2.16a5.44,5.44,0,0,0,2.63,2.27S203.8,174.17,203.76,174.14Z"/><path class="cls-7" d="M203.06,174.19a7.5,7.5,0,0,1-2.56-2.45c0-.05-.19.07-.16.12a5.32,5.32,0,0,0,2.6,2.46C203,174.35,203.12,174.23,203.06,174.19Z"/><path class="cls-7" d="M203.18,172.69a3.42,3.42,0,0,1-1.15-1.21s-.18.07-.16.12a2.56,2.56,0,0,0,1.14,1.23,6.46,6.46,0,0,0,1.9.93s.11-.07.08-.08A5.71,5.71,0,0,1,203.18,172.69Z"/><path class="cls-7" d="M205.37,173.24a3.08,3.08,0,0,1-1.61-.6,3.18,3.18,0,0,1-1.12-1s-.19.08-.17.14a2.48,2.48,0,0,0,1.12,1,3.16,3.16,0,0,0,1.7.56C205.34,173.36,205.45,173.24,205.37,173.24Z"/><path class="cls-7" d="M206.58,173a4,4,0,0,1-3.29-1.31c0-.05-.17.06-.13.1a3.6,3.6,0,0,0,3.35,1.3S206.63,173,206.58,173Z"/><path class="cls-7" d="M207,172.8a5.44,5.44,0,0,1-3.13-1.32s-.2.08-.16.13c.63.92,2.17,1.21,3.2,1.31C206.93,172.92,207,172.81,207,172.8Z"/><path class="cls-7" d="M207.59,172.49a5.66,5.66,0,0,1-3.21-1.41c0-.05-.18.07-.14.11.66.95,2.19,1.28,3.25,1.4C207.53,172.6,207.63,172.49,207.59,172.49Z"/><path class="cls-7" d="M209,172a5.44,5.44,0,0,1-3.7-1c-.05,0-.19.08-.15.13a4.51,4.51,0,0,0,3.79.94S209.09,172,209,172Z"/><path class="cls-7" d="M209,171.5c-.93.06-2.61-.26-3.07-1.22,0,0-.14.06-.13.1.09.5.65.73,1.08.92a4.07,4.07,0,0,0,2,.3S209.09,171.49,209,171.5Z"/><path class="cls-7" d="M209.67,171.05a4.34,4.34,0,0,1-2.74-.63c-.05,0-.19.11-.15.14a3.73,3.73,0,0,0,2.83.59S209.74,171,209.67,171.05Z"/><path class="cls-7" d="M209.74,170.63a5.11,5.11,0,0,1-2.22-.51c-.06,0-.24.12-.18.17a1.94,1.94,0,0,0,1,.33,3.91,3.91,0,0,0,1.36.13S209.81,170.63,209.74,170.63Z"/><path class="cls-3" d="M205,168.43c-8.35,3.61-17,2.37-25.44-.12,0,0-.14.08-.1.1,8.26,2.78,17.29,3.91,25.48.26C205.07,168.62,205.25,168.32,205,168.43Z"/><path class="cls-9" d="M211,167.9c-5.5,3.56-14.06,3.69-20.39,3.6-6-.08-12.31-4.17-17.85-1.34-.07,0-.29.27-.09.24,3.92-.64,8.56,1.69,12.47,2.32a50.72,50.72,0,0,0,10,.62A29.17,29.17,0,0,0,211,168.17C211.19,168,211.27,167.7,211,167.9Z"/><path class="cls-10" d="M193,172.72a38.34,38.34,0,0,1-9.75-1.57c-2.07-.57-4.41-1.3-6.58-1.07a10.31,10.31,0,0,0-1.45.28c3.26.33,6.78,1.86,9.84,2.36a50.72,50.72,0,0,0,10,.62,29.63,29.63,0,0,0,15.12-4.64A36.66,36.66,0,0,1,193,172.72Z"/><path class="cls-6" d="M172.4,157.41a55.65,55.65,0,0,0,7.5-3.11,38.67,38.67,0,0,1,12.46-3.19c5.21-.36,9.7.95,14.61,2.61,2.29.77,4.56,1.88,6.89,2.7a.48.48,0,0,1,.35-.31,41.51,41.51,0,0,1,4.39-.75c-2.17-3.94-8.94-6.42-12.8-7.55a45.05,45.05,0,0,0-19.62-1.34.55.55,0,0,1-.44-.11,39.38,39.38,0,0,0-16.94,8,22.12,22.12,0,0,0-1.85,1.75C168.58,157.18,169.92,158.08,172.4,157.41Z"/><path class="cls-3" d="M167.21,208.75a44.68,44.68,0,0,1-8.78,4.58,10.48,10.48,0,0,1-6.46,1,64,64,0,0,1-8-2.84,14.62,14.62,0,0,1-5.08-3c-1.36-1.35-1.56-3.33-1.36-5.38-2,3.78-3.66,7.77,1.74,9.59A44.49,44.49,0,0,0,146.1,214c2.75.48,5.35,1.9,8.18,1.84,2.56-.05,4.84-.91,7.27-1.53a44.2,44.2,0,0,0,5.66-1.65c1.91-.77,4.85-2.16,4.54-4.69-.27-2.25-1.57-4.23-2.86-6.16C169.59,204.35,169.49,207,167.21,208.75Z"/><path class="cls-6" d="M133.22,151.78a57.72,57.72,0,0,0-17.29-5.93c-11.65-1.79-24.2,1.06-28.69,12.84,1.51-.87,2.91-1.94,4.46-2.77a.56.56,0,0,1,.84.48c.09,3.66,0,7.77,1.38,11.21a.52.52,0,0,1,.59.25c1.85,3.06,5.55,4.17,8.72,5.35a36.63,36.63,0,0,0,12.52,2.27,41,41,0,0,0,13.11-2.33c2.77-.89,5.38-2.16,8.29-1.93a16.09,16.09,0,0,0-2.39-9.18.48.48,0,0,1-.06-.44.45.45,0,0,1,.39-.51c2.08-.38,4.35,1.08,5.93,2.27,1.78,1.34,2.76,3.51,3.81,5.5.29-3.14-1.6-6.87-3.07-9.37A20.15,20.15,0,0,0,133.22,151.78Z"/><path class="cls-6" d="M99.58,152.23A47.72,47.72,0,0,1,115,152a60.26,60.26,0,0,1,14.09,3.84c3.73,1.47,6.92,2.19,9.74-.12a22.66,22.66,0,0,0-5.6-4,57.72,57.72,0,0,0-17.29-5.93c-11.13-1.71-23.08.82-28,11.33C91.68,155.25,95.34,153.05,99.58,152.23Z"/><path class="cls-3" d="M228.94,96.92c-4.42-13-14.13-22.71-25.51-29.28-13.32-7.66-27.59-9.56-42.49-8.93-1.86.08-3.7.2-5.54.33v.05h-.3v0l-.28,0-.29,0v0h-.3V59c-1.84-.13-3.68-.25-5.54-.33-14.9-.63-29.16,1.27-42.48,8.93C94.83,74.21,85.12,84,80.7,96.92a118.42,118.42,0,0,0-2.34,24.21c.14,10.12,1.55,20.12,1.92,30.22.4,11.08.6,22.17,1,33.25.37,9.53.46,14,1.77,23.41,1.5,10.72,11.51,24.23,18.3,32.55,10.32,12.63,36.6,33.43,52.16,33.77.87,0,1.73,0,2.6,0,15.55-.34,41.84-21.14,52.15-33.77,6.79-8.32,16.8-21.83,18.3-32.55,1.31-9.42,1.41-13.88,1.77-23.41.41-11.08.62-22.17,1-33.25.38-10.1,1.79-20.1,1.93-30.22A119.85,119.85,0,0,0,228.94,96.92Zm-6.72,63.38c-.22,3.44-.48,6.87-.69,10.31-.51,8.58-.16,17.17-.37,25.76a66.61,66.61,0,0,1-2.87,18.92.47.47,0,0,1-.07.24.41.41,0,0,1-.05.09c-.41,1.25-.86,2.5-1.38,3.73a74.7,74.7,0,0,1-5.35,10.7,41.6,41.6,0,0,1-4.51,7.08c-4.91,6-10.88,11.13-16.87,16.21s-11.55,10.43-18.67,13.8c-5.45,2.58-12.24,5.92-18.5,4.79a.54.54,0,0,1-.23-.1c-6.48-.39-13.13-3.11-18.27-6.07-9.13-5.25-16.88-12.4-23.89-19.95-6.85-7.39-14.17-15.26-18.55-24.25A36.71,36.71,0,0,1,88,206.78c0-.11,0-.21,0-.32-.82-7.8-.31-15.69-.28-23.56,0-11-1.68-22-1.76-33a73.37,73.37,0,0,1,4.58-27.56c.84-2.1,1.78-4.16,2.81-6.16.37-.88.76-1.76,1.16-2.64,2.51-5.45,5.38-11.08,10.38-14.9S116,95.35,122,95.17c3.5-.51,6.93-1.41,10.41-2.23A68.44,68.44,0,0,1,146.56,91a109.55,109.55,0,0,1,16.5.79c4.26.52,8.42,1.63,12.69,2.09,9.24,1,22.25.11,29.42,6.56l.54.43c5.93,5.43,8.47,13.89,10.66,21.16,3,10,5.44,20.4,5.46,30.87,0,.11,0,.22,0,.32A22.57,22.57,0,0,1,222.22,160.3Z"/><path class="cls-11" d="M174.92,155.21c2.67-1,5.24-2.31,8-3.17a57,57,0,0,1,12.26-2.56c7.58-.66,15.38.44,21.55,4.91l.37.19a20.37,20.37,0,0,0-4.58-5.69,14,14,0,0,0-5.46-3.36,28.16,28.16,0,0,0-16.18-1.22c-4.24.82-17.69,5-22.59,10.7.3.24.62.47.94.68C170.93,156.38,173.44,155.77,174.92,155.21Z"/><path class="cls-12" d="M174.92,154.32c2.67-1,5.24-2.31,8-3.17a56.44,56.44,0,0,1,12.26-2.57c7.58-.66,15.38.45,21.55,4.92l.37.19a20.37,20.37,0,0,0-4.58-5.69,13.93,13.93,0,0,0-5.46-3.36,28.15,28.15,0,0,0-16.18-1.23c-4.24.83-17.69,5-22.59,10.71.3.24.62.46.94.68C170.93,155.49,173.44,154.88,174.92,154.32Z"/><path class="cls-13" d="M171.45,152c1.1-.59,2.15-1.25,3.25-1.83a67.31,67.31,0,0,1,6.31-3,52.14,52.14,0,0,1,14-3.88,27.7,27.7,0,0,1,14.73,2.56,12.37,12.37,0,0,0-2.72-1.24,28.15,28.15,0,0,0-16.18-1.23c-4,.78-16.29,4.54-21.74,9.81A19,19,0,0,0,171.45,152Z"/><path class="cls-14" d="M187.07,147.08a65.17,65.17,0,0,0-8.92,3.54c-1.57.73-3.1,1.52-4.62,2.34a7.55,7.55,0,0,1-2.4,1,4.92,4.92,0,0,1-2.44-.33c-.15.16-.3.32-.44.49.3.24.62.46.94.68,1.74.69,4.25.08,5.73-.48,2.67-1,5.24-2.31,8-3.17a56.44,56.44,0,0,1,12.26-2.57c7-.6,14.09.28,20,3.89A31.65,31.65,0,0,0,187.07,147.08Z"/><path class="cls-11" d="M131.27,155.21c-2.66-1-5.24-2.31-8-3.17a57.11,57.11,0,0,0-12.27-2.56c-7.57-.66-15.37.44-21.54,4.91l-.38.19a20.73,20.73,0,0,1,4.58-5.69,14,14,0,0,1,5.46-3.36,28.16,28.16,0,0,1,16.18-1.22c4.24.82,17.69,5,22.6,10.7-.31.24-.62.47-.94.68C135.26,156.38,132.76,155.77,131.27,155.21Z"/><path class="cls-12" d="M131.27,154.32c-2.66-1-5.24-2.31-8-3.17a56.53,56.53,0,0,0-12.27-2.57c-7.57-.66-15.37.45-21.54,4.92l-.38.19A20.73,20.73,0,0,1,93.71,148a13.93,13.93,0,0,1,5.46-3.36,28.15,28.15,0,0,1,16.18-1.23c4.24.83,17.69,5,22.6,10.71-.31.24-.62.46-.94.68C135.26,155.49,132.76,154.88,131.27,154.32Z"/><path class="cls-13" d="M134.74,152c-1.09-.59-2.15-1.25-3.25-1.83a67.31,67.31,0,0,0-6.31-3,52.14,52.14,0,0,0-14-3.88,27.7,27.7,0,0,0-14.73,2.56,12.59,12.59,0,0,1,2.72-1.24,28.15,28.15,0,0,1,16.18-1.23c4,.78,16.29,4.54,21.74,9.81A19,19,0,0,1,134.74,152Z"/><path class="cls-14" d="M119.13,147.08a65.56,65.56,0,0,1,8.91,3.54c1.57.73,3.1,1.52,4.63,2.34a7.59,7.59,0,0,0,2.39,1,4.9,4.9,0,0,0,2.44-.33l.45.49c-.31.24-.62.46-.94.68-1.75.69-4.25.08-5.74-.48-2.66-1-5.24-2.31-8-3.17a56.53,56.53,0,0,0-12.27-2.57c-7-.6-14.09.28-20,3.89A31.67,31.67,0,0,1,119.13,147.08Z"/><path class="cls-3" d="M155.2,214.21H151s-.76,9.12-.76,9.15c0,.5,1,1.66,1.28,1.95a2.13,2.13,0,0,0,2,.88c1.06-.26,1.94-1.77,2.49-2.83Z"/><path class="cls-15" d="M167.35,198.71c0-.06-.21-.23-.21-.13-.23,3,2.35,6.44.28,9.19-1.61,2.12-3.78,2.52-6,3.35s-4.28,2.43-6.59,3a7.58,7.58,0,0,1-.83.15l-.24,0-.36,0h-.62l-.37,0-.23,0a7.76,7.76,0,0,1-.84-.15c-2.3-.58-4.26-2.13-6.58-3s-4.39-1.23-6-3.35c-2.08-2.75.5-6.21.28-9.19,0-.1-.21.07-.22.13-.29,3-3.14,6.17-1.69,9.36,1.29,2.86,3.89,3.59,6.43,4.48,3.38,1.19,5.76,3.2,9.47,3.15h.09c3.71.05,6.09-2,9.48-3.15,2.54-.89,5.13-1.62,6.43-4.48C170.49,204.88,167.64,201.73,167.35,198.71Z"/><path class="cls-3" d="M168.57,205.7c-.77,3.16-5.81,3.9-8.28,5-3,1.27-5.37,3.23-8.61,1.58a34.77,34.77,0,0,0-7.19-3,12.3,12.3,0,0,1-4.32-1.64c-1.19-.82-1.36-2.34-1.52-3.73-.27.73-.55,1.47-.78,2.22a6.21,6.21,0,0,0,.55,2.94c.8,1.74,3.63,2.37,5.17,2.93,3.92,1.43,7.07,4.35,11.34,3,2.12-.64,3.94-2,6-2.88,1.84-.82,3.9-1.17,5.64-2.23a9.13,9.13,0,0,0,2.66-2.13C169,207.08,168.8,206.4,168.57,205.7Z"/><path class="cls-3" d="M141.88,161.12A33.62,33.62,0,0,1,146,179.5S143.92,167.43,141.88,161.12Z"/><path class="cls-3" d="M164,161.12A33.68,33.68,0,0,0,160,179.5S162,167.43,164,161.12Z"/><path class="cls-16" d="M249.28,82.76c-2.37-5.62-5.08-11.07-7.88-16.49a45.57,45.57,0,0,0-5.17-7.93c-.69-.85-1.44-1.68-2.19-2.51l-.8-.89a36.17,36.17,0,0,1-3-3.7c-.06-.09-.26,0-.32.17a116.08,116.08,0,0,0-10.41-9.91,106.9,106.9,0,0,0-11.26-7.44c-1.06-.66-2.15-1.28-3.24-1.87a.34.34,0,0,0-.15-.17,53,53,0,0,0-8.34-4.23l-.95-.53s-.1,0-.16,0c-1.1-.46-2.2-.93-3.26-1.4-4.25-1.88-9-3.85-13.63-4.52-.77-.12-1.81-.36-2.58-.48-.32-.08-1.22-.4-1.53-.48-4.65-1.23-8.2-.9-12.89-1.94-6.33-1.39-13.47-.53-20.21.75-1.06,0-2.12.07-3.18.16-4.17.36-8.37.94-12.49,1.65a67.12,67.12,0,0,0-13.69,3.8A117.2,117.2,0,0,0,96.4,32.51a79.79,79.79,0,0,0-22,17.88c-6.67,7.72-12.89,15.32-17.31,24.55-1.93,4-4.1,7.84-5.42,12.13-1.44,4.68-3.53,9.62-3.38,14.59a54.67,54.67,0,0,0-1.64,7.19,102.21,102.21,0,0,0-.39,11.07,44.15,44.15,0,0,0,5.52,21.68c3.65,6.64,10.44,11.14,16,16.09a33.47,33.47,0,0,1,7,8.86c1.88,3.38,4.47,7.25,5.12,11.11.17-1.06.45-2.11.62-3.13q.57-3.3,1-6.62c0-1,0-2,0-3a23.5,23.5,0,0,0-.29-3.24c.17.44.36.87.56,1.31.21-4.72.33-9.44.42-14.17v-.14c0-.08,0-.17,0-.25s0,0,.06-.07c.13-6.48.32-13,1-19.44,0-.32,0-.64,0-1h0l.07,0c.2-1.76.43-3.51.71-5.25,1.24-7.64,3.22-15.28,6.82-22.17l.09-.17c.07-.16.13-.32.2-.47h0c.27-.62.54-1.25.83-1.86,0,0,0,0,0,0,.28-.59.57-1.18.87-1.76l0,0q.56-1,1.17-2.07a.1.1,0,0,0,0,0c.68-1.16,1.41-2.28,2.19-3.38h.2c.34-.44.68-.87,1-1.3l-.16-.12A31,31,0,0,1,106,81.73c3,0,5.89-.41,8.85-.65a10.07,10.07,0,0,0,2.29-.41c3.42.54,6.91.34,9-1.42,5.12-.06,10.49-1.13,14.39-3.66a25,25,0,0,0,6.61.14,21.17,21.17,0,0,0,4,1.38c3.36.8,6.52-.29,9.3-2.28A11.17,11.17,0,0,1,159.23,76c-.11.08-.76.79-.32.87A9.92,9.92,0,0,0,164.4,76a.19.19,0,0,0,.15.14c.81,1.34,2.92,1.73,4.34,2.06a37.74,37.74,0,0,0,8.81,1.08.09.09,0,0,0,0,.08c3.22,2.67,9.09,2.13,12.86,1l.52-.18a7.71,7.71,0,0,0,3.82,1,13.4,13.4,0,0,0,4.73-.76l.43.28,0,0a3.34,3.34,0,0,0-.28.32l0,0a3.05,3.05,0,0,1,2.68.38A10.13,10.13,0,0,1,206,83.28a27.9,27.9,0,0,1,6,6.07c4.29,6,5.93,13.3,8.17,20.2a131,131,0,0,1,5.69,25c.4,3.27.7,6.55,1,9.83.16-.55.32-1.1.5-1.64a36.32,36.32,0,0,0-.17,5c0,.42.08.83.12,1.25.68,3.69,2,7.23,2.73,10.91a.36.36,0,0,1-.11.35c.71,1.77,1.53,3.5,2.4,5.2a4.17,4.17,0,0,0,1.92-1.8c3.21-5.27,5.67-10.45,10.55-14.53,8.75-7.31,11.3-17.69,11.92-28.6C257.4,107.52,254.27,94.61,249.28,82.76ZM192.1,78.28a.65.65,0,0,1,.33-.29c.64-.31,1.24-.65,1.83-1l.14.08A15.33,15.33,0,0,1,192.1,78.28Z"/><path class="cls-17" d="M249.28,82.76c-2.37-5.62-5.08-11.07-7.88-16.49a45.57,45.57,0,0,0-5.17-7.93c-.69-.85-1.44-1.68-2.19-2.51l-.8-.89a36.17,36.17,0,0,1-3-3.7c-.06-.09-.26,0-.32.17a116.08,116.08,0,0,0-10.41-9.91,106.9,106.9,0,0,0-11.26-7.44c-1.06-.66-2.15-1.28-3.24-1.87a.34.34,0,0,0-.15-.17,53,53,0,0,0-8.34-4.23l-.95-.53s-.1,0-.16,0c-1.1-.46-2.2-.93-3.26-1.4a52.57,52.57,0,0,0-13.34-4.33c-.77-.12-1.34-.55-2.11-.67-.32-.08-1.31-.21-1.62-.29-4.65-1.23-8.87-1.09-13.56-2.13-6.33-1.39-13.47-.53-20.21.75-1.06,0-2.12.07-3.18.16-4.17.36-8.37.94-12.49,1.65a67.12,67.12,0,0,0-13.69,3.8A117.2,117.2,0,0,0,96.4,32.51a79.79,79.79,0,0,0-22,17.88c-6.67,7.72-12.89,15.32-17.31,24.55-1.93,4-4.1,7.84-5.42,12.13-.33,1.06-.69,2.14-1,3.23a95.91,95.91,0,0,0,2.68,28l.06-.41c-.71-9.76-1.71-19.61,2.11-28.9.19-.44,1-.62,1.09,0a43.65,43.65,0,0,1,.33,6c.41-6.24,1-12.64,4.38-17.86a.57.57,0,0,1,1,0,12.42,12.42,0,0,1,.94,2.57,68.14,68.14,0,0,1,6.08-16.42A75.22,75.22,0,0,1,79,49.5c3.8-4.44,7.85-8.87,13.13-11.56a.56.56,0,0,1,.77.76A45.89,45.89,0,0,0,90.46,45c4.42-8.89,11.85-16.55,21.62-17.29a.56.56,0,0,1,.54.71,40,40,0,0,1-1.31,4.29,19.87,19.87,0,0,1,5.08-5.5.46.46,0,0,1,.19-.08c.27-.2.55-.41.84-.6,4.61-3.1,11.45-5.26,17-4.16a.55.55,0,0,1,.39.69c-.17.52-.35,1.05-.54,1.58a.89.89,0,0,1,0,.14c-.26.69-.53,1.39-.78,2.09,2-3.35,4.78-5.88,8.61-5.85,4.6-.7,9.28.23,13.87.7,4.76.5,10.88,1.21,13.43,5.94,1.91,3.57,2,7.54,2.38,11.46a46.31,46.31,0,0,0-1.07-15.3.56.56,0,0,1,.54-.71c12.08.66,21.63,8.3,23.82,19.64.33-2.65.64-5.31.88-8,0-.5.78-.82,1-.28a41.59,41.59,0,0,1,3.47,10.58,59.17,59.17,0,0,0-.67-7.27c-.09-.59.72-1.05,1-.44,1.48,2.94,3.34,6.14,4.72,9.46a25.09,25.09,0,0,1,.38-5.11.56.56,0,0,1,.93-.25,23.87,23.87,0,0,1,3.16,5l.18,0c6.74,3.09,7.9,9.64,10.47,15.8.65-3.65-.39-7.31-1-11a.56.56,0,0,1,1-.44,44.51,44.51,0,0,1,5.57,13.91c0-2.56-.25-5.12-.29-7.69a.56.56,0,0,1,1-.28,54.94,54.94,0,0,1,4.16,11.94c-.05-1.59-.07-3.18,0-4.77a.57.57,0,0,1,1-.28c4.44,7.06,6.54,15.69,7.44,23.9.26,2.33.44,4.72.49,7.11.82-4.36.42-8.84,1.25-13.21a.57.57,0,0,1,.94-.24c2.81,2.85,3.48,7,4.13,10.78a99.36,99.36,0,0,1,1.71,15.67c.1,10.35-1.63,20.47-6.39,29.74a.51.51,0,0,1-.44.28,12.7,12.7,0,0,1-4.74,6.17c-.39.25-1-.17-.82-.63a78,78,0,0,0,4.52-18.67c-.47,1.23-1,2.44-1.49,3.65-1.09,2.57-2.27,5.21-4.63,6.85a.57.57,0,0,1-.85-.49,25.38,25.38,0,0,1,1.77-6.14,29.24,29.24,0,0,0,1.42-7.82c.17-2.21.34-4.42.48-6.63-.07.15-.13.3-.19.44-1.48,3.34-3,8.66-6.2,10.69a.58.58,0,0,1-.85-.49c0-2.15.76-4,1.4-6a35.63,35.63,0,0,0,1.36-8.66c.34-5.12,1.06-10.45-.06-15.51a.57.57,0,0,1,.47-.69c-.39-1.84-.84-3.69-1.4-5.51C230.73,85.75,230,83,229,80.42c.28,1.18.52,2.35.71,3.47,1.14,6.66,1.41,14.08-1.68,20.28-.3.6-1.14.16-1-.44,1.68-8.68-1.74-17.44-4.89-25.4a166.8,166.8,0,0,0-8.74-18.18,72.48,72.48,0,0,1-.2,12.73.56.56,0,0,1-1.12,0A31.11,31.11,0,0,0,210,62.75a18.23,18.23,0,0,1-2.44,6.77.57.57,0,0,1-1-.13,29.48,29.48,0,0,1-.59-3.86,12.59,12.59,0,0,1-4.71,7.64.56.56,0,0,1-.84-.48c.58-5.9,1.18-11.63.68-17.32-.63,7-3.56,13.38-10.06,16.81-2.81,1.49-9.7,4.9-12.24,1.19-1.68-2.45-.51-5.92.45-8.39a37,37,0,0,0,2.43-7.37c.06-.37.1-.74.16-1.11a31.81,31.81,0,0,1-1.56,3c-2.16,3.56-5.33,7.66-9.93,7.47a.57.57,0,0,1-.54-.71c.48-3.32,2-6.31,3.22-9.37C172,58.33,171,59.77,170,61.16c-2,2.8-4.5,6.64-7.86,7.93-3.57,1.36-4.9-2.59-4.9-5.46,0-3.78.52-7.35-.13-11.11-.34-1.91-.72-3.8-1.11-5.7a60.74,60.74,0,0,1-.26,9.54c-.47,3.93-1.42,10.23-5.16,12.59-2.39,1.51-3.83-.57-4.65-3.52a27.3,27.3,0,0,1-1.33-7.36c-.34-4.39.57-8.9.36-13.29-1.92,7.86-3.48,16.08-2.33,24.12a.56.56,0,0,1-.93.54c-5.41-4.75-7.19-13.29-7.93-20.1a71,71,0,0,1-.47-7.66,36.26,36.26,0,0,0,.91,20.52.57.57,0,0,1-1,.43C130.49,57,128.3,51.19,128,45c-2.47,8.94.75,19.36,7.47,25.61.45.43-.17,1.27-.68.89-2.83-2.11-6.31-3.49-8.8-6a18.6,18.6,0,0,1-4.77-8.91,19.82,19.82,0,0,1,1.47-12.34A28.49,28.49,0,0,0,120,48.09a.57.57,0,0,1-1-.29v-.18a1.13,1.13,0,0,1-.17-.24,25.24,25.24,0,0,1-1.42-10.2c-2.36,5.16-2.92,11.46-2.48,16.65.71,8.28,4.38,17.78,13.59,19.27.57.09.49.94,0,1.08-13.71,4-23.72-9-23.23-21.54a22.59,22.59,0,0,0,1.93,17.28c.27.45-.29,1.1-.76.76-5.55-4-7.23-10.77-6.34-17.33a30.8,30.8,0,0,0,4,22.5c.33.49-.3,1-.77.77C98.28,73.9,94.92,69.93,94.53,64c-.06-.89-.08-1.81,0-2.74A31.42,31.42,0,0,0,91.2,75a.56.56,0,0,1-1.1.15,33,33,0,0,1-.77-13c-.46,1-.89,2-1.28,3a47.57,47.57,0,0,0-3.19,15.13c-.17,5.16,1.32,9.88,1.75,15,0,.52-.63.69-1,.4-4.21-3.75-5-10.65-4.71-16l.06-.64c-3,7.74-6.06,15.45-6.45,23.87,0,.61-1,.79-1.1.15-1.81-7.91-.35-15.4,2.15-22.71a76,76,0,0,0-6.16,20.29c-.15,3.14-.27,6.27-.11,9.39.42,3,.93,6,1.43,9a118,118,0,0,0,5.82,15c.23.53-.43,1.2-.88.68a47.8,47.8,0,0,1-10-19,165.4,165.4,0,0,0,4,20,.56.56,0,0,1-1,.44,42.38,42.38,0,0,1-7.07-14.86,93.72,93.72,0,0,0,10.53,30c.29.54-.45,1.16-.89.68a51.74,51.74,0,0,1-9.9-15.74c.42,2.71.86,5.4,1.27,8.11.09.57-.73,1.06-1,.43-4.74-10.28-7.49-22-5.66-33.23a49.81,49.81,0,0,0-1.5,6.45c.15,2,.28,4,.36,6a.55.55,0,0,1-1,.27,70.19,70.19,0,0,0,1.4,17.38c.11.59-.72,1-1,.43a67.59,67.59,0,0,1-5.85-14.52,63.36,63.36,0,0,1-1.53-14.72c0-1.5,0-3-.06-4.56,0,.19-.07.39-.1.58a102.21,102.21,0,0,0-.39,11.07,44.15,44.15,0,0,0,5.52,21.68c3.65,6.64,10.44,11.14,16,16.09a33.47,33.47,0,0,1,7,8.86c1.88,3.38,4.47,7.25,5.12,11.11.17-1.06.45-2.11.62-3.13q.57-3.3,1-6.62c0-1,0-2,0-3a23.5,23.5,0,0,0-.29-3.24c.17.44.36.87.56,1.31.21-4.72.33-9.44.42-14.17v-.14c0-.08,0-.17,0-.25s0,0,.06-.07c.13-6.48.32-13,1-19.44,0-.32,0-.64,0-1h0l.07,0c.2-1.76.43-3.51.71-5.25,1.24-7.64,3.22-15.28,6.82-22.17l.09-.17c.07-.16.13-.32.2-.47h0c.27-.62.54-1.25.83-1.86,0,0,0,0,0,0,.28-.59.57-1.18.87-1.76l0,0q.56-1,1.17-2.07a.1.1,0,0,0,0,0c.68-1.16,1.41-2.28,2.19-3.38h.2c.34-.44.68-.87,1-1.3l-.16-.12A31,31,0,0,1,106,81.73c3,0,5.89-.41,8.85-.65a10.07,10.07,0,0,0,2.29-.41c3.42.54,6.91.34,9-1.42,5.12-.06,10.49-1.13,14.39-3.66a25,25,0,0,0,6.61.14,21.17,21.17,0,0,0,4,1.38c3.36.8,6.52-.29,9.3-2.28A11.17,11.17,0,0,1,159.23,76c-.11.08-.76.79-.32.87A9.92,9.92,0,0,0,164.4,76a.19.19,0,0,0,.15.14c.81,1.34,2.92,1.73,4.34,2.06a37.74,37.74,0,0,0,8.81,1.08.09.09,0,0,0,0,.08c3.22,2.67,9.09,2.13,12.86,1l.52-.18a7.71,7.71,0,0,0,3.82,1,13.4,13.4,0,0,0,4.73-.76l.43.28,0,0a3.34,3.34,0,0,0-.28.32l0,0a3.05,3.05,0,0,1,2.68.38A10.13,10.13,0,0,1,206,83.28a27.9,27.9,0,0,1,6,6.07c4.29,6,5.93,13.3,8.17,20.2a131,131,0,0,1,5.69,25c.4,3.27.7,6.55,1,9.83.16-.55.32-1.1.5-1.64a36.32,36.32,0,0,0-.17,5c0,.42.08.83.12,1.25.68,3.69,2,7.23,2.73,10.91a.36.36,0,0,1-.11.35c.71,1.77,1.53,3.5,2.4,5.2a4.17,4.17,0,0,0,1.92-1.8c3.21-5.27,5.67-10.45,10.55-14.53,8.75-7.31,11.3-17.69,11.92-28.6C257.4,107.52,254.27,94.61,249.28,82.76ZM192.1,78.28a.65.65,0,0,1,.33-.29c.64-.31,1.24-.65,1.83-1l.14.08A15.33,15.33,0,0,1,192.1,78.28Zm55.83,60A.56.56,0,0,1,247,138c-1.06-4.6.24-9.81,1.65-14.2a.51.51,0,0,1,.31-.34c.39-2,.79-3.89,1.36-5.79a.57.57,0,0,1,1.08,0C253.22,124.63,252.82,132.69,247.93,138.29Z"/><path class="cls-3" d="M167.24,244.09c-4.33,3-9,3.8-14.15,4.16-5.42.38-10.78-2.29-15.4-4.85-.11-.07-.4.19-.33.3,3.8,5.87,9.06,7.89,15.95,7.19,5.11-.52,10.6-2.61,14.19-6.49C167.77,244.1,167.59,243.84,167.24,244.09Z"/><path class="cls-18" d="M181.4,229.12c-.33-.08-.66-.14-1-.2-4,.55-17.16-1-20.62-1.71s-6.77,2-6.77,2H153s-3.33-2.77-6.83-2-16.27,2.22-20.46,1.73a6.66,6.66,0,0,0-4.4,1.76h0a25.81,25.81,0,0,0,3.23,1.71,18,18,0,0,1,3.33,3.26,39.45,39.45,0,0,1,6.13,5.41c4,4.39,9.78,6.4,15.37,7.07,0,0,2.38.27,3.64.24a36.46,36.46,0,0,0,3.64-.24c5.59-.67,11.4-2.68,15.37-7.07a35.76,35.76,0,0,1,3.14-3.05,29.86,29.86,0,0,1,3.58-3.87,22.44,22.44,0,0,1,1.75-1.41,8,8,0,0,1,1-.87,6.69,6.69,0,0,1,1.73-.92,5.55,5.55,0,0,0,1.07-.47A5.73,5.73,0,0,0,181.4,229.12Z"/><path class="cls-19" d="M182,229.26c-1.15.18-2.3.43-3.46.66-2.46.47-4.93.79-7.38,1.31a69.8,69.8,0,0,1-14.44,1.9,112.16,112.16,0,0,1-15.2-1.43c-4.82-.68-9.8-.82-14.54-1.9a.57.57,0,0,1-.36-.79c-.34,0-.65,0-.92-.07a6.66,6.66,0,0,0-4.4,1.76h0a6.73,6.73,0,0,0,1.3.78c3.73,1.15,7.66,1.15,11.46,2,5,1.19,9.85,2.81,15.1,2.76,2.45,0,4.91-.11,7.37-.22,1.62-.07,3.26-.49,4.88-.41s3.68.77,3.47,2.85c-.66,6.51-8.22,7.9-13.55,8a42.41,42.41,0,0,1-12.14-1.44,28.76,28.76,0,0,0,10.17,3s2.38.27,3.64.24a36.46,36.46,0,0,0,3.64-.24c5.59-.67,11.4-2.68,15.37-7.07a35.76,35.76,0,0,1,3.14-3.05,29.86,29.86,0,0,1,3.58-3.87,22.44,22.44,0,0,1,1.75-1.41,8,8,0,0,1,1-.87,6.69,6.69,0,0,1,1.73-.92,5.55,5.55,0,0,0,1.07-.47A5.49,5.49,0,0,0,182,229.26Z"/><path class="cls-19" d="M180.44,232.76a8,8,0,0,1,1-.87,6.69,6.69,0,0,1,1.73-.92,5.15,5.15,0,0,0,1.08-.48,5,5,0,0,0-1.34-.89c-3.29.25-6.67,1.36-9.69,2.11a58.43,58.43,0,0,1-14.6,1.84c-5.15-.05-10.32-.48-15.46-.81a66.73,66.73,0,0,0-8.11-.48,19.4,19.4,0,0,0-3.23.51c.92.11,1.85.21,2.77.29,4.93.44,9.85,1,14.78,1.4a62,62,0,0,0,15.52-.28,116.43,116.43,0,0,1,12.59-1.84.56.56,0,0,1,.48.84,46.88,46.88,0,0,1-6.8,7.63,32.13,32.13,0,0,1-7.13,5.4c-.3.18-.61.34-.93.51a20.92,20.92,0,0,0,8.9-5.63,35.76,35.76,0,0,1,3.14-3.05,29.86,29.86,0,0,1,3.58-3.87A22.44,22.44,0,0,1,180.44,232.76Z"/><path class="cls-20" d="M182.68,230.05c-.54-.08-1.08-.12-1.62-.15-2.53.64-6.45,1.57-6.92,1.68-3.46.83-7,1.62-10.46,2.27a70.53,70.53,0,0,1-10.72.7,70.7,70.7,0,0,1-10.72-.7c-3.48-.65-7-1.44-10.45-2.27-.54-.13-5.59-1.33-7.92-1.93a4.61,4.61,0,0,0-2.58,1,.19.19,0,0,0,0,.08l.08.06,0,0c3.25.62,6.51.7,9.77,1.42q5.23,1.15,10.46,2.26a48.59,48.59,0,0,0,11.29,1,48.59,48.59,0,0,0,11.29-1q5.24-1.11,10.46-2.26c2.7-.6,5.39-.76,8.08-1.14l.35-.16a5.27,5.27,0,0,0,1.13-.51A10.91,10.91,0,0,0,182.68,230.05Z"/><path class="cls-21" d="M151.65,229.37c-1.33-.76-2.74-1.74-4.35-1.73-2.41,0-4.74.87-7.09,1.37-.07,0-.3.26-.15.25,1.93,0,3.79-.39,5.71-.54s3.56,1.08,5.41,1.21C151.35,229.94,151.91,229.51,151.65,229.37Z"/><path class="cls-21" d="M161,228.41a4.72,4.72,0,0,0-5.36.54s-.14.14-.07.19c.23.14.28.08.56,0a9.27,9.27,0,0,1,1.38-.34,25,25,0,0,1,3.12,0C160.79,228.85,161.25,228.52,161,228.41Z"/><path class="cls-21" d="M138.68,240.27a27.49,27.49,0,0,0-3.25-2.07c-.49-.25-2.38-.83-2.2-1.26a.4.4,0,0,1-.1.15c1.69,4.45,6,6.4,10.49,6.82C141.93,242.78,140.35,241.48,138.68,240.27Z"/><g class="cls-22"><path class="cls-23" d="M148.44,208.59c-1.59-2.52-5.28-3.75-5.94-6.77-.3-1.4.68-3.55,1-4.91a21.45,21.45,0,0,0,.81-4.77c0-.14-.33.11-.35.2a59.9,59.9,0,0,1-2.81,7c-.54,1.21-1.37,2.76-1.23,4.13.44,4.17,5.19,3.66,7.87,5.67C148,209.25,148.58,208.82,148.44,208.59Z"/><path class="cls-23" d="M154.1,208.89a5.33,5.33,0,0,1-3.38-1.31c-.16-.16-.52.18-.58.32-1,2.58,3,3.54,4.66,2.43.48-.3.91-.64.87-1.2C155.66,208.79,154.29,208.9,154.1,208.89Z"/><path class="cls-23" d="M108.27,237.64c-5.74-7.84-11.48-14.84-15.07-24-3.47-8.87-3.63-19.34-3.62-28.73,0-.11-.29.07-.29.16-.7,10-.65,19.85,2.49,29.48,2.85,8.74,9.4,17.28,16.07,23.46C108,238.11,108.38,237.78,108.27,237.64Z"/><path class="cls-23" d="M106.71,89.7c-3,2.73-6,5.33-8,8.89-2.65,4.56-4.2,9.82-5.81,14.83A84.72,84.72,0,0,0,89,147.08c0,.32.75-.21.78-.43.47-5,1.31-10,1.87-15a97.28,97.28,0,0,1,2.16-13.9c2.59-10,5.76-20.36,13.05-27.92C107.09,89.63,106.88,89.56,106.71,89.7Z"/><path class="cls-23" d="M216,205.33a45.18,45.18,0,0,1-2.31,8.29c-.67,1.72-1.42,3.36-2.22,4.95-1.66,4.06-3.51,8-5.45,11.94a52.16,52.16,0,0,0,9.1-16A62.69,62.69,0,0,0,217.93,196,84.75,84.75,0,0,1,216,205.33Z"/><path class="cls-23" d="M207.26,100.58a99.68,99.68,0,0,1,4.34,10,58.27,58.27,0,0,1,2.13,6.21c1.3,4,2.6,7.92,3.7,12a86.38,86.38,0,0,0-3.41-15.3c-1.61-5-3.16-10.27-5.82-14.83a25.86,25.86,0,0,0-4.14-5.23C205.21,95.74,206.11,98.29,207.26,100.58Z"/></g><path class="cls-3" d="M80.84,308.1s19.19,8.69,47.57,9.51c0,0,16.24-1.07,19.63,6.68a15.35,15.35,0,0,0-14.25-9.52C122.79,314.53,96.13,311.82,80.84,308.1Z"/><path class="cls-3" d="M226.65,308.1s-19.19,8.69-47.57,9.51c0,0-16.24-1.07-19.63,6.68a15.35,15.35,0,0,1,14.24-9.52C184.69,314.53,211.36,311.82,226.65,308.1Z"/><path class="cls-24" d="M80.09,187.6c2.45-.61,1.56-1.87,1.68-5.16.06-1.48-1.38-3.3-1.28-5.28.09-1.59,1.7-3.25,1.81-5.11.11-1.65-1.29-3.5-1.16-5.31s1.77-3.28,1.93-5.07-1.21-3.57-1-5.34,1.86-3.26,2-5S83,147.69,83.19,146s1.94-3.22,2.19-4.95-1-3.69-.71-5.4,2.08-3.16,2.39-4.85-.82-3.76-.46-5.43,2.23-3,2.64-4.71-.57-3.83-.1-5.45,2.48-2.87,3-4.44-.15-3.92.53-5.43c.75-1.66,2.88-2.44,3.72-3.82,1-1.58.82-3.94,1.92-5.07s3.34-1,4.76-2,2-3.12,3.51-3.91,3.53,0,5.11-.58,2.56-2.63,4.17-3.14,3.52.59,5.15.19,2.84-2.3,4.48-2.63,3.47.94,5.1.68,3-2,4.67-2.26,3.42,1.18,5.06,1,3.15-1.86,4.78-2,3.37,1.37,5,1.3,3.26-1.69,4.88-1.72,3.32,1.54,4.92,1.55,3.36-1.53,4.95-1.48,3.28,1.71,4.85,1.8c1.73.11,3.49-1.33,5-1.19,1.78.18,3.24,1.94,4.71,2.15,1.91.28,3.83-1,5.13-.61s2.09,2.18,3.41,2.59,3-.68,4.24-.2,1.87,2.44,3.1,3,3-.27,4.23.4,1.49,2.69,2.62,3.46,3,.26,4.1,1.13,1,2.91,2,3.88,2.94.81,3.84,1.86.5,3.06,1.31,4.19,2.76,1.33,3.47,2.53,0,3.1.62,4.36,2.53,1.75,3.06,3-.44,3.07,0,4.41,2.27,2.08,2.65,3.44-.79,3-.49,4.37,2,2.34,2.27,3.73-1.08,2.91-.9,4.3,1.82,2.52,1.95,3.92c.07.83-1.37,1.79-1.3,2.59s1.65,1.51,1.71,2.31-1.38,1.78-1.32,2.58,1.64,1.54,1.7,2.34-1.4,1.77-1.35,2.56,1.63,1.56,1.67,2.35-1.41,1.76-1.37,2.55,1.61,1.58,1.65,2.37-1.44,1.74-1.41,2.54,1.59,1.6,1.62,2.38-1.46,1.74-1.43,2.52,1.56,1.63,1.58,2.41-1.49,1.72-1.47,2.49,1.53,1.68,1.54,2.43c0,.91-1.51,1.74-1.51,2.47,0,1,1.52,1.77,1.53,2.44,0,1.24-1.46,2.22-1.36,2.64.2.8.79-.43,1.8-1.62,0,0,7.83-.64,18.27-11.86,23.64-25.43,22.63-65.67,11.61-96.12-4.92-13.6-11.62-28.42-23.14-37.67C224.82,24.45,212,20,199.24,17,180,12.53,159.5,9.88,139.71,11.75c-17,1.61-33.79,4.9-48.42,14.2A84.72,84.72,0,0,0,71.17,43.78c-14,17.49-24.51,38-28.72,60.11-3.23,17,.87,32,10.88,45.89C59.24,158,68.25,165,73.4,173.53,74.31,175,77.51,188.25,80.09,187.6Z"/><path class="cls-25" d="M258.26,70.39c-4.92-13.6-11.62-28.42-23.14-37.67C224.82,24.45,212,20,199.24,17,180,12.53,159.5,9.88,139.71,11.75c-17,1.61-33.79,4.9-48.42,14.2A84.72,84.72,0,0,0,71.17,43.78c-14,17.49-24.51,38-28.72,60.11-3.23,17,.87,32,10.88,45.89C59.24,158,68.25,165,73.4,173.53c.91,1.51,4.11,14.72,6.69,14.07s1.56-1.87,1.68-5.16c.06-1.48-1.38-3.3-1.28-5.28.09-1.59,1.7-3.25,1.81-5.11.11-1.65-1.29-3.5-1.16-5.31s1.77-3.28,1.93-5.07-1.21-3.57-1-5.34,1.86-3.26,2-5S83,147.69,83.19,146s1.94-3.22,2.19-4.95-1-3.69-.71-5.4,2.08-3.16,2.39-4.85-.82-3.76-.46-5.43,2.23-3,2.64-4.71-.57-3.83-.1-5.45,2.48-2.87,3-4.44-.15-3.92.53-5.43c.75-1.66,2.88-2.44,3.72-3.82,1-1.58.82-3.94,1.92-5.07s3.34-1,4.76-2,2-3.12,3.51-3.91,3.53,0,5.11-.58,2.56-2.63,4.17-3.14,3.52.59,5.15.19,2.84-2.3,4.48-2.63,3.47.94,5.1.68,3-2,4.67-2.26,3.42,1.18,5.06,1,3.15-1.86,4.78-2,3.37,1.37,5,1.3,3.26-1.69,4.88-1.72,3.32,1.54,4.92,1.55,3.36-1.53,4.95-1.48,3.28,1.71,4.85,1.8c1.73.11,3.49-1.33,5-1.19,1.78.18,3.24,1.94,4.71,2.15,1.91.28,3.83-1,5.13-.61s2.09,2.18,3.41,2.59,3-.68,4.24-.2,1.87,2.44,3.1,3,3-.27,4.23.4,1.49,2.69,2.62,3.46,3,.26,4.1,1.13,1,2.91,2,3.88,2.94.81,3.84,1.86.5,3.06,1.31,4.19,2.76,1.33,3.47,2.53,0,3.1.62,4.36,2.53,1.75,3.06,3-.44,3.07,0,4.41,2.27,2.08,2.65,3.44-.79,3-.49,4.37,2,2.34,2.27,3.73-1.08,2.91-.9,4.3,1.82,2.52,1.95,3.92c.07.83-1.37,1.79-1.3,2.59s1.65,1.51,1.71,2.31-1.38,1.78-1.32,2.58,1.64,1.54,1.7,2.34-1.4,1.77-1.35,2.56,1.63,1.56,1.67,2.35-1.41,1.76-1.37,2.55,1.61,1.58,1.65,2.37-1.44,1.74-1.41,2.54,1.59,1.6,1.62,2.38-1.46,1.74-1.43,2.52,1.56,1.63,1.58,2.41-1.49,1.72-1.47,2.49,1.53,1.68,1.54,2.43c0,.91-1.51,1.74-1.51,2.47,0,1,1.52,1.77,1.53,2.44,0,1.24-1.46,2.22-1.36,2.64.2.8.79-.43,1.8-1.62,0,0,7.83-.64,18.27-11.86C270.29,141.08,269.28,100.84,258.26,70.39ZM215.67,84.1c-7.74-2.16-4.46-10.83-7-16.33-1.66,1.47-2.06,3.83-3.62,5.41a.39.39,0,0,1-.64-.17c-.76-3.64,0-7.31-.09-11-1.36,3.65-1.15,7.73-2,11.51-.26,1.15-1.25,6.13-3.32,5.61a6.7,6.7,0,0,1-2.28-1.57c-1.61-1.26-3.34-2-5.22-.86S187,79,185.22,77s-2.38-7-6.27-5.8c-2.15.64-4.55,2.92-6.94,2.3-5.84-1.5-3.55-8.84-3.87-13.47-.92,2-1.46,4.2-2.29,6.28-.12.32-.65.41-.73,0-.88-4.2-1.6-8.43-2.21-12.68-.14,1-.3,2.1-.48,3.13-.42,2.47-1,4.91-1.41,7.36a31.17,31.17,0,0,1-1.4,5.89c-1.21,3.18-4.21,3.93-7.36,4-3,.1-6.31-.06-8.84-1.83-4.72-3.3-5.61-9.68-6.08-15-.3-3.31-.41-6.64-.74-10A24.07,24.07,0,0,0,135,39.71c-1.09,4.47-.33,9.11-.3,13.67,0,5.64.74,11.22,1.15,16.85a.38.38,0,0,1-.71.19,35.26,35.26,0,0,1-3.07-9.1c.18,2.56.44,5.11.74,7.66.25,2.06,2.47,7.64-.94,8.35A7.46,7.46,0,0,1,129.4,77a4.4,4.4,0,0,0-3.56,1.33,4.07,4.07,0,0,1-3.55.81c-2-.41-4.1-2.49-6.17-2.29-2.69.25-1.68,2.72-2.36,4.44A2.51,2.51,0,0,1,110.93,83c-1.27.57-2.82-.19-3.92-1a36.27,36.27,0,0,1-6.8-6.76c-3.38-4.07-6.4-8.41-9.4-12.76A32.59,32.59,0,0,0,91.88,67a75.54,75.54,0,0,0,6.5,9.66.38.38,0,0,1-.54.54,108,108,0,0,1-8.36-7.93,34.39,34.39,0,0,0,6.74,10.15c1.13,1.24,2.29,2.47,3.34,3.79a4.08,4.08,0,0,1,1.25,2.53c-.25,3-3.77,3.08-6,3.84-2.9,1-2.7,3.16-3.24,5.66A5.39,5.39,0,0,1,89,99c-.78.43-1.69.67-2.43,1.16-1.35.89-1.45,2.54-1.06,4s1.18,3.25.52,4.77a3.85,3.85,0,0,1-1.61,2.06c-.8.35-3.24.8-2.26,2.42a3.14,3.14,0,0,1,.45,2.91c-1.58,4.14-8.36.6-10.81-.62a77.49,77.49,0,0,1-9.07-5.31,62.06,62.06,0,0,0,14.34,11.43.38.38,0,0,1-.19.71,68.85,68.85,0,0,1-13.19-1.81c1.43.63,2.9,1.21,4.37,1.77,2.83,1.06,5.68,2.07,8.47,3.25,1.24.52,4.1,1.19,4.36,2.87a3.31,3.31,0,0,1-.34,2.25c-.8,1.4-2.64,2-2.08,4,.48,1.78,1.91,4.23.1,5.76-.45.38-1,.7-1.39,1.12a2.83,2.83,0,0,0-.14,3.59,9.9,9.9,0,0,1,1.45,3.27,15.89,15.89,0,0,1-1.24,8.27.39.39,0,0,1-.47.26c-4.94-1.17-9-4.77-12.26-8.52a62,62,0,0,1-6.5-9.11,45.68,45.68,0,0,0,7.45,12.78.39.39,0,0,1-.54.55c-6.82-5.55-13.75-12.46-17.1-20.75a51.68,51.68,0,0,1-3.06-12.18,35.46,35.46,0,0,1-.16-11.4c1.5-7.8,8.69-12.88,13.87-18.28a26.29,26.29,0,0,0,3-6.8c1.59-6,1.56-12.09,2.45-18.16.37-2.47,1.12-9,4.76-9,1.73,0,3,1.58,3.93,2.87.65.9,1.23,1.87,1.81,2.83a34.32,34.32,0,0,1-.07-3.51,21.4,21.4,0,0,1,1.23-7.74,18,18,0,0,1,4.83-6.11A50.86,50.86,0,0,1,87,39.37a64.64,64.64,0,0,1,8.72-4.75l.85-.48a87.31,87.31,0,0,1,10.07-4.88,131,131,0,0,1,35.37-9c8.26-.87,17.2-1,25.07,2.1a26.23,26.23,0,0,1,9.62,6.19,40.71,40.71,0,0,1,4.77,6.16c1.23,1.91,2.1,3.92,3.15,5.92,1.19,2.25,3,5.13,5.88,5.2a10.57,10.57,0,0,0,6.22-2.32c3.6-2.54,6.63-5.84,10.35-8.22,3.51-2.24,7.7-3.41,11.38-.83a11.75,11.75,0,0,1,3.62,5.1c.72,1.65.37,3.8,1.42,5.32,1.74,2.52,4.85,1,7.32,1.36a5.63,5.63,0,0,1,4,2.4c1.71,2.68,1.68,6.11,1.08,9.14a52.17,52.17,0,0,1-7.45,17.87C225.84,79.66,221.2,85.64,215.67,84.1Zm20.08,50.16c-.68-4.85.08-10.37,3.14-14.34,2.7-3.49,6.88-6.51,8.32-10.82-2.85,1.11-5.11,4.05-7.36,6-1.75,1.49-4,3.45-6.52,2.81a.38.38,0,0,1-.26-.47c.64-3.75,4-6.33,6.22-9.16a58.89,58.89,0,0,0,7.63-11.52c-5.27,3.7-8.91,9.54-13.66,13.84-1.14,1-3.08,3-4.8,2.19-1.92-.89-1.84-3.12-1.53-4.93a13.75,13.75,0,0,0,.55-3.86c-.22-1.75-1.22-2.83-2.12-4.25-1.51-2.38-.81-4.93.36-7.36,1.8-3.75,4.46-7,6.62-10.54.55-.91,1.08-1.83,1.61-2.76a77.73,77.73,0,0,0,2.79-9.27c1.09-4.77,1.58-10.25,4.6-14.29a.38.38,0,0,1,.52-.14,10.68,10.68,0,0,1,2.63,2.34c4.39,5.71,2.61,13.5,4.26,20.06a10.25,10.25,0,0,0,2.35,4.78c1.27,1.3,3,2,4.4,3.06,2.47,1.83,2.57,4.09,1.81,6.94-.7,2.65-2.56,5.51-2.44,8.31s2.25,4.28,3.89,6.32c2.51,3.13.54,7.94-1.45,10.8a53.09,53.09,0,0,1-9.66,10c-3.36,2.8-7.09,5.52-11.43,6.53A.39.39,0,0,1,235.75,134.26Zm22.87,4.38a38.44,38.44,0,0,1-4.57,9.78,18.07,18.07,0,0,1-7.6,6c-2.73,1.25-6.08,2.5-9.09,1.55a.39.39,0,0,1-.23-.57c.71-1.09,3.24-2.09,3.16-3.45s-1-2.48-1.7-3.66c-.94-1.72-1.15-3.44.32-4.93a17.68,17.68,0,0,1,4.12-2.89c1.85-1.52,3.78-2.94,5.73-4.34,3.05-2.19,6.16-5.5,9.84-6.55a.39.39,0,0,1,.44.17C260.28,132.51,259.5,135.9,258.62,138.64Z"/><path class="cls-26" d="M249.74,134.21a72.45,72.45,0,0,1-12.41,4.94c-2.13.59-4.7,1-6.68,2a5,5,0,0,0-.3-1c1.32-1.4,4-2.66,5.51-3.64,2.58-1.7,5.18-3.34,7.74-5.07.14-.09.19-.33,0-.19-3.14,2-6.34,3.93-9.5,5.93a24.63,24.63,0,0,0-3.91,2.49,16,16,0,0,0-.82-1.55c-1-1.65-2.36-1.85-1.25-4.54a5.53,5.53,0,0,0,.51-1.87c.17-1.06-.58-2.18-1.1-3a5.14,5.14,0,0,1-.79-3.66,46.14,46.14,0,0,0,6.23-3.81c2.47-1.82,4.35-4.29,6.75-6.15.15-.12.12-.33-.08-.19-1.72,1.22-3.12,2.87-4.73,4.23a40,40,0,0,1-8.06,5.08,10,10,0,0,0,.14-2.18c0-.27,0-.51-.07-.75a.84.84,0,0,0,.27-.26,15.18,15.18,0,0,1,2.69-2.74c1-.95,1.92-2.12,2.86-3.16,2.63-2.89,5.48-5.54,8-8.5.18-.2-.07-.2-.19-.06-2.68,2.89-5.58,5.56-8.34,8.39l-4,4.17c-.57.58-1.06.88-1.44,1.36a5.71,5.71,0,0,0-1-1.94,4.42,4.42,0,0,1-.78-2.86.78.78,0,0,0,.29-.35c.29-1.59.45-3.53-1.15-4.53s-3.57-1.6-2.91-4a2.12,2.12,0,0,0-.83-2.2,4.56,4.56,0,0,1-1.71-4.12c.12-.76-.65-1.31-1.14-1.67a8,8,0,0,0-1.13-.65c2.05-2,3.28-5,4.77-7.41A64.76,64.76,0,0,0,226,81.48c.09-.2-.25,0-.29.08a72.88,72.88,0,0,1-4.51,8.28c-1.58,2.58-3.18,6-5.32,8.14a5.29,5.29,0,0,1-.8-.5c-.78-.6-1.15-3-1.87-4a5.82,5.82,0,0,0-2.41-1.5,5.76,5.76,0,0,1-3.8-4c-.46-1.21-1.65-1.51-2.82-1.57a25.34,25.34,0,0,0,2.08-6.88c.8-3.7,1.61-7.87,1.08-11.64,0-.1-.24.06-.23.14a39.92,39.92,0,0,1-3.54,18.37l-.63,0c-.44,0-.86,0-1.24,0,.71-7.42,1.93-14.76,1.81-22.25,0-.09-.23.06-.23.15-.3,7.4-1.89,14.67-2.47,22a2.93,2.93,0,0,1-2.51-2.48,3.08,3.08,0,0,0-2.17-2.18,8.59,8.59,0,0,0-4-.21,14.83,14.83,0,0,1-5.51-.66c-1.41-.82-2.45-2.18-4.25-2.34a9.11,9.11,0,0,0-3.21,0c-2.87.84-4.94,1.59-7.38-.59-1.57-1.41-4.22-.57-6-.13l-1.4.37a41.58,41.58,0,0,0,2.93-14c0-.1-.26.06-.27.15a60,60,0,0,1-1.47,7.76c-.48,1.91-1.78,4.28-1.88,6.28a6.81,6.81,0,0,1-1,.13c1.25-3.17,1.06-6.85,1.3-10.21a112.31,112.31,0,0,0-.16-11.89c0-.1-.26.07-.26.17-.12,7.13.4,15-1.49,21.93a4.34,4.34,0,0,1-2.68-1.31,3,3,0,0,0-2.19-.21,9.65,9.65,0,0,0-2.1.79,13,13,0,0,0-1.57.94c-2.58,1.69-3.11.26-5-.68-2.16-1.1-4.41-.48-6.54.48a6.94,6.94,0,0,1-4.18.54c.08-3.87-.92-7.84-1.21-11.7A117,117,0,0,1,136.51,53c0-.08-.23,0-.24.12a119.73,119.73,0,0,0,.84,25.81c-.64-.15-1.26-.35-1.9-.53a84.61,84.61,0,0,1-2.77-12.14c0-.11-.28.07-.27.17.36,3.39,1.07,6.74,1.69,10.09.07.37.11,1,.22,1.59a8.76,8.76,0,0,0-2.94-.22c-3.3.36-3.57,4.4-8.07,3A.19.19,0,0,0,123,81a6.35,6.35,0,0,0-2.41-.13,9.81,9.81,0,0,0-3.48,1.28,10.72,10.72,0,0,0-2.63,2.53c-2,2.37-4.06.77-6.27.9-2.26-3.2-5.47-5.78-7.9-8.89-2.81-3.61-5.44-7-7.1-11.33,0-.14-.36.09-.32.2,2.79,8,8.81,14.1,14.48,20.18a3.75,3.75,0,0,0-.5.21,6.56,6.56,0,0,0-.9-.63,40.94,40.94,0,0,1-4-3.1,36.55,36.55,0,0,1-6.17-6.26c-.05-.07-.27.1-.22.18a32.76,32.76,0,0,0,5.89,6.5c1,.85,2,1.7,3,2.49.57.43,1.2.77,1.74,1.22a11,11,0,0,0-2.2,2.42c-2.23,3.08-6,1.85-8.31,4.33a6,6,0,0,0-1.08,2.31c-.72,2.18-.92,3.73-3,5.09-1.69,1.07-2.89,2.14-2.79,4.36.1,2.4.24,4.4-2.09,6.08a3.2,3.2,0,0,0-1,1.09c-.59,1.21-.18,2.1.22,3.35.92,2.85-.95,4.49-2.83,6.25a2.23,2.23,0,0,0-.42.52c-1-1.1-3.35-1.71-4.51-2.25A78.46,78.46,0,0,1,70,116c-.07,0-.27.15-.21.19,3.91,2.79,8.59,4.12,12.57,6.72a4.06,4.06,0,0,0,.18,1.7A148.49,148.49,0,0,0,67,120.7c-.1,0-.35.22-.24.25,5.31,1.59,10.57,3.5,16,4.52,0,0,0,0,0,0,.54,1.61,1.17,3.24-.23,4.44-1.86,1.59-2.39,2.76-1.47,5.16,1.13,2.94,1.44,4.56-1.21,7.33a3.87,3.87,0,0,0-1,1.89c-.37,1.21.82,3.11,1.24,4.18.73,1.88-1.67,4.77-2.14,6.65-.24,1,.47,2.19.85,3A4.15,4.15,0,0,1,79,161.8c-5.37-3-9.57-8-14-12.23-.07-.06-.28.12-.22.19,4,4.31,8.3,10.22,13.82,12.74-.24.41-.52.82-.83,1.25-1.9-1.22-4-2.15-5.86-3.43a51.47,51.47,0,0,1-6.34-5.45c-4.08-3.91-8.51-8.08-11.42-13,0-.07-.27.1-.22.19,2.69,5.08,7,9.23,10.94,13.34A54.69,54.69,0,0,0,71.17,161c1.24.94,4.21,3.12,6.18,3.46a3.4,3.4,0,0,0-.43,2.08c.82,2.79,2.48,4.95,1.3,8-.94,2.43-2,2.91-1.51,5.65.17.94.74,4.14,2.07,4.23.18,0,.64-.48.42-.52-1.32-.23-1.67-5.4-1.58-6.51.12-1.43,1.77-2.66,2.07-4.09A8,8,0,0,0,79.5,169c-.6-2.07-1.5-4.47.21-6.34a3.84,3.84,0,0,0,1-1.52,4.37,4.37,0,0,0-.48-2.7c-1.35-2.93-1-4.74.54-7.48,1.79-3.21-2.35-6.08.47-9,2-2.12,2.53-3.72,1.36-6.52-.75-1.78-1.62-3.39.41-5a4.59,4.59,0,0,0,1.47-1.71c.55-1.1-.18-2.64-.52-3.65-.78-2.29.49-3.65,2.14-5.17a4.81,4.81,0,0,0,1.11-4c-.17-2.26-1-3.59,1.18-5.36a4.55,4.55,0,0,0,1.37-1.75,4.88,4.88,0,0,0,.29-1.93c0-.59-.06-1.19-.12-1.79-.19-2.47,1.45-3.63,3.54-4.68,1.48-.75,1.78-3,2-4.39.79-4.31,4.49-2.67,6.85-4.41a9.45,9.45,0,0,0,2-2.09c.32-.46.64-.92,1-1.37a3.94,3.94,0,0,1,1.33-1.23,1.59,1.59,0,0,1,.13.13c.12.16.51-.18.49-.37,1.28-.33,2.6.34,4,.59,1.12.2,2.49-1,3.2-1.66a10.62,10.62,0,0,1,9-3.11,5.82,5.82,0,0,0,3.34-.9,1.37,1.37,0,0,0,.46-.54c2-1.53,3.79-2.76,6.48-2.09a4.9,4.9,0,0,1,.81.29.9.9,0,0,0,.39.31.26.26,0,0,0,.2,0,6.09,6.09,0,0,0,2.93,1c3.92-.18,6.64-3.72,10.66-1a3.75,3.75,0,0,0,4.18.35c2.13-1.26,5.09-2.58,7.1-.43a2.81,2.81,0,0,0,2,.35c1.58-.34,3.1-1,4.68-1.35,2.86-.72,3.61.65,5.78,1.63,3,1.35,5.24-.73,8.33-.7,2.85,0,4.22,3.16,7,2.87a12.27,12.27,0,0,0,3.68.27c2.67-.15,5.17-.16,6.08,2.94a3.25,3.25,0,0,0,1.11,1.55c2.26,1.12,4.94-.45,7,1.19.69.56,1,2.36,1.55,3.22s1.94,1.21,2.84,1.56c3.24,1.23,2.39,4,4.66,5.77.75.58,1.72.87,2.49,1.43s.18,2.93.29,3.85c0,.37,1.12,1,1.37,1.13,2.1,1.36,1.22,2.34,1.15,3.91a1.55,1.55,0,0,0,.91,1.42c2.2,1.21,3.41,2,3.54,4.27a15.17,15.17,0,0,0-.68,3.24c0,.44.67,1.32.89,1.65a6.08,6.08,0,0,1,1,4.32c-.1,1.52-.77,2.49-.43,4,.61,2.74,2.92,3.28,1.44,6.92a2.56,2.56,0,0,0-.11,2c1.24,2.08,2.62,3.48,3.07,6,.33,1.89-.93,3.82-1.13,5.66-.13,1.07.61,2.34,1.17,3.32,0,.12.1.23.16.35.6,1.23-.65,4.19-1.2,5.8-.19.57.48,1.81.68,2.26,1.15,2.59-1.64,3.73-.38,5.88,1.48,2.53,1.32,3.64.06,6.2a3.14,3.14,0,0,0-.32,2.11c0,.18.44-.12.45-.25.18-1.69,2.07-3.75,1.82-5.56-.18-1.27-1.45-4.33-.72-5.37a3.31,3.31,0,0,0,.84-1.88c1.13,0,2.3-.17,3.44-.1a48.6,48.6,0,0,0,6.8-.49c.1,0,.39-.3.21-.3-3.36.09-7.17-.73-10.46.11a7.91,7.91,0,0,0-.48-1.26,4,4,0,0,1-.34-1.64c1.15-.62,2.79-.54,4-.64l4.49-.35c.12,0,.4-.32.22-.31l-6.29.26a4.49,4.49,0,0,0-2.4.55,8.58,8.58,0,0,1,1.05-2.64,2.93,2.93,0,0,0-.08-2.25c0,.06-.44-.81-.84-1.69-.19-.6-.35-1.15-.47-1.68h0c.05,0,.19-.07.15-.12a.78.78,0,0,0-.1-.15c0-.05-.09,0-.14,0a5.84,5.84,0,0,1,.3-3.38,9,9,0,0,0,.55-3.19s0-.07,0-.11a87.69,87.69,0,0,0,19-7.43C249.8,134.42,250,134.08,249.74,134.21Z"/><path class="cls-27" d="M129.37,59.06c-.06-5.52-.74-11-1.19-16.53-.14-1.77-.9-7.18-3.58-7.29-2.39-.11-3.68,1.59-4.76,3.52-1.41,2.51-2.24,5.2-6.27,5.27a26.25,26.25,0,0,1-5.23-.89,29.83,29.83,0,0,0-6.84-.88,20.67,20.67,0,0,0-10.33,3.15,10.86,10.86,0,0,0-2.87,2.7c-1.11,1.43-.72,3.47-3.46,2.91A6.19,6.19,0,0,0,79,52.77,3,3,0,0,0,78.23,54a6.28,6.28,0,0,0-1.14,3.55c-.18,3.13,1.77,6,2.51,8.89.41,1.62-1.35,1.3-2.92.73C74,65,70.11,61.73,67.3,65c-1.51,1.73-1.79,3.56-1.83,5.83a60.85,60.85,0,0,0,.9,8.63c-.3,2.66-.7,5.33-1.11,7.94a32.17,32.17,0,0,1-1.51,6.77C62.66,97,60,98.32,57.75,100c-5.31,4-11,7.13-11.25,14.57C46.23,122.49,50,129,54.69,135c2.57,3.33,5.57,6.29,8.42,9.37,1.82,2,4.22,5.09,7,5.58.41.07,1.32-.5,1.2-1-.49-2-1.89-3.55-2.84-5.37-1.26-2.38-2.61-4.7-3.86-7.09-1-1.9,2.16-1.74,3.14-2.28a15.49,15.49,0,0,0,3.52-2.65c2-2,1.56-4.13-.56-5.63-2.68-1.89-5.1-4-7.53-6.07a17.43,17.43,0,0,0,4.8,1.44c.31,0,1.19-.62.92-1a61.64,61.64,0,0,1-5.59-8.19c-.4-.72-.94-1.38-1.37-2.09-1.62-2.66,1.09-1.09,2.1-.5,2.94,1.73,9.73,6.63,12.92,3.25,1.21-1.28,1.33-2.81,1.35-4.5a30.62,30.62,0,0,0-.74-5.29c-.49-2.8,1.07-3.28,3.19-4.22,5.3-2.37,3.33-7.47,3.15-11.9-.14-3.13,2.6-4.47,5.61-3.6A4,4,0,0,0,92,83.09a1.85,1.85,0,0,0,1.11-1.76,3.23,3.23,0,0,0-.9-2c-.08-.26-.17-.5-.26-.72a45.24,45.24,0,0,1-2.8-7.54c-.35-1.49-1.27-4.22.79-2.54.47.39,1.27-.49,1.39-.89.57-1.86-.33-4.13-.62-6-.16-1.09-.69-2.91-.85-4.54l.54,1.1a40.39,40.39,0,0,0,4,6c2.73,3.7,5.58,7.77,9.71,10,2.15,1.18,5,2.44,7.38,1.16,1.75-1,1.66-5.86,3.9-4.73,3,1.52,5.43,3.54,9.06,2.6,2-.52,3.44-2.8,4.16-4.59C129.74,65.77,129.4,62.16,129.37,59.06Z"/><path class="cls-27" d="M229.36,52c-.2-4.41-6.25-1.4-8.15-.37-2.51,1.35-6.32,4.17-6.56-.71-.08-1.65.62-4.69-1.66-5.1a3.13,3.13,0,0,0-2.2.66,6.56,6.56,0,0,0-.33-2.83c-.77-2-4.05-.36-5.24.19-5.84,2.74-10.85,5.76-17.5,6-6.92.27-10.23-4.87-14-9.72-3.48-4.49-6.67-9-11.54-12A13.49,13.49,0,0,0,149.85,27c-2.7,1.12-3.61,3.27-4.09,5.67a13.1,13.1,0,0,0-.88-1.9,12.2,12.2,0,0,0-4-3.82c-1.65-1-3.42.22-4.29,1.6-1.49,2.34-.85,6.34-.62,8.87.36,4,.28,9.74,2.48,13.2.36.58,1.39-.41,1.76-1,0,.52.06,1,.11,1.56.49,5.46,1.44,15.53,8.51,16.16,2.46.21,4.42-1.51,5.72-3.38,2.91-4.13,4.05-10,5.9-14.65.81-2,3.09-5.55,5.36-2.67,1.5,1.93,1.42,5.43,1.62,7.73.26,2.89,1.49,9,5.49,8.86,2.25-.07,8.07-5.84,9.51-4.32,1.09,1.16,1.72,3.6,2.71,4.94a18.63,18.63,0,0,0,5.25,4.64c7.71,4.69,12.15-4.69,15.32-9.93.48-.79,1.07-1.78,1.68-2.86-.12.86-.24,1.73-.39,2.56-.37,2.12-1,4.25,1.19,5.44,1.12.61,2.49-.31,3.24-1a15.57,15.57,0,0,0,1.5-2c1.65-2.31,1.25,3.06,1.19,3.59-.21,2.08-1.32,12.7,3.26,11.44,3.25-.89,5.39-4.39,7.06-7.08a37,37,0,0,0,3-7.58C228.47,58.08,229.51,55.19,229.36,52Z"/><path class="cls-28" d="M210,51.93v.26s.06,0,.06,0v-.26S210,51.91,210,51.93Z"/><path class="cls-27" d="M246.87,83.29c-1.14-2.65-10.85,7.53-7.71-1.38,1.15-3.27,2-6.61,3-9.93.69-2.32,1.67-5,.87-7.35-.2-.61-1.17.14-1.39.38-1.79,1.91-2.22,4.93-3.32,7.28a33,33,0,0,0-1.92,5.5c-1.75,3.92-3.43,7.85-4.87,11.81-.94,2.61-2.07,5.18,0,7.47,1.91,2.12,1.3,3.71.79,6.31a2.63,2.63,0,0,0,.43,2.08.31.31,0,0,0,.26.09c3.73-.29,6.3-6.07,8.17-8.71a52.67,52.67,0,0,0,4.48-8C246.43,87.18,247.65,85.09,246.87,83.29Z"/><path class="cls-27" d="M253.38,93.3c-.15-.45-.79,0-1,.15a10.67,10.67,0,0,0-2.62,3.33c-1.68,2.8-3.49,5.57-5.38,8.23-.14.18-.13.28-.07.32a46.22,46.22,0,0,0-3.49,4.68c-.07.11-.11.35.07.4,2.27.65,5.48-3.39,6.89-4.7C250.88,102.84,255,97.83,253.38,93.3Z"/><path class="cls-6" d="M95.79,167.25c0,.63.86,1.33,1.28,1.7a19.49,19.49,0,0,0,4.41,3,31.55,31.55,0,0,0,11.09,3.13,31.08,31.08,0,0,0,12.5-1.1c2.11-.67,4.12-1.5,6.16-2.35a6.15,6.15,0,0,1,3.93-.6,1.39,1.39,0,0,0,.92,0s0-.08,0-.11a5.77,5.77,0,0,0-1.82-1.89c-1.53-1-2.32-2.51-3.51-3.8a18.14,18.14,0,0,0-5.69-4.55,25.3,25.3,0,0,0-7.62-2.08,20.14,20.14,0,0,0-4.11,0,40.08,40.08,0,0,0-4.27.47,14.73,14.73,0,0,0-6.7,2.43c-1.41.94-3.57,2.53-4.1,4.25-.4,1.24.34,2.13-1.68,1.43a1,1,0,0,0-.78,0S95.78,167.22,95.79,167.25Zm14.45-6.34a12.46,12.46,0,0,1,6.21-.66.38.38,0,0,1,.43-.24,22.31,22.31,0,0,1,11.91,6.35c.3.31-.09.84-.46.61-5.47-3.48-11.42-5.78-18-5.31C109.88,161.69,109.86,161.05,110.24,160.91Z"/><path class="cls-3" d="M100.84,164.12c4.19-3.45,8.52-5.45,14-5.48a24.31,24.31,0,0,1,13.5,4.56c.08.05.11.18,0,.11-8.63-5.32-19.1-5.22-27.12,1.11C101.08,164.52,100.74,164.21,100.84,164.12Z"/><path class="cls-7" d="M129.94,170.13a16.53,16.53,0,0,0,1.88,2c.06,0,0,.08,0,0a9,9,0,0,1-1.2-1.19,11.44,11.44,0,0,0,1.74,1.94c.14.12,0,.23-.09.11a12,12,0,0,1-2.15-2.29c-.14-.21.08-.16.22-.07l-.46-.55C129.77,170.07,129.88,170.07,129.94,170.13Z"/><path class="cls-8" d="M131.34,169.79a23.64,23.64,0,0,0,3.16,1.81c.08,0,.19.22,0,.15a19.3,19.3,0,0,1-3.22-1.76C131.17,169.89,131.13,169.66,131.34,169.79Z"/><path class="cls-8" d="M96.53,169.45a6.67,6.67,0,0,0,3.26.1c.07,0,.24.13.16.16a.28.28,0,0,1-.12,0c.06.06.1.13,0,.15a6.52,6.52,0,0,1-1.18.39,2.27,2.27,0,0,1-1.06.11s-.16-.14-.08-.13a3.3,3.3,0,0,0,1.06-.26l.45-.14-.6,0a6.71,6.71,0,0,1-1.89-.29S96.44,169.43,96.53,169.45Z"/><path class="cls-8" d="M97.14,170.88a6.55,6.55,0,0,0,3-1s.13.07.1.09a5,5,0,0,1-3,1S97.1,170.88,97.14,170.88Z"/><path class="cls-8" d="M98.28,171.5a3.78,3.78,0,0,0,1.65-.66l-.1,0a1.63,1.63,0,0,1-1.11.21s-.13-.11-.07-.1c.36,0,.78-.27,1.09-.42a9.83,9.83,0,0,1,1.09-.62c.07,0,.27.12.21.19a2.29,2.29,0,0,1-.23.21s.07.07,0,.09a4.34,4.34,0,0,1-2.53,1.13S98.24,171.5,98.28,171.5Z"/><path class="cls-8" d="M100.2,171.3l-.19,0s-.15-.1-.09-.11a2.22,2.22,0,0,0,.74-.49,7.57,7.57,0,0,1,.72-.49c.05,0,.19.09.2.16l.17-.11s.15.07.12.11a4.79,4.79,0,0,1-1.47,1,3.48,3.48,0,0,1-1.59.52s-.09-.08-.06-.08A4.22,4.22,0,0,0,100.2,171.3Z"/><path class="cls-8" d="M100.62,171.83a1.61,1.61,0,0,1-.72,0s-.15-.14-.08-.13a2.26,2.26,0,0,0,1.12-.35,7.15,7.15,0,0,1,1-.89c.06-.05.22.07.23.15l.25-.19c.07-.07.28.11.23.2a1.49,1.49,0,0,1-.12.14s0,0,0,.06a5.75,5.75,0,0,1-3.14,1.48s-.1-.07-.06-.08A6.74,6.74,0,0,0,100.62,171.83Z"/><path class="cls-8" d="M100.33,172.26a13.27,13.27,0,0,0,2.79-1.58s.17.07.16.13a1.36,1.36,0,0,1-.42.5l.56-.37s.16.09.12.12a10.22,10.22,0,0,1-3,1.61s-.09-.06-.06-.07a13,13,0,0,0,1.82-.94l-.26.13a3.9,3.9,0,0,1-1.62.58S100.28,172.27,100.33,172.26Z"/><path class="cls-8" d="M102.54,172.09a8,8,0,0,0,1.07-.85s.15.07.12.1a5.69,5.69,0,0,1-1,.78,3.57,3.57,0,0,1-1.06.55s-.09-.06-.06-.07A3.72,3.72,0,0,0,102.54,172.09Z"/><path class="cls-8" d="M102.26,172.76c-.05,0-.17-.1-.12-.12a6.91,6.91,0,0,0,2-1.43c.07-.07.24.09.21.17l-.1.15s.1.08.08.1a9.54,9.54,0,0,1-2.09,1.71s-.1-.06-.08-.07a18.13,18.13,0,0,0,1.42-1.18l0,0A8,8,0,0,1,102.26,172.76Z"/><path class="cls-8" d="M103,173c.26,0,.63-.38.82-.53s.55-.46.85-.67c0,0,0,0,.06,0h0s.17.07.13.11h0s0,.06,0,.08a3.43,3.43,0,0,1-.68.59c-.34.33-.68.64-1,.93,0,0-.1,0-.07-.06l.47-.46a.73.73,0,0,1-.49.11S103,173,103,173Z"/><path class="cls-8" d="M103.91,173.83c.72-.42,1.09-1.26,1.62-1.86,0,0,.13.05.11.09a5.35,5.35,0,0,1-1.64,1.86S103.87,173.85,103.91,173.83Z"/><path class="cls-8" d="M106.08,172.33c0-.05.18.06.15.13a6,6,0,0,1-.84,1.17s-.12,0-.1-.08A8.21,8.21,0,0,0,106.08,172.33Z"/><path class="cls-8" d="M130.53,169.78c0-.08.07,0,.14,0s.09,0,.14,0a10.26,10.26,0,0,0,1.33,1,5.36,5.36,0,0,0,1.52,1s.08.08,0,.07a3.92,3.92,0,0,1-1.29-.72,13.43,13.43,0,0,1-1.6-1.21,5.69,5.69,0,0,0,1.2,1.15,6.62,6.62,0,0,0,1.3,1s.08.09,0,.06a6.38,6.38,0,0,1-1.52-1.08,8.45,8.45,0,0,1-.87-.69c.24.31.48.63.75.92a4.72,4.72,0,0,0,.88.85c.08,0,.16.24,0,.16a4.45,4.45,0,0,1-1-.86,7.28,7.28,0,0,1-1-1.18c-.08-.14.12-.06.21,0A1.28,1.28,0,0,1,130.53,169.78Z"/><path class="cls-8" d="M131.89,169.7c.55.28,1.08.59,1.63.87a4.36,4.36,0,0,0,1.81.69s.07.06,0,.06a2.86,2.86,0,0,1-1.35-.4c-.72-.36-1.43-.71-2.13-1.11C131.84,169.78,131.78,169.64,131.89,169.7Z"/><path class="cls-8" d="M129.16,170.36a9.49,9.49,0,0,0,2.33,2.68c0,.05,0,.08,0,0a8.47,8.47,0,0,1-2.46-2.77C129,170.2,129.13,170.31,129.16,170.36Z"/><path class="cls-8" d="M128.43,170.64a4.77,4.77,0,0,0,.62,1,6.4,6.4,0,0,0,.95,1.13c.05,0,0,.07,0,0a5,5,0,0,1-1-1.07,3.76,3.76,0,0,1-.71-1.18C128.27,170.51,128.42,170.6,128.43,170.64Z"/><path class="cls-8" d="M127.29,170.74a9.66,9.66,0,0,0,2,2.49c.06.05,0,.1,0,.05a6.37,6.37,0,0,1-1-1.1,7.79,7.79,0,0,1-1.08-1.48C127.08,170.59,127.27,170.69,127.29,170.74Z"/><path class="cls-8" d="M114.08,172.73a17.61,17.61,0,0,0,.31,2.89s-.09,0-.1,0a12,12,0,0,1-.36-2.94C113.92,172.56,114.08,172.67,114.08,172.73Z"/><path class="cls-8" d="M114.66,172.86a17.53,17.53,0,0,0,.4,2.71c0,.05-.09,0-.1,0a12.08,12.08,0,0,1-.46-2.74C114.49,172.7,114.65,172.8,114.66,172.86Z"/><path class="cls-8" d="M120.14,172.42a7.68,7.68,0,0,0,.58,1.23,3.58,3.58,0,0,0,.72,1.12s0,.08,0,0a2.75,2.75,0,0,1-.65-.86,5.84,5.84,0,0,1-.74-1.58C120,172.3,120.13,172.39,120.14,172.42Z"/><path class="cls-8" d="M120.64,172.27a8.51,8.51,0,0,0,.83,1.39,4.38,4.38,0,0,0,1.33,1.28s.09.11,0,.07A3.85,3.85,0,0,1,121.6,174a6.76,6.76,0,0,1-1.11-1.72C120.44,172.13,120.61,172.22,120.64,172.27Z"/><path class="cls-8" d="M122.27,171.84a7.07,7.07,0,0,0,1.52,1.71,8.36,8.36,0,0,0,1.41,1.25s.08.1,0,.07a10,10,0,0,1-1.62-1.37,5.37,5.37,0,0,1-1.48-1.7C122.06,171.69,122.24,171.79,122.27,171.84Z"/><path class="cls-8" d="M123.78,171.82a8.67,8.67,0,0,0,1.07,1.27,6.16,6.16,0,0,0,1.64,1.28s.07.09,0,.07a8.51,8.51,0,0,1-2.86-2.64C123.6,171.7,123.76,171.78,123.78,171.82Z"/><path class="cls-8" d="M124.68,171.72c.35.44.69.88,1.07,1.29.18.2.71.92,1,.88,0,0,.1.06.07.07-.29.08-.64-.37-.8-.54a12.22,12.22,0,0,1-1.44-1.7C124.52,171.63,124.65,171.69,124.68,171.72Z"/><path class="cls-8" d="M125.49,171.16a7.07,7.07,0,0,0,1,1.22,4.57,4.57,0,0,0,1.14,1.14s.06.07,0,0a3.23,3.23,0,0,1-1.07-1c-.37-.46-1-.87-1.14-1.47C125.37,171.07,125.48,171.15,125.49,171.16Z"/><path class="cls-8" d="M126,170.72c.43.55.86,1.1,1.33,1.63s.78,1.05,1.32,1.26c0,0,.07.07,0,.06a2.53,2.53,0,0,1-1.07-.88,19.06,19.06,0,0,1-1.74-2.07C125.77,170.6,126,170.66,126,170.72Z"/><path class="cls-8" d="M121.19,172a7,7,0,0,0,.49.83,4.28,4.28,0,0,0,.67.95c.05,0,0,.08,0,0a3.61,3.61,0,0,1-.66-.89,4.74,4.74,0,0,1-.57-1C121.06,171.93,121.17,172,121.19,172Z"/><path class="cls-8" d="M123.3,172.31a5.33,5.33,0,0,0,.73,1s0,0,0,0a6,6,0,0,1-.8-1.08C123.15,172.21,123.28,172.28,123.3,172.31Z"/><path class="cls-8" d="M119.29,172.28c.33,1.05.89,2,1.3,3,0,0,0,0-.06,0a16.58,16.58,0,0,1-1.38-3C119.13,172.16,119.28,172.24,119.29,172.28Z"/><path class="cls-8" d="M118.76,172.67a9.83,9.83,0,0,0,.93,2.56s-.06,0-.07,0a6.74,6.74,0,0,1-1-2.62C118.62,172.53,118.75,172.62,118.76,172.67Z"/><path class="cls-8" d="M119,172.32c.19.61.43,1.2.62,1.81,0,0-.07,0-.08,0-.2-.61-.44-1.22-.64-1.82C118.87,172.23,119,172.29,119,172.32Z"/><path class="cls-8" d="M117.76,172.67c.08.5.18,1,.29,1.5a3.37,3.37,0,0,0,.4,1.43c0,.06-.06,0-.08,0a2.14,2.14,0,0,1-.36-1.08c-.1-.65-.3-1.28-.4-1.92C117.6,172.52,117.76,172.61,117.76,172.67Z"/><path class="cls-8" d="M116.89,172.47a28.91,28.91,0,0,1,.42,2.92s-.1,0-.1,0c-.09-1-.45-2-.45-2.94C116.76,172.35,116.89,172.43,116.89,172.47Z"/><path class="cls-8" d="M118.28,173.09a8.27,8.27,0,0,0,.38,1.09c0,.07-.1,0-.12,0a8.22,8.22,0,0,1-.39-1.12C118.13,173,118.27,173.05,118.28,173.09Z"/><path class="cls-8" d="M116.28,173a21.17,21.17,0,0,1,.31,2.49s-.09,0-.1-.06c0-.83-.29-1.65-.36-2.5C116.13,172.81,116.27,172.9,116.28,173Z"/><path class="cls-8" d="M116.65,173.15a3.34,3.34,0,0,0,.14.94s-.1,0-.11-.05a3.51,3.51,0,0,1-.15-1S116.64,173.1,116.65,173.15Z"/><path class="cls-8" d="M115.26,173a9.17,9.17,0,0,0,.15,1.48c.07.43.18,1.24.56,1.51,0,0,.06.11,0,.06a1.46,1.46,0,0,1-.51-.9,9.37,9.37,0,0,1-.31-2.23C115.14,172.88,115.26,173,115.26,173Z"/><path class="cls-8" d="M113.36,172.49c0-.06.15,0,.14.09-.15.94-.11,1.88-.24,2.82,0,0-.13,0-.13-.08C113.26,174.38,113.16,173.42,113.36,172.49Z"/><path class="cls-8" d="M112.36,174c.12-.59.28-1.16.39-1.76,0,0,.12,0,.12.08a3,3,0,0,1,0,.43,1.29,1.29,0,0,1,0-.19c0-.07.16,0,.16.1a8.73,8.73,0,0,1-.29,2c0,.06-.16,0-.15-.09.08-.45.08-.92.14-1.39-.09.35-.19.68-.27,1a3.13,3.13,0,0,1-.56,1.31s-.11-.05-.09-.07A3.68,3.68,0,0,0,112.36,174Z"/><path class="cls-8" d="M110.32,175.65a3.19,3.19,0,0,0,.89-1.19,6.66,6.66,0,0,0,.7-1.83c0-.07.18,0,.17.1a4.48,4.48,0,0,1-.72,1.85,3.17,3.17,0,0,1-.94,1.17S110.28,175.67,110.32,175.65Z"/><path class="cls-8" d="M111.06,172.59c0-.06.16,0,.15.09a7.51,7.51,0,0,1-1.41,2.53s-.13-.05-.11-.08A11.76,11.76,0,0,0,111.06,172.59Z"/><path class="cls-8" d="M109,174.2a4.59,4.59,0,0,0,1-1.61c0-.05.13,0,.13.08a3.13,3.13,0,0,1-1,1.65c-.36.39-.82.94-1.38,1,0,0-.09-.07-.06-.07C108.26,175.13,108.7,174.56,109,174.2Z"/><path class="cls-8" d="M107.41,174.84a5.71,5.71,0,0,0,2.16-2.55c0-.06.17.05.16.1a2.79,2.79,0,0,1-.83,1.33,6.46,6.46,0,0,1-1.41,1.2S107.38,174.86,107.41,174.84Z"/><path class="cls-8" d="M106.5,174.65a3.47,3.47,0,0,0,1.21-1,7.74,7.74,0,0,0,1.07-1.48s.13,0,.12.08a4.39,4.39,0,0,1-1,1.52,3.33,3.33,0,0,1-1.28,1S106.46,174.66,106.5,174.65Z"/><path class="cls-8" d="M104.91,174.73a6.08,6.08,0,0,0,2.4-2.45c0-.06.21.07.18.14a5.48,5.48,0,0,1-2.48,2.42S104.86,174.76,104.91,174.73Z"/><path class="cls-8" d="M105.34,174.07a7.42,7.42,0,0,0,.94-1.07A7,7,0,0,0,107,172s.16.06.14.11a3.27,3.27,0,0,1-.64,1,10.25,10.25,0,0,1-1,1.13S105.3,174.1,105.34,174.07Z"/><path class="cls-8" d="M132.37,169.63a11.56,11.56,0,0,0,2.65,1.09s.06.06,0,.06a7.3,7.3,0,0,1-2.68-1C132.31,169.72,132.24,169.57,132.37,169.63Z"/><path class="cls-8" d="M129.72,170.45a5.57,5.57,0,0,0,.8,1.18,8.44,8.44,0,0,0,.8,1c.06.06,0,.1,0,.05a8.64,8.64,0,0,1-1-1.13,3,3,0,0,1-.76-1.17C129.53,170.3,129.7,170.42,129.72,170.45Z"/><path class="cls-8" d="M130,170.08c.65.57,1.15,1.28,1.78,1.87,0,.05,0,.07,0,0-.65-.57-1.2-1.25-1.82-1.85C129.86,170.05,130,170,130,170.08Z"/><path class="cls-8" d="M128.75,170.66c.21.31.42.61.65.9s.43.69.74.81c0,0,.09.1,0,.08a1.53,1.53,0,0,1-.62-.54,14.61,14.61,0,0,1-1-1.28C128.54,170.54,128.72,170.61,128.75,170.66Z"/><path class="cls-8" d="M127.89,170.77c.22.4.49.77.71,1.17,0,.06-.08,0-.09,0-.24-.41-.53-.77-.76-1.19C127.7,170.65,127.86,170.72,127.89,170.77Z"/><path class="cls-8" d="M126.63,170.94a10.29,10.29,0,0,0,.75,1,4.08,4.08,0,0,0,.83.83s.06.11,0,.06a3.39,3.39,0,0,1-.8-.76,5.93,5.93,0,0,1-.88-1.13C126.47,170.85,126.6,170.91,126.63,170.94Z"/><path class="cls-8" d="M125.21,171.55a7.79,7.79,0,0,0,1,1.49s0,.06,0,0a3.48,3.48,0,0,1-.59-.69,6.56,6.56,0,0,1-.56-.85C125,171.42,125.18,171.5,125.21,171.55Z"/><path class="cls-8" d="M126.1,171.44c.3.32.61.62.89,1,.06.07,0,.07-.07,0-.28-.33-.6-.63-.9-.95C126,171.39,126.05,171.39,126.1,171.44Z"/><path class="cls-8" d="M121.69,172.25c.25.38.51.75.76,1.12a4.89,4.89,0,0,0,1,1.22c.06,0,0,.08,0,0a4.12,4.12,0,0,1-.93-1,14.12,14.12,0,0,1-.94-1.39C121.42,172.09,121.65,172.2,121.69,172.25Z"/><path class="cls-8" d="M121.85,172.34a8.69,8.69,0,0,1,.84,1.06c0,.06,0,0-.07,0-.29-.35-.57-.7-.84-1.07C121.73,172.28,121.83,172.31,121.85,172.34Z"/><path class="cls-8" d="M111.36,172.62c0-.07.2.08.19.14a3.43,3.43,0,0,1-.42,1.1,4.19,4.19,0,0,1-.68,1.08s-.13-.05-.1-.09A11,11,0,0,0,111.36,172.62Z"/><path class="cls-8" d="M110.42,172.67c0-.06.17.06.16.11a3.69,3.69,0,0,1-.77,1.29c0,.05-.19-.08-.16-.13A8.26,8.26,0,0,0,110.42,172.67Z"/><path class="cls-8" d="M113.59,172.29c0-.08.19.05.19.11a9.75,9.75,0,0,1-.18,2.16c0,.07-.16,0-.15-.1A19.76,19.76,0,0,1,113.59,172.29Z"/><path class="cls-8" d="M115.67,172.84l.18,1.27a7.45,7.45,0,0,0,.15,1.07s-.09,0-.1,0a5.23,5.23,0,0,1-.24-1.11c-.06-.44-.18-.87-.2-1.3C115.46,172.65,115.67,172.77,115.67,172.84Z"/><path class="cls-8" d="M105.35,172.76a5.72,5.72,0,0,1,.64-1.07c.06-.06.23.08.21.15a3.85,3.85,0,0,1-1.47,1.86s-.12-.06-.09-.08A2.79,2.79,0,0,0,105.35,172.76Z"/><path class="cls-8" d="M103.75,173.37c.59-.49,1-1.14,1.56-1.66.07-.06.27.11.22.18a5.33,5.33,0,0,1-1.63,1.61C103.85,173.53,103.7,173.4,103.75,173.37Z"/><path class="cls-8" d="M98.23,169.51s.45-.17.53-.2l.51-.19c.07,0,.27.14.19.2-.25.16-1.13.56-1.34.17C98.08,169.41,98.21,169.48,98.23,169.51Z"/><path class="cls-7" d="M133.07,169.81a9.89,9.89,0,0,0,2.9.91s.07.06,0,.06a6.48,6.48,0,0,1-2.92-.87S133,169.76,133.07,169.81Z"/><path class="cls-7" d="M132.34,169.74a8.1,8.1,0,0,0,3.85,1.53s.06,0,0,0a7.81,7.81,0,0,1-3.91-1.52C132.24,169.75,132.25,169.67,132.34,169.74Z"/><path class="cls-7" d="M131.45,169.64a10.66,10.66,0,0,0,1.59,1,11.42,11.42,0,0,0,1.91.89s.06.06,0,0a8,8,0,0,1-1.73-.74,8.83,8.83,0,0,1-1.84-1.11C131.33,169.63,131.37,169.57,131.45,169.64Z"/><path class="cls-7" d="M130.94,169.8c.47.36,1,.69,1.45,1a6.9,6.9,0,0,0,1.39.87s.06.07,0,.06a5.19,5.19,0,0,1-1.26-.75c-.55-.38-1.12-.76-1.65-1.16C130.81,169.79,130.86,169.74,130.94,169.8Z"/><path class="cls-7" d="M131,170.35a21.23,21.23,0,0,0,1.61,1.4c.07.05,0,.1,0,.05a15.85,15.85,0,0,1-1.65-1.42C130.79,170.3,130.9,170.3,131,170.35Z"/><path class="cls-7" d="M128.8,170.43l.11.15h0a11.12,11.12,0,0,0,1.66,1.7c0,.05,0,.09,0,.05a11.45,11.45,0,0,1-1.27-1.24c.32.46.67.9,1,1.33.06.07,0,.07-.07,0a11.8,11.8,0,0,1-1.57-2C128.63,170.33,128.78,170.4,128.8,170.43Z"/><path class="cls-7" d="M128.13,170.72a13.73,13.73,0,0,0,1.63,1.94c0,.05,0,.05,0,0a10.66,10.66,0,0,1-1.7-2C128,170.62,128.11,170.69,128.13,170.72Z"/><path class="cls-7" d="M127.8,170.87a7.25,7.25,0,0,0,1.72,2.06c.06,0,0,.08,0,0a7.4,7.4,0,0,1-1.84-2.14C127.6,170.73,127.77,170.82,127.8,170.87Z"/><path class="cls-7" d="M127.21,171.07a10.19,10.19,0,0,0,.85,1,4.68,4.68,0,0,0,1.12,1.1s.1.12,0,.08a4.42,4.42,0,0,1-1.14-1,7.31,7.31,0,0,1-1-1.18C127,171,127.19,171,127.21,171.07Z"/><path class="cls-7" d="M123.37,171.87c.3.43.59.85.93,1.25a6.49,6.49,0,0,0,1.23,1.28s0,.08,0,0a6.53,6.53,0,0,1-1.19-1.16,8,8,0,0,1-1.07-1.43C123.22,171.78,123.35,171.84,123.37,171.87Z"/><path class="cls-7" d="M124.23,171.68c.34.45.69.91,1.07,1.32.06.07,0,.07-.07,0a7.74,7.74,0,0,1-1.11-1.37C124.08,171.59,124.21,171.65,124.23,171.68Z"/><path class="cls-7" d="M122.44,172.36a8.94,8.94,0,0,0,.78,1.15,5.59,5.59,0,0,0,.88,1.11c.05,0,0,.08,0,0a5.34,5.34,0,0,1-.87-1,7.24,7.24,0,0,1-.91-1.3C122.24,172.22,122.41,172.32,122.44,172.36Z"/><path class="cls-7" d="M123.11,172.38a11.49,11.49,0,0,0,1,1.23c.06.07,0,.07-.07,0a8.1,8.1,0,0,1-1-1.27C123,172.3,123.09,172.35,123.11,172.38Z"/><path class="cls-7" d="M120,172.49a12.57,12.57,0,0,0,1,2.65c0,.07-.09,0-.11,0a8.61,8.61,0,0,1-1.06-2.72C119.79,172.29,120,172.42,120,172.49Z"/><path class="cls-7" d="M120.48,172.39c.28.57.58,1.11.9,1.65.05.07-.06,0-.08,0a11.14,11.14,0,0,1-1-1.68C120.31,172.27,120.46,172.35,120.48,172.39Z"/><path class="cls-7" d="M117.32,172.58a15.9,15.9,0,0,1,.29,2.84c0,.05-.13,0-.13-.09a21.3,21.3,0,0,1-.34-2.85C117.14,172.4,117.31,172.53,117.32,172.58Z"/><path class="cls-7" d="M118,172.89c.15.51.28,1,.41,1.53,0,.07-.13,0-.14-.06-.13-.52-.3-1-.42-1.54C117.8,172.74,118,172.84,118,172.89Z"/><path class="cls-7" d="M114.2,172.63s.12,0,.12.07a23.89,23.89,0,0,0,.15,2.67c0,.06-.1,0-.1-.05A16.2,16.2,0,0,1,114.2,172.63Z"/><path class="cls-7" d="M114.9,172.73c0-.07.18.06.18.12a12.2,12.2,0,0,0,.08,2c0,.08-.13,0-.14-.06A7.17,7.17,0,0,1,114.9,172.73Z"/><path class="cls-7" d="M112.29,172.71c0-.07.19,0,.17.11-.23.76-.49,1.51-.79,2.25,0,.05-.14,0-.12-.08C111.83,174.24,112.08,173.48,112.29,172.71Z"/><path class="cls-7" d="M111.59,172.83c0-.07.19,0,.17.11a5.2,5.2,0,0,1-1.2,2.33s-.16-.06-.13-.1A6.05,6.05,0,0,0,111.59,172.83Z"/><path class="cls-7" d="M109,175.07a4.31,4.31,0,0,0,.85-1,13.76,13.76,0,0,0,.83-1.31c0-.06.22.08.2.15a4.28,4.28,0,0,1-.82,1.33,3.18,3.18,0,0,1-1,1S108.93,175.1,109,175.07Z"/><path class="cls-7" d="M107.26,174.34a5.3,5.3,0,0,0,1.79-2c0-.06.24.09.22.16a3.55,3.55,0,0,1-1.92,2S107.21,174.36,107.26,174.34Z"/><path class="cls-7" d="M105.67,174.18a8.64,8.64,0,0,0,1.47-1.07,6.91,6.91,0,0,0,1-1.33c0-.05.16.06.14.1a2.66,2.66,0,0,1-.3.61s.13.06.1.09a9.53,9.53,0,0,1-1.7,1.66s-.13-.06-.1-.08a12.79,12.79,0,0,0,1.08-1,9.39,9.39,0,0,1-1.62,1.09S105.63,174.21,105.67,174.18Z"/><path class="cls-7" d="M106.65,174.22a7.3,7.3,0,0,0,2.06-2.33c0-.06.22.08.19.14a5.17,5.17,0,0,1-2.16,2.28S106.62,174.24,106.65,174.22Z"/><path class="cls-7" d="M104.16,174.14a6.11,6.11,0,0,0,2.54-2.32c0-.07.24.09.19.16a5.4,5.4,0,0,1-2.63,2.27S104.12,174.17,104.16,174.14Z"/><path class="cls-7" d="M104.85,174.19a7.62,7.62,0,0,0,2.57-2.45c0-.05.18.07.16.12a5.38,5.38,0,0,1-2.61,2.46S104.8,174.23,104.85,174.19Z"/><path class="cls-7" d="M104.73,172.69a3.45,3.45,0,0,0,1.16-1.21s.18.07.16.12a2.63,2.63,0,0,1-1.15,1.23,6.52,6.52,0,0,1-1.89.93s-.12-.07-.08-.08A5.66,5.66,0,0,0,104.73,172.69Z"/><path class="cls-7" d="M102.54,173.24a3.12,3.12,0,0,0,1.62-.6,3.27,3.27,0,0,0,1.12-1s.19.08.16.14a2.48,2.48,0,0,1-1.12,1,3.16,3.16,0,0,1-1.69.56S102.47,173.24,102.54,173.24Z"/><path class="cls-7" d="M101.34,173a4,4,0,0,0,3.28-1.31c0-.05.17.06.13.1a3.58,3.58,0,0,1-3.34,1.3S101.28,173,101.34,173Z"/><path class="cls-7" d="M100.94,172.8a5.44,5.44,0,0,0,3.13-1.32s.19.08.16.13c-.63.92-2.18,1.21-3.2,1.31C101,172.92,100.89,172.81,100.94,172.8Z"/><path class="cls-7" d="M100.33,172.49a5.63,5.63,0,0,0,3.2-1.41c0-.05.18.07.15.11-.66.95-2.19,1.28-3.26,1.4C100.38,172.6,100.29,172.49,100.33,172.49Z"/><path class="cls-7" d="M98.88,172a5.41,5.41,0,0,0,3.69-1c.05,0,.2.08.15.13a4.49,4.49,0,0,1-3.78.94S98.83,172,98.88,172Z"/><path class="cls-7" d="M98.88,171.5c.93.06,2.61-.26,3.07-1.22,0,0,.14.06.13.1-.1.5-.66.73-1.08.92a4.11,4.11,0,0,1-2,.3S98.82,171.49,98.88,171.5Z"/><path class="cls-7" d="M98.25,171.05a4.31,4.31,0,0,0,2.73-.63s.2.11.15.14a3.72,3.72,0,0,1-2.83.59S98.17,171,98.25,171.05Z"/><path class="cls-7" d="M98.17,170.63a5.12,5.12,0,0,0,2.23-.51s.23.12.18.17a2,2,0,0,1-1,.33,3.89,3.89,0,0,1-1.36.13S98.1,170.63,98.17,170.63Z"/><path class="cls-3" d="M102.91,168.43c8.34,3.61,17,2.37,25.44-.12,0,0,.13.08.09.1-8.26,2.78-17.29,3.91-25.48.26C102.84,168.62,102.67,168.32,102.91,168.43Z"/><path class="cls-9" d="M97,167.9c5.49,3.56,14.06,3.69,20.39,3.6,6-.08,12.3-4.17,17.84-1.34.07,0,.29.27.09.24-3.91-.64-8.56,1.69-12.46,2.32a50.72,50.72,0,0,1-10,.62,29.14,29.14,0,0,1-15.91-5.17C96.73,168,96.65,167.7,97,167.9Z"/><path class="cls-10" d="M114.87,172.72a38.34,38.34,0,0,0,9.76-1.57c2.07-.57,4.41-1.3,6.57-1.07a10.17,10.17,0,0,1,1.46.28c-3.27.33-6.78,1.86-9.84,2.36a50.72,50.72,0,0,1-10,.62,29.6,29.6,0,0,1-15.12-4.64A36.59,36.59,0,0,0,114.87,172.72Z"/></g><g id="Layer_2" data-name="Layer 2"><ellipse class="cls-29" cx="153" cy="115.01" rx="32.92" ry="16.37"/><path d="M150.46,117.48c2.3-2.29,3.6-3.67,3.6-4.91a1.35,1.35,0,0,0-1.45-1.49A2.24,2.24,0,0,0,151,112l-.57-.55a3,3,0,0,1,2.32-1.17,2.12,2.12,0,0,1,2.29,2.25c0,1.44-1.31,2.87-3.12,4.76.42,0,.89-.06,1.29-.06h2.21v.85h-4.94Z"/><path d="M150.92,156.3h1.76v-5.63h-1.4V150a4.63,4.63,0,0,0,1.63-.56h.75v6.82h1.58v.83h-4.32Z"/><path class="cls-30" d="M181.92,259.7c0,6.43-12.95,15.64-28.92,15.64s-28.91-9.21-28.91-15.64S137,252.07,153,252.07,181.92,253.27,181.92,259.7Z"/><path d="M154.32,260h-3.81v-.85h4.93v.61c-1.81,2.31-2.19,4.06-2.32,7h-1A11.25,11.25,0,0,1,154.32,260Z"/><path class="cls-31" d="M192.18,277.52c0,12.27-17.54,29.86-39.18,29.86s-39.18-17.59-39.18-29.86S131.36,277,153,277,192.18,265.24,192.18,277.52Z"/><path d="M150.47,292.7a2.42,2.42,0,0,1,1.44-2.05v0a2.18,2.18,0,0,1-1.06-1.77,2.17,2.17,0,0,1,4.32.07,2.5,2.5,0,0,1-1,1.85v.05a2.09,2.09,0,0,1-1.14,4A2.27,2.27,0,0,1,150.47,292.7Zm4,0c0-1-1-1.35-2.07-1.79a2.05,2.05,0,0,0-1.07,1.67,1.51,1.51,0,0,0,1.64,1.45A1.35,1.35,0,0,0,154.5,292.74Zm-.18-3.78A1.27,1.27,0,0,0,153,287.6a1.18,1.18,0,0,0-1.24,1.23c0,.91.85,1.3,1.77,1.66A2.08,2.08,0,0,0,154.32,289Z"/><circle class="cls-32" cx="88.67" cy="163.27" r="14.17"/><path d="M86,166.38l.49-.64a2.6,2.6,0,0,0,2,.9,1.42,1.42,0,0,0,1.59-1.4c0-.91-.62-1.52-2.44-1.52V163c1.62,0,2.17-.62,2.17-1.42a1.18,1.18,0,0,0-1.32-1.21,2.31,2.31,0,0,0-1.63.77l-.53-.62a3.16,3.16,0,0,1,2.2-1c1.33,0,2.29.71,2.29,1.95a1.87,1.87,0,0,1-1.4,1.81v.05A2,2,0,0,1,91,165.28a2.27,2.27,0,0,1-2.52,2.18A3.19,3.19,0,0,1,86,166.38Z"/><circle class="cls-32" cx="220.02" cy="163.27" r="14.17"/><path d="M217.31,166.38l.5-.64a2.58,2.58,0,0,0,1.95.9,1.42,1.42,0,0,0,1.59-1.4c0-.91-.63-1.52-2.44-1.52V163c1.62,0,2.17-.62,2.17-1.42a1.18,1.18,0,0,0-1.32-1.21,2.33,2.33,0,0,0-1.64.77l-.53-.62a3.19,3.19,0,0,1,2.2-1c1.33,0,2.29.71,2.29,1.95a1.87,1.87,0,0,1-1.39,1.81v.05a2,2,0,0,1,1.66,1.95,2.27,2.27,0,0,1-2.53,2.18A3.22,3.22,0,0,1,217.31,166.38Z"/><path class="cls-33" d="M239.19,294.19l.38-.44a1.18,1.18,0,0,0,.9.43c.78,0,1.43-.62,1.43-2.43,0-1.34-.43-2.06-1.21-2.06-.53,0-.94.47-.94,1.19s.33,1.15,1,1.15a1.47,1.47,0,0,0,1.16-.77l0,.55a1.74,1.74,0,0,1-1.31.75,1.47,1.47,0,0,1-1.55-1.68,1.64,1.64,0,0,1,1.61-1.74c1.07,0,1.87.87,1.87,2.61,0,2.18-1,3-2.07,3A1.68,1.68,0,0,1,239.19,294.19Z"/><path class="cls-33" d="M245,292.26H247v.54H245Z"/><path class="cls-33" d="M249.4,291.85c0-1.78,1-2.87,2.38-2.87s2.39,1.09,2.39,2.87-1,2.91-2.39,2.91S249.4,293.64,249.4,291.85Zm4,0c0-1.39-.66-2.24-1.66-2.24s-1.65.85-1.65,2.24.66,2.29,1.65,2.29S253.44,293.24,253.44,291.85Z"/><path class="cls-33" d="M255.43,293.38V291.1h-.62v-.53l.65,0,.08-1.16h.59v1.16h1.12v.57h-1.12v2.3c0,.5.16.8.64.8a1.36,1.36,0,0,0,.47-.12l.13.53a2.45,2.45,0,0,1-.77.15C255.73,294.76,255.43,294.21,255.43,293.38Z"/><path class="cls-33" d="M258.18,288.61h.7v1.65l0,.85a2,2,0,0,1,1.38-.68c.87,0,1.26.56,1.26,1.62v2.61h-.7v-2.53c0-.76-.24-1.09-.78-1.09a1.55,1.55,0,0,0-1.13.63v3h-.7Z"/><path class="cls-33" d="M262.5,292.6a2,2,0,0,1,1.86-2.17c1.05,0,1.64.76,1.64,1.94a2.21,2.21,0,0,1,0,.39h-2.78a1.38,1.38,0,0,0,1.37,1.45,1.83,1.83,0,0,0,1-.33l.25.46a2.47,2.47,0,0,1-1.36.42A2,2,0,0,1,262.5,292.6Zm2.89-.34c0-.82-.38-1.27-1-1.27a1.27,1.27,0,0,0-1.19,1.27Z"/><path class="cls-33" d="M267,290.53h.58l.06.75h0a1.43,1.43,0,0,1,1.18-.85,1,1,0,0,1,.44.08l-.13.62a1.05,1.05,0,0,0-.4-.07c-.35,0-.77.25-1,.95v2.65H267Z"/><path d="M124.66,217.27l.49-.64a2.62,2.62,0,0,0,1.93.87,1.64,1.64,0,0,0,1.67-1.74,1.53,1.53,0,0,0-1.62-1.68,2.08,2.08,0,0,0-1.31.47l-.53-.34.26-3.68h3.82v.85h-3l-.2,2.27a2.36,2.36,0,0,1,3.54,2.08,2.5,2.5,0,0,1-2.57,2.59A3.35,3.35,0,0,1,124.66,217.27Z"/><path class="cls-34" d="M181,197c-9.33,0-9.59,7.09-14.17,14.18-1.39,2.15-9.68,4.57-13.79,4.57s-12.51-2.42-13.79-4.57C135,203.88,134.42,197,125.09,197c-7.83,0-11.17,6.35-11.17,14.18,0,7.19,6.41,18.52,14.32,17.39,7.44-1.06,3.7-1.92,24.81-1.92s17.37.86,24.81,1.92c7.91,1.13,14.32-10.2,14.32-17.39C192.18,203.3,188.84,197,181,197Z"/><path d="M112.56,231c0-3.07,1.39-4.26,2.92-4.26a2.43,2.43,0,0,1,1.84.81l-.55.62a1.67,1.67,0,0,0-1.26-.6c-1.09,0-2,.87-2,3.43,0,1.88.61,2.9,1.71,2.9.75,0,1.33-.66,1.33-1.67s-.47-1.63-1.41-1.63a2.09,2.09,0,0,0-1.65,1.09l0-.78a2.42,2.42,0,0,1,1.84-1.05,2.07,2.07,0,0,1,2.18,2.37,2.31,2.31,0,0,1-2.26,2.45C113.69,234.7,112.56,233.48,112.56,231Z"/><circle class="cls-35" cx="115.58" cy="230.51" r="13.09" transform="matrix(0.16, -0.99, 0.99, 0.16, -130.46, 307.67)"/><circle class="cls-35" cx="193.1" cy="230.51" r="13.09" transform="matrix(0.16, -0.99, 0.99, 0.16, -65.36, 384.19)"/><path d="M191.08,231c0-3.07,1.39-4.26,2.92-4.26a2.43,2.43,0,0,1,1.84.81l-.55.62a1.67,1.67,0,0,0-1.25-.6c-1.1,0-2,.87-2,3.43,0,1.88.61,2.9,1.71,2.9.75,0,1.33-.66,1.33-1.67s-.47-1.63-1.41-1.63a2.09,2.09,0,0,0-1.65,1.09l0-.78a2.42,2.42,0,0,1,1.84-1.05,2.07,2.07,0,0,1,2.18,2.37,2.31,2.31,0,0,1-2.26,2.45C192.21,234.7,191.08,233.48,191.08,231Z"/><path d="M177.28,217.27l.49-.64a2.61,2.61,0,0,0,1.93.87,1.64,1.64,0,0,0,1.67-1.74,1.53,1.53,0,0,0-1.62-1.68,2.08,2.08,0,0,0-1.31.47l-.53-.34.25-3.68H182v.85h-3l-.2,2.27a2.36,2.36,0,0,1,3.54,2.08,2.5,2.5,0,0,1-2.57,2.59A3.34,3.34,0,0,1,177.28,217.27Z"/><circle class="cls-32" cx="90.6" cy="212.47" r="14.17" transform="translate(-138 245.5) rotate(-75.13)"/><path d="M91.23,211.4c0-.41,0-1.07,0-1.47h0c-.2.37-.41.7-.63,1.08l-1.78,2.61H93.2v.79H87.79v-.65l3.28-4.89h1.09v7.65h-.93Z"/><path class="cls-36" d="M176.4,143c0-6.42-10.47-11.63-23.4-11.63s-23.4,5.21-23.4,11.63c0,2.68,1.82,5.15,4.89,7.11a10.09,10.09,0,0,1,4.23,11,14.2,14.2,0,0,0,13.09,17.54,14.17,14.17,0,0,0,14.85-14.16,13.93,13.93,0,0,0-.36-3.19,9.94,9.94,0,0,1,4.61-10.8C174.34,148.43,176.4,145.81,176.4,143Z"/></g></g></svg>