<svg id="Layer_1" data-name="Layer 1" xmlns="http://www.w3.org/2000/svg" viewBox="0 0 512 512"><defs><style>.cls-1{fill:#fff;}</style></defs><path class="cls-1" d="M208,32A32,32,0,0,1,240,0h32a32,32,0,0,1,32,32V172.9l122-70.4a32,32,0,0,1,43.7,11.7l16,27.7A32,32,0,0,1,474,185.6L352,256l122,70.4a32,32,0,0,1,11.7,43.7l-16,27.7A31.92,31.92,0,0,1,426,409.5L304,339.1V480a32,32,0,0,1-32,32H240a32,32,0,0,1-32-32V339.1L86,409.6a32,32,0,0,1-43.7-11.7l-16-27.7A32,32,0,0,1,38,326.5L160,256,38,185.6a32,32,0,0,1-11.7-43.7l16-27.7A32,32,0,0,1,86,102.4l122,70.4Z"/></svg>