<?xml version="1.0" encoding="utf-8"?>
<!-- Generator: Adobe Illustrator 25.3.1, SVG Export Plug-In . SVG Version: 6.00 Build 0)  -->
<svg version="1.1" id="Layer_1" xmlns="http://www.w3.org/2000/svg" xmlns:xlink="http://www.w3.org/1999/xlink" x="0px" y="0px"
	 viewBox="0 0 512 512" style="enable-background:new 0 0 512 512;" xml:space="preserve">
<style type="text/css">
	.st0{fill:#4B66AC;}
</style>
<path class="st0" d="M208,32c0-17.7,14.3-32,32-32h32c17.7,0,32,14.3,32,32v140.9l122-70.4c15.3-8.8,34.9-3.6,43.7,11.7l16,27.7
	c8.8,15.3,3.6,34.9-11.7,43.7L352,256l122,70.4c15.3,8.8,20.5,28.4,11.7,43.7l-16,27.7c-8.8,15.3-28.4,20.6-43.7,11.7l-122-70.4V480
	c0,17.7-14.3,32-32,32h-32c-17.7,0-32-14.3-32-32V339.1L86,409.6c-15.3,8.8-34.9,3.6-43.7-11.7l-16-27.7
	c-8.8-15.3-3.6-34.9,11.7-43.7L160,256L38,185.6c-15.3-8.8-20.5-28.4-11.7-43.7l16-27.7c8.8-15.4,28.4-20.6,43.7-11.8l122,70.4V32z"
	/>
</svg>
