<svg xmlns="http://www.w3.org/2000/svg" viewBox="0 0 201.75 77.35"><defs><style>.cls-1{fill:#231f20;}.cls-2{fill:none;stroke:#ff1f20;stroke-miterlimit:10;stroke-width:28.35px;}</style></defs><g id="Layer_1" data-name="Layer 1"><path class="cls-1" d="M26.32,0V74.15H58.87v-.94H27.26V1H174.49V73.21H142.92v.94h32.51V0Z"/><path class="cls-1" d="M65.21,71A3,3,0,0,0,64,70.8a2.68,2.68,0,0,0-1.3.3,1,1,0,0,0-.55.91.84.84,0,0,0,.14.47,1.11,1.11,0,0,0,.44.33,3.19,3.19,0,0,0,.59.21,6.18,6.18,0,0,0,.74.14l.85.15a6.66,6.66,0,0,1,.74.23,2,2,0,0,1,.65.36,1.6,1.6,0,0,1,.4.55,2.08,2.08,0,0,1-.09,1.79,1.82,1.82,0,0,1-.69.66,4,4,0,0,1-.91.34,4.76,4.76,0,0,1-1,.11,3.91,3.91,0,0,1-1.8-.4,2.42,2.42,0,0,1-1.17-1.23l.72-.42a2.15,2.15,0,0,0,.95.91,2.79,2.79,0,0,0,1.31.32,3.66,3.66,0,0,0,.68-.06,2.5,2.5,0,0,0,.64-.2,1.15,1.15,0,0,0,.49-.41,1,1,0,0,0,.19-.63.94.94,0,0,0-.16-.55,1.05,1.05,0,0,0-.47-.37,3.35,3.35,0,0,0-.63-.22,5.42,5.42,0,0,0-.78-.15l-.81-.15a5.57,5.57,0,0,1-.71-.22,2.32,2.32,0,0,1-.61-.34A1.59,1.59,0,0,1,61.33,72a1.69,1.69,0,0,1,.23-.93,1.76,1.76,0,0,1,.66-.61,3.33,3.33,0,0,1,.86-.33A4.24,4.24,0,0,1,64,70a4.12,4.12,0,0,1,1.57.27,2.32,2.32,0,0,1,1.1,1L66,71.7A1.78,1.78,0,0,0,65.21,71Z"/><path class="cls-1" d="M67.83,71v-.79H73.5V71H71.1v6.26h-.87V71Z"/><path class="cls-1" d="M80.58,70.17V74.4a2.82,2.82,0,0,1-.82,2.17,2.89,2.89,0,0,1-2,.77,3,3,0,0,1-2-.77,2.78,2.78,0,0,1-.84-2.17V70.17h.87V74.4A2.08,2.08,0,0,0,76.28,76a2,2,0,0,0,1.44.56A1.94,1.94,0,0,0,79.15,76a2.17,2.17,0,0,0,.56-1.57V70.16h.87Z"/><path class="cls-1" d="M83.29,70.16l4.31,5.4v-5.4h.87v7h-.6l-4.33-5.38v5.38h-.87v-7Z"/><path class="cls-1" d="M91.26,70.16l4.32,5.4v-5.4h.86v7h-.6l-4.33-5.38v5.38h-.87v-7Z"/><path class="cls-1" d="M98.61,70.16h.88v7h-.88Z"/><path class="cls-1" d="M102.28,70.16l4.32,5.4v-5.4h.86v7h-.6l-4.33-5.38v5.38h-.87v-7Z"/><path class="cls-1" d="M115,71.66a2.91,2.91,0,0,0-1-.61,3.16,3.16,0,0,0-1.11-.21,2.61,2.61,0,0,0-2.06.84,3,3,0,0,0-.74,2.07,2.8,2.8,0,0,0,.73,2,2.65,2.65,0,0,0,2.09.8,2.82,2.82,0,0,0,1.92-.71V74.13h-2.2v-.78h3v2.79a3.57,3.57,0,0,1-2.72,1.2,4.39,4.39,0,0,1-1.63-.29,3,3,0,0,1-1.16-.8,3.41,3.41,0,0,1-.66-1.14,4.09,4.09,0,0,1-.23-1.36,3.73,3.73,0,0,1,1-2.68,3.8,3.8,0,0,1,5.26,0Z"/><path class="cls-1" d="M119.23,70.19v0h1.06l2.12,3.34,2.16-3.34h1.07v0l-2.78,4.16v2.86H122V74.35Z"/><path class="cls-1" d="M132.36,71.13a3.78,3.78,0,0,1,.94,2.58,4,4,0,0,1-.23,1.34,3.76,3.76,0,0,1-.66,1.17,2.89,2.89,0,0,1-1.12.82,4.13,4.13,0,0,1-3.14,0,3,3,0,0,1-1.13-.82,3.89,3.89,0,0,1-.65-1.16,4.07,4.07,0,0,1-.23-1.35,3.7,3.7,0,0,1,1-2.62,3.42,3.42,0,0,1,2.61-1A3.33,3.33,0,0,1,132.36,71.13Zm-.21,1.2a2.47,2.47,0,0,0-.91-1,2.66,2.66,0,0,0-1.51-.43,2.5,2.5,0,0,0-2,.82,3.23,3.23,0,0,0,0,4,2.5,2.5,0,0,0,2,.82,2.45,2.45,0,0,0,2-.83,3,3,0,0,0,.69-2A3.15,3.15,0,0,0,132.15,72.33Z"/><path class="cls-1" d="M140.69,70.17V74.4a2.82,2.82,0,0,1-.82,2.17,2.86,2.86,0,0,1-2,.77,2.93,2.93,0,0,1-2-.77A2.78,2.78,0,0,1,135,74.4V70.17h.86V74.4A2.09,2.09,0,0,0,136.4,76a2.09,2.09,0,0,0,2.86,0,2.13,2.13,0,0,0,.57-1.57V70.16h.86Z"/><path class="cls-1" d="M94.59,26.6a10,10,0,0,1,.4,2.32,7.68,7.68,0,0,1-.58,2.8c-1.92,4.86-6.29,9.63-11.14,11.55a8.9,8.9,0,0,1-3.08.67c-2.09,0-3.34-1.21-3.34-3.12A7.84,7.84,0,0,1,78.1,37c3.07-5.26,9.4-8.87,14.79-10.74-.35-.89-9.27.05-10.11-2.9a2.26,2.26,0,0,1-.09-.58,4.43,4.43,0,0,1,.66-2.09A261.65,261.65,0,0,1,46,26.46c-7.14.58-14.27.9-20.69.9-8.91,0-16.4-.63-20.46-2.23C2.9,24.41.89,23.21.18,21.87A1.19,1.19,0,0,1,0,21.2a1.45,1.45,0,0,1,.58-1.11,1,1,0,0,1,.62-.22,1.68,1.68,0,0,1,1.21.67c.67.75.93,1.65,1.69,2.49a7.88,7.88,0,0,0,3.57,2,87.16,87.16,0,0,0,18.67,1.65c5.62,0,12.17-.31,19.53-1,12-1.11,26.43-2.81,38.11-6,2.32-3.12,7.31-6.46,9.63-6.46.09,0,.22.05.31.05a3.29,3.29,0,0,1,2.32,1.87.73.73,0,0,1,0,.31c0,.71-.53,1.83-1.25,1.83-.4,0-.8-.27-1.2-1.07a.87.87,0,0,0-.89-.45c-2.45,0-8.69,4.41-8.69,6.87v.09c.09,1.07,2.31,1.42,4.54,1.6s4.55.27,5.26,1.52a99.07,99.07,0,0,1,13.46-3.08c.18,0,.32,0,.45,0,.4,0,.62.08.62.17s-.17.18-.66.27c-2.77.4-10.43,2.1-13.24,3.3C94.59,26.46,94.59,26.51,94.59,26.6ZM94,28.74a3.37,3.37,0,0,0-.44-1.7c-4.77,1.47-12.08,5.75-14.76,10.26a7.18,7.18,0,0,0-1.2,3.47c0,1.47,1,2.23,2.5,2.23a7.56,7.56,0,0,0,2.58-.53c4.86-1.88,9.67-7.4,11.15-12.48A4.18,4.18,0,0,0,94,28.74Z"/><path class="cls-1" d="M201.61,23.17a1.34,1.34,0,0,1,.14.58,1.12,1.12,0,0,1-1.07,1.2,2,2,0,0,1-1.34-.76c-1.74-1.92-4.81-3.16-7.22-3.7A90.13,90.13,0,0,0,173,18.71c-19.39,0-42.92,4.37-58.61,13-.09.18-.23.36-.36.58-1.47,2.81-2.81,5.62-4.32,8.38-3.35,6.11-7.72,13.24-12.93,18.1a7.93,7.93,0,0,1-5,2.23,4.53,4.53,0,0,1-.76,0,2,2,0,0,1-2-2.32v-.09c0-4,3.07-8,5.57-11.15,5-6.15,10.7-10.29,17-14.79a3.29,3.29,0,0,0,1-1.16c1.11-2.05,2.67-4.68,3.65-6.69l-.09-.09a8.83,8.83,0,0,0-.71.63c-1.65,1.47-6.42,5.52-8.38,6.37a2.56,2.56,0,0,1-.94.18c-.89,0-1.51-.63-1.51-1.74v-.18c.27-4.37,4.72-10.07,6.24-10.07a.42.42,0,0,1,.4.18.88.88,0,0,1,.18.57,3.55,3.55,0,0,1-.89,1.7,30,30,0,0,0-3.7,6.69,2.58,2.58,0,0,0-.31,1,2.09,2.09,0,0,0,.08.49c.49-.27,1-.49,1.48-.76,4.36-2.67,6.55-5,10.2-8.29.18-.13.32-.31.45-.35a1.18,1.18,0,0,1,.36-.09c.31,0,.4.17.4.44v.18c0,.36-3.52,6.91-4,7.85-.27.53-.4.89-.54,1.15,14.67-8.2,40.66-12.79,60.31-12.79a81.09,81.09,0,0,1,15.83,1.34A47.68,47.68,0,0,1,197.56,21C198.67,21.43,201,22,201.61,23.17Zm-90.3,10.74c-1.74,1.11-4,2.9-5.62,4.19-5.39,4.14-10.92,9.54-14.26,15.51A9.37,9.37,0,0,0,90,58.34c0,1.24.4,1.64,1.61,1.69a6.47,6.47,0,0,0,3.83-1.56,45.82,45.82,0,0,0,8.6-10.83C106,44.38,110,37.25,111.31,33.91Z"/></g><g id="Layer_2" data-name="Layer 2"><rect class="cls-2" x="-733.6" y="-76.64" width="2871.89" height="1821.3"/></g></svg>