<svg id="Layer_1" data-name="Layer 1" xmlns="http://www.w3.org/2000/svg" viewBox="0 0 735.21 281.71"><defs><style>.cls-1{fill:#fcfcfd;}</style></defs><path class="cls-1" d="M95.9,0V270.23H244.52v-3.44H99.35V3.45H635.86V266.79h-145v3.44H639.31V0Z"/><path class="cls-1" d="M344.7,96.93c0,1.14,1.46,3.73,1.46,8.45a28.62,28.62,0,0,1-2.11,10.23c-7,17.71-22.91,35.09-40.61,42.07a31.73,31.73,0,0,1-11.21,2.44c-7.64,0-12.18-4.39-12.18-11.37,0-3.9,1.46-8.77,4.54-14,11.21-19.17,34.28-32.33,53.93-39.15-1.29-3.25-33.78.16-36.87-10.56a9.63,9.63,0,0,1-.32-2.11,16.16,16.16,0,0,1,2.43-7.64c-29.4,7.15-82,16.74-136.28,21.12-26,2.11-52,3.25-75.38,3.25-32.48,0-59.77-2.27-74.56-8.12-7-2.6-14.29-7-16.89-11.86A4.55,4.55,0,0,1,0,77.27a5.33,5.33,0,0,1,2.11-4.06,3.51,3.51,0,0,1,2.28-.81c1.3,0,2.76.65,4.38,2.44,2.44,2.76,3.41,6,6.17,9.09a28.38,28.38,0,0,0,13,7.31c15.59,3.58,38.34,6,68.06,6,20.47,0,44.35-1.13,71.15-3.73,43.7-4.06,96.33-10.24,138.89-21.93C314.48,60.22,332.68,48,341.12,48c.33,0,.82.17,1.14.17,3.41.65,7.47,3.73,8.45,6.82a2.44,2.44,0,0,1,.16,1.14c0,2.6-1.95,6.66-4.55,6.66-1.46,0-2.92-1-4.38-3.9-.49-1.14-1.63-1.63-3.25-1.63-8.94,0-31.68,16.08-31.68,25v.32c.33,3.9,8.45,5.2,16.57,5.85,8.28.81,16.57,1,19.17,5.52,10.88-3.89,37.52-9.58,49.06-11.2.64,0,1.13-.17,1.62-.17,1.46,0,2.27.33,2.27.65s-.65.65-2.43,1c-10.07,1.46-38,7.63-48.25,12C344.7,96.44,344.7,96.6,344.7,96.93Zm-2.28,7.8a12.09,12.09,0,0,0-1.62-6.18c-17.38,5.36-44,21-53.77,37.36-3.09,5.2-4.38,9.43-4.38,12.67,0,5.36,3.57,8.13,9.09,8.13a27.11,27.11,0,0,0,9.42-2c17.71-6.83,35.25-27,40.61-45.49A14.54,14.54,0,0,0,342.42,104.73Z"/><path class="cls-1" d="M734.72,84.42a4.92,4.92,0,0,1,.49,2.11c0,2.28-1.46,4.39-3.9,4.39-1.3,0-3.08-.81-4.87-2.76-6.34-7-17.54-11.54-26.32-13.49-19.65-4.38-43.53-6.49-69.52-6.49-70.66,0-156.43,15.92-213.61,47.43-.32.65-.81,1.3-1.3,2.11-5.36,10.23-10.23,20.47-15.75,30.54-12.19,22.25-28.11,48.24-47.11,66-4.71,4.39-11.7,8.12-18.2,8.12a15.14,15.14,0,0,1-2.76-.16c-5.19-.81-7.14-3.25-7.14-8.45v-.32c0-14.46,11.2-29.24,20.3-40.61,18.19-22.42,39-37.53,61.89-53.93a11.75,11.75,0,0,0,3.74-4.23c4.06-7.47,9.74-17,13.32-24.36l-.33-.33c-1,.82-1.78,1.47-2.6,2.28-6,5.36-23.39,20.14-30.54,23.23a9.12,9.12,0,0,1-3.41.65c-3.25,0-5.52-2.28-5.52-6.34v-.65c1-15.92,17.22-36.71,22.74-36.71a1.57,1.57,0,0,1,1.46.65,3.25,3.25,0,0,1,.65,2.11c0,2-1.62,3.9-3.25,6.17A112.07,112.07,0,0,0,389.7,105.7a10,10,0,0,0-1.13,3.74,7,7,0,0,0,.32,1.78c1.79-1,3.57-1.78,5.36-2.76,15.92-9.74,23.88-18,37.2-30.21.65-.49,1.14-1.14,1.62-1.3a5.25,5.25,0,0,1,1.3-.33c1.14,0,1.46.65,1.46,1.63v.65c-.16,1.3-12.83,25.18-14.45,28.59-1,2-1.46,3.25-1.95,4.22,53.44-29.89,148.14-46.62,219.78-46.62,22.09,0,41.91,1.62,57.67,4.87a172.86,172.86,0,0,1,23.06,6.5C724,78.09,732.61,80.2,734.72,84.42Zm-329.1,39.15c-6.33,4.06-14.62,10.56-20.47,15.27-19.65,15.1-39.79,34.76-52,56.53a34.26,34.26,0,0,0-5,17.22c0,4.54,1.46,6,5.85,6.17,4.71,0,10.39-2.6,14-5.69,12.84-11.53,22.58-24.85,31.36-39.47C386.13,161.74,400.75,135.75,405.62,123.57Z"/><path class="cls-1" d="M287.55,268.89c-1.46,1.41-3.68,2.12-6.68,2.12H276v10.7H272.6V256.08h8.27q4.35,0,6.61,2.09a7.57,7.57,0,0,1,.07,10.72ZM285,267a4.43,4.43,0,0,0,1.33-3.46q0-4.74-5.45-4.74H276v9.41h4.92A5.93,5.93,0,0,0,285,267Z"/><path class="cls-1" d="M313.76,276H302.58l-2.06,5.7H297l9.26-25.48h3.87l9.23,25.48h-3.53Zm-1-2.72-4.63-13-4.64,13Z"/><path class="cls-1" d="M343.84,281.71l-6.11-10.48h-4v10.48h-3.35V256.08h8.28a11,11,0,0,1,4.91,1,6.9,6.9,0,0,1,3,2.69,7.38,7.38,0,0,1,1,3.86,7.54,7.54,0,0,1-1.53,4.67,7.44,7.44,0,0,1-4.58,2.68l6.44,10.74Zm-10.15-13.16h4.93a5.58,5.58,0,0,0,4.08-1.35,4.79,4.79,0,0,0,1.36-3.58,4.6,4.6,0,0,0-1.34-3.53,5.82,5.82,0,0,0-4.1-1.25h-4.93Z"/><path class="cls-1" d="M375,256.08v2.72h-7v22.91h-3.35V258.8h-7v-2.72Z"/><path class="cls-1" d="M406.16,281.71h-3.35L389.35,261.3v20.41H386V256h3.34l13.46,20.38V256h3.35Z"/><path class="cls-1" d="M422.78,258.8v8.57h9.34v2.76h-9.34V279h10.44v2.76H419.43V256h13.79v2.76Z"/><path class="cls-1" d="M458.6,281.71l-6.1-10.48h-4.05v10.48h-3.34V256.08h8.27a11,11,0,0,1,4.91,1,6.87,6.87,0,0,1,3,2.69,7.47,7.47,0,0,1,1,3.86,7.6,7.6,0,0,1-1.52,4.67,7.47,7.47,0,0,1-4.58,2.68l6.43,10.74Zm-10.15-13.16h4.93a5.55,5.55,0,0,0,4.08-1.35,4.79,4.79,0,0,0,1.36-3.58,4.56,4.56,0,0,0-1.34-3.53,5.8,5.8,0,0,0-4.1-1.25h-4.93Z"/></svg>