<?xml version="1.0" encoding="utf-8"?>
<!-- Generator: Adobe Illustrator 25.3.1, SVG Export Plug-In . SVG Version: 6.00 Build 0)  -->
<svg version="1.1" id="Layer_1" xmlns="http://www.w3.org/2000/svg" xmlns:xlink="http://www.w3.org/1999/xlink" x="0px" y="0px"
	 viewBox="0 0 1345.8 515.6" style="enable-background:new 0 0 1345.8 515.6;" xml:space="preserve">
<style type="text/css">
	.st0{fill:#FFFFFF;}
</style>
<path class="st0" d="M176.8,0.8v493.5h206.6V488H183.1V7.1h979.7V488h-200v6.3h206.3V0.8H176.8z"/>
<path class="st0" d="M631.2,177.9c0,2.1,2.7,6.8,2.7,15.4c-0.1,6.4-1.4,12.8-3.8,18.7c-12.8,32.3-41.8,64.1-74.2,76.8
	c-7.7,3-14.5,4.5-20.5,4.5c-13.9,0-22.2-8-22.2-20.8c0-7.1,2.7-16,8.3-25.5c20.5-35,62.6-59,98.5-71.5c-2.4-5.9-61.7,0.3-67.3-19.3
	c-0.3-1.3-0.5-2.5-0.6-3.9c0-4.4,1.8-9.2,4.4-13.9c-53.7,13-149.8,30.6-248.9,38.6c-47.5,3.9-94.9,5.9-137.6,5.9
	c-59.3,0-109.2-4.1-136.2-14.8C21,163.3,7.6,155.3,2.9,146.4c-0.8-1.3-1.2-2.9-1.2-4.4c0.1-2.9,1.5-5.7,3.9-7.4
	c1.2-1,2.6-1.5,4.2-1.5c2.4,0,5,1.2,8,4.4c4.5,5,6.2,11,11.3,16.6c5.6,5.9,14.5,11,23.7,13.4c28.5,6.5,70,11,124.3,11
	c37.4,0,81-2.1,129.9-6.8c79.8-7.4,175.9-18.7,253.6-40.1c15.4-20.8,48.7-43,64.1-43c0.6,0,1.5,0.3,2.1,0.3
	c6.2,1.2,13.6,6.8,15.4,12.5c0.3,0.7,0.4,1.4,0.3,2.1c0,4.8-3.6,12.2-8.3,12.2c-2.7,0-5.3-1.8-8-7.1c-0.9-2.1-3-3-5.9-3
	c-16.3,0-57.8,29.4-57.8,45.7v0.6c0.6,7.1,15.4,9.5,30.2,10.7c15.1,1.5,30.3,1.8,35,10.1c19.9-7.1,68.5-17.5,89.6-20.5
	c1.2,0,2.1-0.3,3-0.3c2.7,0,4.2,0.6,4.2,1.2s-1.2,1.2-4.5,1.8c-18.4,2.7-69.4,13.9-88.1,21.9C631.2,177,631.2,177.3,631.2,177.9z
	 M627,192.1c0-4-1-7.8-3-11.3c-31.7,9.8-80.4,38.3-98.2,68.2c-5.6,9.5-8,17.2-8,23.1c0,9.8,6.5,14.8,16.6,14.8
	c5.9-0.2,11.7-1.4,17.2-3.6c32.4-12.4,64.4-49.2,74.2-83.1C626.7,197.7,627,194.9,627,192.1z"/>
<path class="st0" d="M1343.4,155c0.6,1.2,0.9,2.5,0.9,3.9c0,4.2-2.7,8-7.1,8c-2.4,0-5.6-1.5-8.9-5c-11.6-12.8-32-21.1-48.1-24.6
	c-35.9-8-79.5-11.9-127-11.9c-129,0-285.7,29.1-390.1,86.6c-0.6,1.2-1.5,2.4-2.4,3.9c-9.8,18.7-18.6,37.4-28.8,55.7
	c-22.2,40.6-51.3,88.1-86,120.4c-8.6,8-21.3,14.8-33.2,14.8c-1.7,0.1-3.3,0-5-0.3c-9.5-1.5-13-5.9-13-15.4v-0.6
	c0-26.4,20.5-53.4,37.1-74.2c33.2-40.9,71.2-68.5,113-98.5c2.9-2,5.2-4.6,6.8-7.7c7.4-13.6,17.8-31.1,24.3-44.5l-0.6-0.6
	c-1.8,1.5-3.3,2.7-4.8,4.2c-11,9.8-42.7,36.8-55.8,42.4c-2,0.8-4.1,1.2-6.2,1.2c-5.9,0-10.1-4.1-10.1-11.6v-1.2
	c1.8-29.1,31.4-67,41.5-67c1-0.1,2.1,0.3,2.7,1.2c0.8,1.1,1.2,2.5,1.2,3.9c0,3.6-3,7.1-5.9,11.3c-10,13.8-18.3,28.7-24.6,44.5
	c-0.9,2.1-2.1,4.4-2.1,6.8c0,1.1,0.2,2.2,0.6,3.3c3.3-1.8,6.5-3.3,9.8-5c29.1-17.8,43.6-32.9,67.9-55.2c1.2-0.9,2.1-2.1,3-2.4
	c0.8-0.3,1.6-0.5,2.4-0.6c2.1,0,2.7,1.2,2.7,3v1.2c-0.3,2.4-23.4,46-26.4,52.2c-1.8,3.6-2.7,5.9-3.6,7.7
	c97.6-54.6,270.5-85.1,401.4-85.1c40.3,0,76.5,3,105.3,8.9c14.3,3,28.4,6.9,42.1,11.9C1323.8,143.4,1339.6,147.3,1343.4,155z
	 M742.4,226.5c-11.6,7.4-26.7,19.3-37.4,27.9c-35.9,27.6-72.7,63.5-94.9,103.2c-5.6,9.8-9.2,20.2-9.2,31.4c0,8.3,2.7,11,10.7,11.3
	c8.6,0,19-4.8,25.5-10.4c23.4-21.1,41.2-45.4,57.2-72.1C706.8,296.2,733.5,248.8,742.4,226.5L742.4,226.5z"/>
<path class="st0" d="M435.3,482.2c-0.6-5.7-4-8.1-9.8-8.1c-5.7,0-8.9,2.4-8.9,6.6c0,4.4,4.6,5.4,10.7,6.7
	c6.5,1.3,14.7,3.3,14.7,11.7c0,8.8-7.8,12-15.4,12c-9.4,0-16.4-4.4-16.4-13.9h5.1c0.2,7.2,5.4,9.7,11.8,9.7c4.6,0,9.8-1.6,9.8-7.2
	c0-5.1-5-6.1-11.5-7.6s-13.8-2.5-13.8-10.8c0-8.1,7.2-11.3,14.3-11.3c8.4,0,14.2,3.9,14.5,12.4L435.3,482.2z"/>
<path class="st0" d="M485.7,475.1h-13.3v35h-5.2v-35h-13.3v-4.5h31.8L485.7,475.1z"/>
<path class="st0" d="M505.6,470.6v24.9c0,7.6,3,11.1,10.7,11.1c8,0,10.7-3.8,10.7-11.1v-24.9h5.3v23.5c0,11.1-4,16.8-15.9,16.8
	c-11.4,0-15.9-5.3-15.9-16.3v-24.1H505.6z"/>
<path class="st0" d="M556.3,470.6l20.9,32.1v-32.1h5.1v39.5h-5.9l-20.8-31.7v31.7h-5v-39.5H556.3z"/>
<path class="st0" d="M606.6,470.6l20.9,32.1v-32.1h5v39.5h-5.9l-20.7-31.7v31.7h-5v-39.5H606.6z"/>
<path class="st0" d="M656.6,510.1h-5.2v-39.5h5.2V510.1z"/>
<path class="st0" d="M681,470.6l20.9,32.1v-32.1h5v39.5H701l-20.8-31.7v31.7h-5v-39.5H681z"/>
<path class="st0" d="M760,510.1h-3.3l-1.3-5c-3.3,4.1-7.3,5.9-12.8,5.9c-11.2,0-18.8-8.2-18.8-20.4c0-11.6,6.9-20.9,19.2-20.9
	c7.9,0,15.8,4.4,16.5,13h-5.1c-0.8-5.2-5.3-8.6-11.4-8.6c-8.6,0-14,6.3-14,16.4c0,9.9,5.4,16.2,13.9,16.2c8.3,0,12.2-5.7,12.4-13.3
	h-12.6v-4.3H760V510.1z"/>
<path class="st0" d="M821.8,493.9v16.2h-5.2v-16.2l-15.4-23.4h6.3l11.8,18.8l11.7-18.8h6L821.8,493.9z"/>
<path class="st0" d="M884.9,490c0,11.6-6.4,21-18.9,21s-18.9-9.6-18.9-21.1c0-12.3,7.4-20.3,18.9-20.3
	C878.1,469.6,884.9,478.2,884.9,490z M852.2,490.3c0,9.9,5.4,16.3,13.8,16.3s13.7-6.4,13.7-16.3s-5.4-16.1-13.8-16.1
	C856.5,474.2,852.2,481.8,852.2,490.3L852.2,490.3z"/>
<path class="st0" d="M906.6,470.6v24.9c0,7.6,3.1,11.1,10.7,11.1c8,0,10.7-3.8,10.7-11.1v-24.9h5.3v23.5c0,11.1-3.9,16.8-15.9,16.8
	c-11.4,0-15.9-5.3-15.9-16.3v-24.1H906.6z"/>
<path class="st0" d="M435.3,482.2c-0.6-5.7-4-8.1-9.8-8.1c-5.7,0-8.9,2.4-8.9,6.6c0,4.4,4.6,5.4,10.7,6.7
	c6.5,1.3,14.7,3.3,14.7,11.7c0,8.8-7.8,12-15.4,12c-9.4,0-16.4-4.4-16.4-13.9h5.1c0.2,7.2,5.4,9.7,11.8,9.7c4.6,0,9.8-1.6,9.8-7.2
	c0-5.1-5-6.1-11.5-7.6s-13.8-2.5-13.8-10.8c0-8.1,7.2-11.3,14.3-11.3c8.4,0,14.2,3.9,14.5,12.4L435.3,482.2z"/>
<path class="st0" d="M485.7,475.1h-13.3v35h-5.2v-35h-13.3v-4.5h31.8L485.7,475.1z"/>
<path class="st0" d="M505.6,470.6v24.9c0,7.6,3,11.1,10.7,11.1c8,0,10.7-3.8,10.7-11.1v-24.9h5.3v23.5c0,11.1-4,16.8-15.9,16.8
	c-11.4,0-15.9-5.3-15.9-16.3v-24.1H505.6z"/>
<path class="st0" d="M556.3,470.6l20.9,32.1v-32.1h5.1v39.5h-5.9l-20.8-31.7v31.7h-5v-39.5H556.3z"/>
<path class="st0" d="M606.6,470.6l20.9,32.1v-32.1h5v39.5h-5.9l-20.7-31.7v31.7h-5v-39.5H606.6z"/>
<path class="st0" d="M656.6,510.1h-5.2v-39.5h5.2V510.1z"/>
<path class="st0" d="M681,470.6l20.9,32.1v-32.1h5v39.5H701l-20.8-31.7v31.7h-5v-39.5H681z"/>
<path class="st0" d="M760,510.1h-3.3l-1.3-5c-3.3,4.1-7.3,5.9-12.8,5.9c-11.2,0-18.8-8.2-18.8-20.4c0-11.6,6.9-20.9,19.2-20.9
	c7.9,0,15.8,4.4,16.5,13h-5.1c-0.8-5.2-5.3-8.6-11.4-8.6c-8.6,0-14,6.3-14,16.4c0,9.9,5.4,16.2,13.9,16.2c8.3,0,12.2-5.7,12.4-13.3
	h-12.6v-4.3H760V510.1z"/>
<path class="st0" d="M821.8,493.9v16.2h-5.2v-16.2l-15.4-23.4h6.3l11.8,18.8l11.7-18.8h6L821.8,493.9z"/>
<path class="st0" d="M884.9,490c0,11.6-6.4,21-18.9,21s-18.9-9.6-18.9-21.1c0-12.3,7.4-20.3,18.9-20.3
	C878.1,469.6,884.9,478.2,884.9,490z M852.2,490.3c0,9.9,5.4,16.3,13.8,16.3s13.7-6.4,13.7-16.3s-5.4-16.1-13.8-16.1
	C856.5,474.2,852.2,481.8,852.2,490.3L852.2,490.3z"/>
<path class="st0" d="M906.6,470.6v24.9c0,7.6,3.1,11.1,10.7,11.1c8,0,10.7-3.8,10.7-11.1v-24.9h5.3v23.5c0,11.1-3.9,16.8-15.9,16.8
	c-11.4,0-15.9-5.3-15.9-16.3v-24.1H906.6z"/>
<path class="st0" d="M721.9,154.6c4.5-2,12.2-3.8,18.9-9.8c1.8-1.6,1.7-6.5,0.3-8.5"/>
<path class="st0" d="M723.2,156.8C723.4,156.7,723.4,156.7,723.2,156.8l0.4-0.2l0.8-0.3l1.7-0.6c1.2-0.4,2.4-0.9,3.6-1.4
	c3-1.1,5.8-2.6,8.5-4.3c2.6-1.7,5.5-3.6,6.3-6.8c0.7-2.8,0.3-5.7-1.1-8.1c-0.7-1.2-2.2-1.6-3.4-0.9c-1.2,0.7-1.6,2.2-0.9,3.4
	c0.1,0.2,0.3,0.4,0.4,0.7c-0.2-0.5,0,0.1,0,0.2c0.1,0.3,0.2,0.6,0.2,0.9c0.1,0.5,0-0.3,0,0.3s0,1.1,0,1.7c0,0.3,0,0.3,0,0
	c0,0.1,0,0.2-0.1,0.4s-0.1,0.5-0.2,0.8c-0.1,0.5,0.2-0.2-0.1,0.2l-0.2,0.3c0.2-0.2,0.2-0.3,0-0.1c-0.6,0.5-1.1,1-1.8,1.5
	c-1.1,0.8-2.3,1.6-3.5,2.3c-4.3,2.5-8.7,3.8-13.4,5.8c-1.2,0.7-1.6,2.2-0.9,3.4C720.4,157,721.9,157.4,723.2,156.8L723.2,156.8z"/>
</svg>
