<svg id="Layer_1" data-name="Layer 1" xmlns="http://www.w3.org/2000/svg" viewBox="0 0 1345.83 515.59"><defs><style>.cls-1{fill:#231f20;}</style></defs><path d="M176.84.84V494.32h206.6V488H183.13V7.14h979.74V488h-200v6.29h206.33V.84Z"/><path d="M631.17,177.85c0,2.08,2.67,6.82,2.67,15.42A52,52,0,0,1,630,212c-12.76,32.34-41.83,64.08-74.16,76.83q-11.57,4.45-20.47,4.45c-13.94,0-22.24-8-22.24-20.76,0-7.12,2.67-16,8.3-25.51,20.47-35,62.59-59,98.49-71.49-2.38-5.94-61.71.29-67.34-19.29a17,17,0,0,1-.59-3.85c0-4.45,1.77-9.2,4.44-13.94-53.69,13-149.8,30.55-248.87,38.56-47.47,3.86-94.93,5.93-137.64,5.93-59.33,0-109.17-4.15-136.16-14.83C21,163.31,7.64,155.31,2.89,146.41A8.4,8.4,0,0,1,1.7,142a9.74,9.74,0,0,1,3.86-7.42,6.43,6.43,0,0,1,4.15-1.48c2.38,0,5,1.18,8,4.45,4.45,5,6.23,11,11.27,16.61,5.64,5.93,14.54,11,23.73,13.35,28.48,6.52,70,11,124.3,11,37.37,0,81-2.07,129.92-6.82,79.8-7.42,175.91-18.69,253.63-40.05,15.42-20.76,48.65-43,64.07-43,.59,0,1.48.3,2.08.3,6.23,1.18,13.64,6.82,15.42,12.46a4.32,4.32,0,0,1,.3,2.07c0,4.75-3.56,12.17-8.31,12.17-2.67,0-5.34-1.78-8-7.12-.89-2.08-3-3-5.93-3-16.31,0-57.84,29.37-57.84,45.68v.6c.59,7.11,15.42,9.49,30.25,10.67,15.13,1.49,30.26,1.78,35,10.09,19.87-7.12,68.52-17.5,89.58-20.47,1.19,0,2.08-.29,3-.29,2.67,0,4.15.59,4.15,1.18s-1.19,1.19-4.45,1.78c-18.39,2.67-69.41,13.94-88.1,21.95C631.17,177,631.17,177.26,631.17,177.85ZM627,192.09a22.14,22.14,0,0,0-3-11.27c-31.74,9.78-80.39,38.26-98.19,68.22-5.64,9.49-8,17.21-8,23.14,0,9.79,6.53,14.83,16.61,14.83a49.61,49.61,0,0,0,17.21-3.56C584,271,616,234.21,625.83,200.39A26.75,26.75,0,0,0,627,192.09Z"/><path d="M1343.41,155a9.16,9.16,0,0,1,.89,3.85c0,4.16-2.67,8-7.12,8-2.37,0-5.64-1.48-8.9-5-11.57-12.75-32-21.06-48.06-24.62-35.89-8-79.49-11.87-127-11.87-129,0-285.66,29.07-390.07,86.62-.6,1.19-1.49,2.38-2.38,3.86C751,234.51,742.13,253.2,732,271.59c-22.25,40.64-51.32,88.1-86,120.43-8.6,8-21.35,14.83-33.22,14.83a27.7,27.7,0,0,1-5-.29c-9.49-1.49-13-5.94-13-15.43v-.59c0-26.4,20.46-53.4,37.08-74.16,33.22-40.94,71.19-68.52,113-98.48a21.4,21.4,0,0,0,6.83-7.72c7.41-13.64,17.8-31.14,24.32-44.49l-.59-.6c-1.78,1.49-3.26,2.67-4.75,4.16-11,9.79-42.71,36.78-55.77,42.42a16.43,16.43,0,0,1-6.22,1.18c-5.94,0-10.09-4.15-10.09-11.57V200.1c1.78-29.07,31.44-67,41.53-67a2.89,2.89,0,0,1,2.67,1.18,6,6,0,0,1,1.18,3.86c0,3.56-3,7.12-5.93,11.27a204.58,204.58,0,0,0-24.62,44.5c-.89,2.07-2.07,4.45-2.07,6.82a12.37,12.37,0,0,0,.59,3.26c3.26-1.78,6.52-3.26,9.79-5,29.07-17.8,43.6-32.93,67.93-55.17,1.18-.89,2.07-2.08,3-2.38a9.4,9.4,0,0,1,2.38-.59c2.07,0,2.67,1.19,2.67,3v1.18c-.3,2.38-23.44,46-26.4,52.21-1.78,3.56-2.67,5.93-3.56,7.71,97.59-54.58,270.53-85.13,401.35-85.13,40.34,0,76.53,3,105.3,8.9a314.79,314.79,0,0,1,42.12,11.86C1323.83,143.44,1339.55,147.3,1343.41,155Zm-601,71.49c-11.57,7.41-26.7,19.28-37.37,27.88-35.9,27.59-72.68,63.48-94.93,103.23-5.63,9.79-9.19,20.17-9.19,31.44,0,8.31,2.67,11,10.67,11.28,8.61,0,19-4.75,25.52-10.38,23.43-21.07,41.23-45.39,57.25-72.09C706.83,296.21,733.52,248.75,742.42,226.5Z"/><path class="cls-1" d="M435.34,482.17c-.61-5.72-4-8.06-9.83-8.06-5.67,0-8.94,2.39-8.94,6.56,0,4.44,4.61,5.38,10.71,6.66,6.45,1.33,14.66,3.33,14.66,11.66,0,8.77-7.82,12-15.38,12-9.44,0-16.38-4.38-16.38-13.93h5.06c.22,7.16,5.44,9.66,11.77,9.66,4.61,0,9.83-1.61,9.83-7.22,0-5.11-5-6.11-11.5-7.61s-13.77-2.5-13.77-10.82c0-8.11,7.22-11.28,14.33-11.28,8.38,0,14.16,3.89,14.49,12.39Z"/><path class="cls-1" d="M485.68,475.11H472.41v35h-5.22v-35H453.92v-4.55h31.76Z"/><path class="cls-1" d="M505.59,470.56v24.93c0,7.61,3.05,11.11,10.66,11.11,8,0,10.66-3.83,10.66-11.11V470.56h5.28V494.1c0,11.11-4,16.83-15.94,16.83-11.44,0-15.94-5.33-15.94-16.27v-24.1Z"/><path class="cls-1" d="M556.34,470.56l20.88,32.1v-32.1h5.06V510.1h-5.89l-20.77-31.71V510.1h-5V470.56Z"/><path class="cls-1" d="M606.62,470.56l20.88,32.1v-32.1h5V510.1h-5.88L605.9,478.39V510.1h-5V470.56Z"/><path class="cls-1" d="M656.6,510.1h-5.22V470.56h5.22Z"/><path class="cls-1" d="M681,470.56l20.88,32.1v-32.1h5V510.1H701l-20.77-31.71V510.1h-5V470.56Z"/><path class="cls-1" d="M760,510.1h-3.33l-1.33-5c-3.33,4.11-7.28,5.89-12.77,5.89-11.22,0-18.83-8.22-18.83-20.38,0-11.6,6.89-20.93,19.22-20.93,7.94,0,15.82,4.44,16.54,13h-5.11c-.77-5.16-5.33-8.61-11.43-8.61-8.61,0-14,6.33-14,16.39,0,9.88,5.39,16.21,13.94,16.21,8.33,0,12.22-5.66,12.44-13.27H742.7v-4.28H760Z"/><path class="cls-1" d="M821.83,493.94V510.1h-5.17V493.94l-15.38-23.38h6.27l11.83,18.82,11.72-18.82h6Z"/><path class="cls-1" d="M884.86,490c0,11.6-6.39,21-18.94,21S847,501.38,847,489.88c0-12.32,7.38-20.26,18.88-20.26C878.14,469.62,884.86,478.22,884.86,490Zm-32.65.27c0,9.89,5.38,16.27,13.77,16.27s13.66-6.44,13.66-16.27-5.39-16.1-13.77-16.1C856.54,474.17,852.21,481.83,852.21,490.27Z"/><path class="cls-1" d="M906.59,470.56v24.93c0,7.61,3.06,11.11,10.66,11.11,8,0,10.66-3.83,10.66-11.11V470.56h5.28V494.1c0,11.11-3.94,16.83-15.94,16.83-11.44,0-15.93-5.33-15.93-16.27v-24.1Z"/><path d="M435.34,482.17c-.61-5.72-4-8.06-9.83-8.06-5.67,0-8.94,2.39-8.94,6.56,0,4.44,4.61,5.38,10.71,6.66,6.45,1.33,14.66,3.33,14.66,11.66,0,8.77-7.82,12-15.38,12-9.44,0-16.38-4.38-16.38-13.93h5.06c.22,7.16,5.44,9.66,11.77,9.66,4.61,0,9.83-1.61,9.83-7.22,0-5.11-5-6.11-11.5-7.61s-13.77-2.5-13.77-10.82c0-8.11,7.22-11.28,14.33-11.28,8.38,0,14.16,3.89,14.49,12.39Z"/><path d="M485.68,475.11H472.41v35h-5.22v-35H453.92v-4.55h31.76Z"/><path d="M505.59,470.56v24.93c0,7.61,3.05,11.11,10.66,11.11,8,0,10.66-3.83,10.66-11.11V470.56h5.28V494.1c0,11.11-4,16.83-15.94,16.83-11.44,0-15.94-5.33-15.94-16.27v-24.1Z"/><path d="M556.34,470.56l20.88,32.1v-32.1h5.06V510.1h-5.89l-20.77-31.71V510.1h-5V470.56Z"/><path d="M606.62,470.56l20.88,32.1v-32.1h5V510.1h-5.88L605.9,478.39V510.1h-5V470.56Z"/><path d="M656.6,510.1h-5.22V470.56h5.22Z"/><path d="M681,470.56l20.88,32.1v-32.1h5V510.1H701l-20.77-31.71V510.1h-5V470.56Z"/><path d="M760,510.1h-3.33l-1.33-5c-3.33,4.11-7.28,5.89-12.77,5.89-11.22,0-18.83-8.22-18.83-20.38,0-11.6,6.89-20.93,19.22-20.93,7.94,0,15.82,4.44,16.54,13h-5.11c-.77-5.16-5.33-8.61-11.43-8.61-8.61,0-14,6.33-14,16.39,0,9.88,5.39,16.21,13.94,16.21,8.33,0,12.22-5.66,12.44-13.27H742.7v-4.28H760Z"/><path d="M821.83,493.94V510.1h-5.17V493.94l-15.38-23.38h6.27l11.83,18.82,11.72-18.82h6Z"/><path d="M884.86,490c0,11.6-6.39,21-18.94,21S847,501.38,847,489.88c0-12.32,7.38-20.26,18.88-20.26C878.14,469.62,884.86,478.22,884.86,490Zm-32.65.27c0,9.89,5.38,16.27,13.77,16.27s13.66-6.44,13.66-16.27-5.39-16.1-13.77-16.1C856.54,474.17,852.21,481.83,852.21,490.27Z"/><path d="M906.59,470.56v24.93c0,7.61,3.06,11.11,10.66,11.11,8,0,10.66-3.83,10.66-11.11V470.56h5.28V494.1c0,11.11-3.94,16.83-15.94,16.83-11.44,0-15.93-5.33-15.93-16.27v-24.1Z"/><path d="M721.89,154.64c4.54-2,12.19-3.8,18.92-9.79,1.84-1.63,1.74-6.51.35-8.54"/><path d="M723.15,156.8c.25-.11.24-.1,0,0l.39-.16.8-.31,1.73-.65c1.21-.45,2.42-.9,3.62-1.39a48.47,48.47,0,0,0,8.51-4.29c2.61-1.72,5.54-3.6,6.26-6.84a11.16,11.16,0,0,0-1.09-8.13,2.5,2.5,0,1,0-4.32,2.52,4.91,4.91,0,0,1,.37.67c-.24-.53,0,.13,0,.2.09.3.15.6.21.9.12.52,0-.31,0,.29s0,1.13,0,1.71c0,.3,0,.32,0,0,0,.12,0,.23-.06.35s-.14.51-.2.76c-.13.54.19-.23-.07.19l-.2.34c.2-.25.22-.27,0-.07-.6.46-1.14,1-1.75,1.47a33.27,33.27,0,0,1-3.45,2.29c-4.31,2.52-8.72,3.76-13.36,5.77a2.51,2.51,0,0,0-.89,3.42,2.56,2.56,0,0,0,3.42.89Z"/></svg>